<mxfile host="app.diagrams.net" agent="Mozilla/5.0 (Macintosh; Intel Mac OS X 10_15_7) AppleWebKit/537.36 (KHTML, like Gecko) Chrome/141.0.0.0 Safari/537.36" version="28.2.7">
  <diagram name="Page-1" id="nHtkJwjDJADX3kszTweU">
    <mxGraphModel dx="4390" dy="1615" grid="1" gridSize="10" guides="1" tooltips="1" connect="1" arrows="1" fold="1" page="1" pageScale="1" pageWidth="827" pageHeight="1169" math="0" shadow="0">
      <root>
        <mxCell id="0" />
        <mxCell id="1" parent="0" />
        <mxCell id="k3gkesRyHBmJgMEclzgZ-37" style="edgeStyle=orthogonalEdgeStyle;rounded=0;orthogonalLoop=1;jettySize=auto;html=1;exitX=0;exitY=0.5;exitDx=0;exitDy=0;entryX=0.5;entryY=0;entryDx=0;entryDy=0;" edge="1" parent="1" source="k3gkesRyHBmJgMEclzgZ-1" target="k3gkesRyHBmJgMEclzgZ-3">
          <mxGeometry relative="1" as="geometry" />
        </mxCell>
        <mxCell id="k3gkesRyHBmJgMEclzgZ-38" style="edgeStyle=orthogonalEdgeStyle;rounded=0;orthogonalLoop=1;jettySize=auto;html=1;exitX=0.25;exitY=1;exitDx=0;exitDy=0;entryX=0.5;entryY=0;entryDx=0;entryDy=0;" edge="1" parent="1" source="k3gkesRyHBmJgMEclzgZ-1" target="k3gkesRyHBmJgMEclzgZ-2">
          <mxGeometry relative="1" as="geometry" />
        </mxCell>
        <mxCell id="k3gkesRyHBmJgMEclzgZ-40" style="edgeStyle=orthogonalEdgeStyle;rounded=0;orthogonalLoop=1;jettySize=auto;html=1;exitX=1;exitY=0.5;exitDx=0;exitDy=0;entryX=0.5;entryY=0;entryDx=0;entryDy=0;" edge="1" parent="1" source="k3gkesRyHBmJgMEclzgZ-1" target="k3gkesRyHBmJgMEclzgZ-5">
          <mxGeometry relative="1" as="geometry" />
        </mxCell>
        <mxCell id="k3gkesRyHBmJgMEclzgZ-1" value="Інформація від користувача" style="rounded=0;whiteSpace=wrap;html=1;" vertex="1" parent="1">
          <mxGeometry x="580" y="40" width="160" height="60" as="geometry" />
        </mxCell>
        <mxCell id="k3gkesRyHBmJgMEclzgZ-45" style="edgeStyle=orthogonalEdgeStyle;rounded=0;orthogonalLoop=1;jettySize=auto;html=1;exitX=0.25;exitY=1;exitDx=0;exitDy=0;" edge="1" parent="1" source="k3gkesRyHBmJgMEclzgZ-2" target="k3gkesRyHBmJgMEclzgZ-10">
          <mxGeometry relative="1" as="geometry" />
        </mxCell>
        <mxCell id="k3gkesRyHBmJgMEclzgZ-46" style="edgeStyle=orthogonalEdgeStyle;rounded=0;orthogonalLoop=1;jettySize=auto;html=1;exitX=0.75;exitY=1;exitDx=0;exitDy=0;" edge="1" parent="1" source="k3gkesRyHBmJgMEclzgZ-2" target="k3gkesRyHBmJgMEclzgZ-11">
          <mxGeometry relative="1" as="geometry" />
        </mxCell>
        <mxCell id="k3gkesRyHBmJgMEclzgZ-2" value="Фізіологічні особливості" style="rounded=0;whiteSpace=wrap;html=1;" vertex="1" parent="1">
          <mxGeometry x="400" y="160" width="140" height="60" as="geometry" />
        </mxCell>
        <mxCell id="k3gkesRyHBmJgMEclzgZ-41" style="edgeStyle=orthogonalEdgeStyle;rounded=0;orthogonalLoop=1;jettySize=auto;html=1;exitX=0;exitY=1;exitDx=0;exitDy=0;entryX=0.5;entryY=0;entryDx=0;entryDy=0;" edge="1" parent="1" source="k3gkesRyHBmJgMEclzgZ-3" target="k3gkesRyHBmJgMEclzgZ-9">
          <mxGeometry relative="1" as="geometry" />
        </mxCell>
        <mxCell id="k3gkesRyHBmJgMEclzgZ-42" style="edgeStyle=orthogonalEdgeStyle;rounded=0;orthogonalLoop=1;jettySize=auto;html=1;exitX=0.25;exitY=1;exitDx=0;exitDy=0;" edge="1" parent="1" source="k3gkesRyHBmJgMEclzgZ-3" target="k3gkesRyHBmJgMEclzgZ-8">
          <mxGeometry relative="1" as="geometry" />
        </mxCell>
        <mxCell id="k3gkesRyHBmJgMEclzgZ-43" style="edgeStyle=orthogonalEdgeStyle;rounded=0;orthogonalLoop=1;jettySize=auto;html=1;exitX=0.75;exitY=1;exitDx=0;exitDy=0;entryX=0.331;entryY=0.022;entryDx=0;entryDy=0;entryPerimeter=0;" edge="1" parent="1" source="k3gkesRyHBmJgMEclzgZ-3" target="k3gkesRyHBmJgMEclzgZ-6">
          <mxGeometry relative="1" as="geometry">
            <Array as="points">
              <mxPoint x="55" y="245" />
              <mxPoint x="80" y="245" />
            </Array>
          </mxGeometry>
        </mxCell>
        <mxCell id="k3gkesRyHBmJgMEclzgZ-44" style="edgeStyle=orthogonalEdgeStyle;rounded=0;orthogonalLoop=1;jettySize=auto;html=1;exitX=1;exitY=1;exitDx=0;exitDy=0;entryX=0.25;entryY=0;entryDx=0;entryDy=0;" edge="1" parent="1" source="k3gkesRyHBmJgMEclzgZ-3" target="k3gkesRyHBmJgMEclzgZ-7">
          <mxGeometry relative="1" as="geometry" />
        </mxCell>
        <mxCell id="k3gkesRyHBmJgMEclzgZ-3" value="Загальні персональні дані" style="rounded=0;whiteSpace=wrap;html=1;" vertex="1" parent="1">
          <mxGeometry x="-50" y="160" width="140" height="60" as="geometry" />
        </mxCell>
        <mxCell id="k3gkesRyHBmJgMEclzgZ-47" style="edgeStyle=orthogonalEdgeStyle;rounded=0;orthogonalLoop=1;jettySize=auto;html=1;exitX=0.5;exitY=1;exitDx=0;exitDy=0;entryX=0.5;entryY=0;entryDx=0;entryDy=0;" edge="1" parent="1" source="k3gkesRyHBmJgMEclzgZ-4" target="k3gkesRyHBmJgMEclzgZ-14">
          <mxGeometry relative="1" as="geometry" />
        </mxCell>
        <mxCell id="k3gkesRyHBmJgMEclzgZ-48" style="edgeStyle=orthogonalEdgeStyle;rounded=0;orthogonalLoop=1;jettySize=auto;html=1;exitX=0.25;exitY=1;exitDx=0;exitDy=0;entryX=0.5;entryY=0;entryDx=0;entryDy=0;" edge="1" parent="1" source="k3gkesRyHBmJgMEclzgZ-4" target="k3gkesRyHBmJgMEclzgZ-13">
          <mxGeometry relative="1" as="geometry" />
        </mxCell>
        <mxCell id="k3gkesRyHBmJgMEclzgZ-49" style="edgeStyle=orthogonalEdgeStyle;rounded=0;orthogonalLoop=1;jettySize=auto;html=1;exitX=0.75;exitY=1;exitDx=0;exitDy=0;entryX=0.5;entryY=0;entryDx=0;entryDy=0;" edge="1" parent="1" source="k3gkesRyHBmJgMEclzgZ-4" target="k3gkesRyHBmJgMEclzgZ-16">
          <mxGeometry relative="1" as="geometry" />
        </mxCell>
        <mxCell id="k3gkesRyHBmJgMEclzgZ-4" value="Алергічні та медичні дані" style="rounded=0;whiteSpace=wrap;html=1;" vertex="1" parent="1">
          <mxGeometry x="770" y="160" width="140" height="60" as="geometry" />
        </mxCell>
        <mxCell id="k3gkesRyHBmJgMEclzgZ-50" style="edgeStyle=orthogonalEdgeStyle;rounded=0;orthogonalLoop=1;jettySize=auto;html=1;exitX=0.5;exitY=1;exitDx=0;exitDy=0;" edge="1" parent="1" source="k3gkesRyHBmJgMEclzgZ-5" target="k3gkesRyHBmJgMEclzgZ-19">
          <mxGeometry relative="1" as="geometry" />
        </mxCell>
        <mxCell id="k3gkesRyHBmJgMEclzgZ-51" style="edgeStyle=orthogonalEdgeStyle;rounded=0;orthogonalLoop=1;jettySize=auto;html=1;exitX=0.25;exitY=1;exitDx=0;exitDy=0;entryX=0.5;entryY=0;entryDx=0;entryDy=0;" edge="1" parent="1" source="k3gkesRyHBmJgMEclzgZ-5" target="k3gkesRyHBmJgMEclzgZ-18">
          <mxGeometry relative="1" as="geometry" />
        </mxCell>
        <mxCell id="k3gkesRyHBmJgMEclzgZ-52" style="edgeStyle=orthogonalEdgeStyle;rounded=0;orthogonalLoop=1;jettySize=auto;html=1;exitX=0.75;exitY=1;exitDx=0;exitDy=0;entryX=0.5;entryY=0;entryDx=0;entryDy=0;" edge="1" parent="1" source="k3gkesRyHBmJgMEclzgZ-5" target="k3gkesRyHBmJgMEclzgZ-20">
          <mxGeometry relative="1" as="geometry" />
        </mxCell>
        <mxCell id="k3gkesRyHBmJgMEclzgZ-5" value="Дані про косметологічні засоби" style="rounded=0;whiteSpace=wrap;html=1;" vertex="1" parent="1">
          <mxGeometry x="1205" y="160" width="150" height="60" as="geometry" />
        </mxCell>
        <mxCell id="k3gkesRyHBmJgMEclzgZ-6" value="Ім’я&amp;nbsp;" style="rounded=0;whiteSpace=wrap;html=1;" vertex="1" parent="1">
          <mxGeometry x="40" y="270" width="120" height="60" as="geometry" />
        </mxCell>
        <mxCell id="k3gkesRyHBmJgMEclzgZ-7" value="Дата народження" style="rounded=0;whiteSpace=wrap;html=1;" vertex="1" parent="1">
          <mxGeometry x="180" y="270" width="120" height="60" as="geometry" />
        </mxCell>
        <mxCell id="k3gkesRyHBmJgMEclzgZ-8" value="Контактна інформація (email / телефон)" style="rounded=0;whiteSpace=wrap;html=1;" vertex="1" parent="1">
          <mxGeometry x="-100" y="270" width="120" height="60" as="geometry" />
        </mxCell>
        <mxCell id="k3gkesRyHBmJgMEclzgZ-9" value="Геолокація / клімат" style="rounded=0;whiteSpace=wrap;html=1;" vertex="1" parent="1">
          <mxGeometry x="-240" y="270" width="120" height="60" as="geometry" />
        </mxCell>
        <mxCell id="k3gkesRyHBmJgMEclzgZ-10" value="Тип і стан шкіри" style="rounded=0;whiteSpace=wrap;html=1;" vertex="1" parent="1">
          <mxGeometry x="340" y="270" width="120" height="60" as="geometry" />
        </mxCell>
        <mxCell id="k3gkesRyHBmJgMEclzgZ-11" value="Тип і стан волосся" style="rounded=0;whiteSpace=wrap;html=1;" vertex="1" parent="1">
          <mxGeometry x="480" y="270" width="120" height="60" as="geometry" />
        </mxCell>
        <mxCell id="k3gkesRyHBmJgMEclzgZ-13" value="&lt;span data-end=&quot;1123&quot; data-start=&quot;1104&quot;&gt;Особливі умови&lt;/span&gt;&amp;nbsp;(вагітність, гормональні зміни...)" style="rounded=0;whiteSpace=wrap;html=1;" vertex="1" parent="1">
          <mxGeometry x="640" y="270" width="120" height="60" as="geometry" />
        </mxCell>
        <mxCell id="k3gkesRyHBmJgMEclzgZ-14" value="Алергії" style="rounded=0;whiteSpace=wrap;html=1;" vertex="1" parent="1">
          <mxGeometry x="780" y="270" width="120" height="60" as="geometry" />
        </mxCell>
        <mxCell id="k3gkesRyHBmJgMEclzgZ-16" value="Дані з медичних тестів або дерматологічних обстежень" style="rounded=0;whiteSpace=wrap;html=1;" vertex="1" parent="1">
          <mxGeometry x="920" y="270" width="120" height="60" as="geometry" />
        </mxCell>
        <mxCell id="k3gkesRyHBmJgMEclzgZ-18" value="Ціль використання" style="rounded=0;whiteSpace=wrap;html=1;" vertex="1" parent="1">
          <mxGeometry x="1080" y="270" width="120" height="60" as="geometry" />
        </mxCell>
        <mxCell id="k3gkesRyHBmJgMEclzgZ-19" value="Історія попередніх підборів" style="rounded=0;whiteSpace=wrap;html=1;" vertex="1" parent="1">
          <mxGeometry x="1220" y="270" width="120" height="60" as="geometry" />
        </mxCell>
        <mxCell id="k3gkesRyHBmJgMEclzgZ-20" value="Вподобання (бренди, формат..)" style="rounded=0;whiteSpace=wrap;html=1;" vertex="1" parent="1">
          <mxGeometry x="1360" y="270" width="120" height="60" as="geometry" />
        </mxCell>
        <mxCell id="k3gkesRyHBmJgMEclzgZ-53" style="edgeStyle=orthogonalEdgeStyle;rounded=0;orthogonalLoop=1;jettySize=auto;html=1;exitX=0.25;exitY=1;exitDx=0;exitDy=0;entryX=0.5;entryY=0;entryDx=0;entryDy=0;" edge="1" parent="1" source="k3gkesRyHBmJgMEclzgZ-21" target="k3gkesRyHBmJgMEclzgZ-25">
          <mxGeometry relative="1" as="geometry">
            <Array as="points">
              <mxPoint x="-60" y="500" />
              <mxPoint x="-60" y="528" />
              <mxPoint x="-210" y="528" />
            </Array>
          </mxGeometry>
        </mxCell>
        <mxCell id="k3gkesRyHBmJgMEclzgZ-54" style="edgeStyle=orthogonalEdgeStyle;rounded=0;orthogonalLoop=1;jettySize=auto;html=1;exitX=0.25;exitY=1;exitDx=0;exitDy=0;entryX=0.829;entryY=0.002;entryDx=0;entryDy=0;entryPerimeter=0;" edge="1" parent="1" source="k3gkesRyHBmJgMEclzgZ-21" target="k3gkesRyHBmJgMEclzgZ-24">
          <mxGeometry relative="1" as="geometry">
            <mxPoint x="-20" y="530" as="targetPoint" />
            <Array as="points">
              <mxPoint x="-30" y="555" />
            </Array>
          </mxGeometry>
        </mxCell>
        <mxCell id="k3gkesRyHBmJgMEclzgZ-55" style="edgeStyle=orthogonalEdgeStyle;rounded=0;orthogonalLoop=1;jettySize=auto;html=1;exitX=0.5;exitY=1;exitDx=0;exitDy=0;entryX=0.25;entryY=0;entryDx=0;entryDy=0;" edge="1" parent="1" source="k3gkesRyHBmJgMEclzgZ-21" target="k3gkesRyHBmJgMEclzgZ-22">
          <mxGeometry relative="1" as="geometry">
            <Array as="points">
              <mxPoint x="40" y="500" />
            </Array>
          </mxGeometry>
        </mxCell>
        <mxCell id="k3gkesRyHBmJgMEclzgZ-56" style="edgeStyle=orthogonalEdgeStyle;rounded=0;orthogonalLoop=1;jettySize=auto;html=1;exitX=0.75;exitY=1;exitDx=0;exitDy=0;entryX=0.25;entryY=0;entryDx=0;entryDy=0;" edge="1" parent="1" source="k3gkesRyHBmJgMEclzgZ-21" target="k3gkesRyHBmJgMEclzgZ-23">
          <mxGeometry relative="1" as="geometry">
            <Array as="points">
              <mxPoint x="80" y="500" />
              <mxPoint x="80" y="528" />
              <mxPoint x="180" y="528" />
            </Array>
          </mxGeometry>
        </mxCell>
        <mxCell id="k3gkesRyHBmJgMEclzgZ-21" value="Інформація від лікарів (дерматологи, трихологи)" style="rounded=0;whiteSpace=wrap;html=1;" vertex="1" parent="1">
          <mxGeometry x="-70" y="440" width="160" height="60" as="geometry" />
        </mxCell>
        <mxCell id="k3gkesRyHBmJgMEclzgZ-22" value="Дати і вартість консультацій" style="rounded=0;whiteSpace=wrap;html=1;" vertex="1" parent="1">
          <mxGeometry x="10" y="555" width="120" height="60" as="geometry" />
        </mxCell>
        <mxCell id="k3gkesRyHBmJgMEclzgZ-23" value="Висновки після онлайн-консультацій" style="rounded=0;whiteSpace=wrap;html=1;" vertex="1" parent="1">
          <mxGeometry x="150" y="555" width="120" height="60" as="geometry" />
        </mxCell>
        <mxCell id="k3gkesRyHBmJgMEclzgZ-24" value="Рекомендовані інгредієнти / засоби" style="rounded=0;whiteSpace=wrap;html=1;" vertex="1" parent="1">
          <mxGeometry x="-130" y="555" width="120" height="60" as="geometry" />
        </mxCell>
        <mxCell id="k3gkesRyHBmJgMEclzgZ-25" value="Характеристика лікарів" style="rounded=0;whiteSpace=wrap;html=1;" vertex="1" parent="1">
          <mxGeometry x="-270" y="555" width="120" height="60" as="geometry" />
        </mxCell>
        <mxCell id="k3gkesRyHBmJgMEclzgZ-57" style="edgeStyle=orthogonalEdgeStyle;rounded=0;orthogonalLoop=1;jettySize=auto;html=1;exitX=0.25;exitY=1;exitDx=0;exitDy=0;" edge="1" parent="1" source="k3gkesRyHBmJgMEclzgZ-26" target="k3gkesRyHBmJgMEclzgZ-30">
          <mxGeometry relative="1" as="geometry" />
        </mxCell>
        <mxCell id="k3gkesRyHBmJgMEclzgZ-58" style="edgeStyle=orthogonalEdgeStyle;rounded=0;orthogonalLoop=1;jettySize=auto;html=1;exitX=0.75;exitY=1;exitDx=0;exitDy=0;entryX=0.5;entryY=0;entryDx=0;entryDy=0;" edge="1" parent="1" source="k3gkesRyHBmJgMEclzgZ-26" target="k3gkesRyHBmJgMEclzgZ-29">
          <mxGeometry relative="1" as="geometry" />
        </mxCell>
        <mxCell id="k3gkesRyHBmJgMEclzgZ-26" value="Інформація від медичних сервісів, лабораторій" style="rounded=0;whiteSpace=wrap;html=1;" vertex="1" parent="1">
          <mxGeometry x="380" y="440" width="160" height="60" as="geometry" />
        </mxCell>
        <mxCell id="k3gkesRyHBmJgMEclzgZ-27" value="Склад засобів (інгредієнти, концентрації)" style="rounded=0;whiteSpace=wrap;html=1;" vertex="1" parent="1">
          <mxGeometry x="650" y="555" width="120" height="60" as="geometry" />
        </mxCell>
        <mxCell id="k3gkesRyHBmJgMEclzgZ-28" value="Оцінки користувачів" style="rounded=0;whiteSpace=wrap;html=1;" vertex="1" parent="1">
          <mxGeometry x="790" y="555" width="120" height="60" as="geometry" />
        </mxCell>
        <mxCell id="k3gkesRyHBmJgMEclzgZ-29" value="Дані про дослідження продуктів" style="rounded=0;whiteSpace=wrap;html=1;" vertex="1" parent="1">
          <mxGeometry x="470" y="555" width="120" height="60" as="geometry" />
        </mxCell>
        <mxCell id="k3gkesRyHBmJgMEclzgZ-30" value="Дані з лабораторних досліджень клієнтів" style="rounded=0;whiteSpace=wrap;html=1;" vertex="1" parent="1">
          <mxGeometry x="330" y="555" width="120" height="60" as="geometry" />
        </mxCell>
        <mxCell id="k3gkesRyHBmJgMEclzgZ-59" style="edgeStyle=orthogonalEdgeStyle;rounded=0;orthogonalLoop=1;jettySize=auto;html=1;exitX=0.5;exitY=1;exitDx=0;exitDy=0;entryX=0.5;entryY=0;entryDx=0;entryDy=0;" edge="1" parent="1" source="k3gkesRyHBmJgMEclzgZ-31" target="k3gkesRyHBmJgMEclzgZ-28">
          <mxGeometry relative="1" as="geometry" />
        </mxCell>
        <mxCell id="k3gkesRyHBmJgMEclzgZ-60" style="edgeStyle=orthogonalEdgeStyle;rounded=0;orthogonalLoop=1;jettySize=auto;html=1;exitX=0.25;exitY=1;exitDx=0;exitDy=0;entryX=0.5;entryY=0;entryDx=0;entryDy=0;" edge="1" parent="1" source="k3gkesRyHBmJgMEclzgZ-31" target="k3gkesRyHBmJgMEclzgZ-27">
          <mxGeometry relative="1" as="geometry" />
        </mxCell>
        <mxCell id="k3gkesRyHBmJgMEclzgZ-61" style="edgeStyle=orthogonalEdgeStyle;rounded=0;orthogonalLoop=1;jettySize=auto;html=1;exitX=0.75;exitY=1;exitDx=0;exitDy=0;" edge="1" parent="1" source="k3gkesRyHBmJgMEclzgZ-31" target="k3gkesRyHBmJgMEclzgZ-32">
          <mxGeometry relative="1" as="geometry" />
        </mxCell>
        <mxCell id="k3gkesRyHBmJgMEclzgZ-31" value="Інформація від виробників / маркетплейсів / аптек" style="rounded=0;whiteSpace=wrap;html=1;" vertex="1" parent="1">
          <mxGeometry x="770" y="440" width="160" height="60" as="geometry" />
        </mxCell>
        <mxCell id="k3gkesRyHBmJgMEclzgZ-32" value="Сертифікація" style="rounded=0;whiteSpace=wrap;html=1;" vertex="1" parent="1">
          <mxGeometry x="930" y="555" width="120" height="60" as="geometry" />
        </mxCell>
        <mxCell id="k3gkesRyHBmJgMEclzgZ-33" value="Транзакційна інформація" style="rounded=0;whiteSpace=wrap;html=1;" vertex="1" parent="1">
          <mxGeometry x="1110" y="555" width="120" height="60" as="geometry" />
        </mxCell>
        <mxCell id="k3gkesRyHBmJgMEclzgZ-62" style="edgeStyle=orthogonalEdgeStyle;rounded=0;orthogonalLoop=1;jettySize=auto;html=1;exitX=0.5;exitY=1;exitDx=0;exitDy=0;entryX=0.5;entryY=0;entryDx=0;entryDy=0;" edge="1" parent="1" source="k3gkesRyHBmJgMEclzgZ-34" target="k3gkesRyHBmJgMEclzgZ-35">
          <mxGeometry relative="1" as="geometry" />
        </mxCell>
        <mxCell id="k3gkesRyHBmJgMEclzgZ-63" style="edgeStyle=orthogonalEdgeStyle;rounded=0;orthogonalLoop=1;jettySize=auto;html=1;exitX=0.25;exitY=1;exitDx=0;exitDy=0;entryX=0.5;entryY=0;entryDx=0;entryDy=0;" edge="1" parent="1" source="k3gkesRyHBmJgMEclzgZ-34" target="k3gkesRyHBmJgMEclzgZ-33">
          <mxGeometry relative="1" as="geometry" />
        </mxCell>
        <mxCell id="k3gkesRyHBmJgMEclzgZ-64" style="edgeStyle=orthogonalEdgeStyle;rounded=0;orthogonalLoop=1;jettySize=auto;html=1;exitX=0.75;exitY=1;exitDx=0;exitDy=0;" edge="1" parent="1" source="k3gkesRyHBmJgMEclzgZ-34" target="k3gkesRyHBmJgMEclzgZ-36">
          <mxGeometry relative="1" as="geometry" />
        </mxCell>
        <mxCell id="k3gkesRyHBmJgMEclzgZ-34" value="Інформація від платіжних систем" style="rounded=0;whiteSpace=wrap;html=1;" vertex="1" parent="1">
          <mxGeometry x="1230" y="440" width="160" height="60" as="geometry" />
        </mxCell>
        <mxCell id="k3gkesRyHBmJgMEclzgZ-35" value="Верифікаційні дані" style="rounded=0;whiteSpace=wrap;html=1;" vertex="1" parent="1">
          <mxGeometry x="1250" y="555" width="120" height="60" as="geometry" />
        </mxCell>
        <mxCell id="k3gkesRyHBmJgMEclzgZ-36" value="Історія оплат" style="rounded=0;whiteSpace=wrap;html=1;" vertex="1" parent="1">
          <mxGeometry x="1390" y="555" width="120" height="60" as="geometry" />
        </mxCell>
        <mxCell id="k3gkesRyHBmJgMEclzgZ-39" style="edgeStyle=orthogonalEdgeStyle;rounded=0;orthogonalLoop=1;jettySize=auto;html=1;exitX=0.75;exitY=1;exitDx=0;exitDy=0;entryX=0.407;entryY=0.05;entryDx=0;entryDy=0;entryPerimeter=0;" edge="1" parent="1" source="k3gkesRyHBmJgMEclzgZ-1" target="k3gkesRyHBmJgMEclzgZ-4">
          <mxGeometry relative="1" as="geometry" />
        </mxCell>
        <mxCell id="k3gkesRyHBmJgMEclzgZ-91" style="edgeStyle=orthogonalEdgeStyle;rounded=0;orthogonalLoop=1;jettySize=auto;html=1;entryX=0;entryY=0.5;entryDx=0;entryDy=0;exitX=0.957;exitY=0.698;exitDx=0;exitDy=0;exitPerimeter=0;" edge="1" parent="1" source="k3gkesRyHBmJgMEclzgZ-65">
          <mxGeometry relative="1" as="geometry">
            <mxPoint x="525" y="937" as="sourcePoint" />
            <mxPoint x="620" y="937" as="targetPoint" />
          </mxGeometry>
        </mxCell>
        <mxCell id="k3gkesRyHBmJgMEclzgZ-98" style="edgeStyle=orthogonalEdgeStyle;rounded=0;orthogonalLoop=1;jettySize=auto;html=1;" edge="1" parent="1" source="k3gkesRyHBmJgMEclzgZ-65" target="k3gkesRyHBmJgMEclzgZ-67">
          <mxGeometry relative="1" as="geometry">
            <Array as="points">
              <mxPoint x="480" y="980" />
              <mxPoint x="480" y="980" />
            </Array>
          </mxGeometry>
        </mxCell>
        <mxCell id="k3gkesRyHBmJgMEclzgZ-184" style="edgeStyle=orthogonalEdgeStyle;rounded=0;orthogonalLoop=1;jettySize=auto;html=1;exitX=1;exitY=0;exitDx=0;exitDy=0;entryX=0;entryY=0.75;entryDx=0;entryDy=0;" edge="1" parent="1" source="k3gkesRyHBmJgMEclzgZ-65" target="k3gkesRyHBmJgMEclzgZ-70">
          <mxGeometry relative="1" as="geometry">
            <Array as="points">
              <mxPoint x="520" y="876" />
              <mxPoint x="520" y="820" />
            </Array>
          </mxGeometry>
        </mxCell>
        <mxCell id="k3gkesRyHBmJgMEclzgZ-65" value="Додаток для підбору догляду" style="ellipse;whiteSpace=wrap;html=1;aspect=fixed;" vertex="1" parent="1">
          <mxGeometry x="415" y="860" width="110" height="110" as="geometry" />
        </mxCell>
        <mxCell id="k3gkesRyHBmJgMEclzgZ-66" value="Користувач" style="rounded=0;whiteSpace=wrap;html=1;" vertex="1" parent="1">
          <mxGeometry x="200" y="885" width="120" height="60" as="geometry" />
        </mxCell>
        <mxCell id="k3gkesRyHBmJgMEclzgZ-85" style="edgeStyle=orthogonalEdgeStyle;rounded=0;orthogonalLoop=1;jettySize=auto;html=1;exitX=0.5;exitY=0;exitDx=0;exitDy=0;entryX=0.5;entryY=1;entryDx=0;entryDy=0;" edge="1" parent="1">
          <mxGeometry relative="1" as="geometry">
            <mxPoint x="469.51" y="1060" as="sourcePoint" />
            <mxPoint x="469.51" y="970" as="targetPoint" />
          </mxGeometry>
        </mxCell>
        <mxCell id="k3gkesRyHBmJgMEclzgZ-67" value="Платіжна система" style="rounded=0;whiteSpace=wrap;html=1;" vertex="1" parent="1">
          <mxGeometry x="410" y="1060" width="120" height="60" as="geometry" />
        </mxCell>
        <mxCell id="k3gkesRyHBmJgMEclzgZ-68" value="Виробники/маркетплейси/ аптеки" style="rounded=0;whiteSpace=wrap;html=1;" vertex="1" parent="1">
          <mxGeometry x="620" y="995" width="120" height="60" as="geometry" />
        </mxCell>
        <mxCell id="k3gkesRyHBmJgMEclzgZ-69" value="Медичні сервіси, лабораторії" style="rounded=0;whiteSpace=wrap;html=1;" vertex="1" parent="1">
          <mxGeometry x="620" y="885" width="120" height="60" as="geometry" />
        </mxCell>
        <mxCell id="k3gkesRyHBmJgMEclzgZ-70" value="Лікарі (дерматологи, трихологи)" style="rounded=0;whiteSpace=wrap;html=1;" vertex="1" parent="1">
          <mxGeometry x="620" y="775" width="120" height="60" as="geometry" />
        </mxCell>
        <mxCell id="k3gkesRyHBmJgMEclzgZ-73" value="" style="endArrow=classic;html=1;rounded=0;entryX=1;entryY=0.75;entryDx=0;entryDy=0;exitX=0.065;exitY=0.724;exitDx=0;exitDy=0;exitPerimeter=0;" edge="1" parent="1" source="k3gkesRyHBmJgMEclzgZ-65">
          <mxGeometry width="50" height="50" relative="1" as="geometry">
            <mxPoint x="418.6300000000001" y="940.3499999999999" as="sourcePoint" />
            <mxPoint x="320" y="940" as="targetPoint" />
          </mxGeometry>
        </mxCell>
        <mxCell id="k3gkesRyHBmJgMEclzgZ-74" value="" style="endArrow=classic;html=1;rounded=0;entryX=1;entryY=0.143;entryDx=0;entryDy=0;entryPerimeter=0;exitX=0.07;exitY=0.262;exitDx=0;exitDy=0;exitPerimeter=0;" edge="1" parent="1" source="k3gkesRyHBmJgMEclzgZ-65">
          <mxGeometry width="50" height="50" relative="1" as="geometry">
            <mxPoint x="419.6200000000001" y="888.8799999999999" as="sourcePoint" />
            <mxPoint x="320" y="888.5799999999999" as="targetPoint" />
          </mxGeometry>
        </mxCell>
        <mxCell id="k3gkesRyHBmJgMEclzgZ-76" value="&lt;font style=&quot;font-size: 8px;&quot;&gt;Сформований лікарем догляд&lt;/font&gt;" style="text;html=1;whiteSpace=wrap;strokeColor=none;fillColor=none;align=center;verticalAlign=middle;rounded=0;" vertex="1" parent="1">
          <mxGeometry x="334" y="865" width="80" height="20" as="geometry" />
        </mxCell>
        <mxCell id="k3gkesRyHBmJgMEclzgZ-78" value="&lt;font style=&quot;font-size: 8px;&quot;&gt;Персональні дані користувача&lt;/font&gt;" style="text;html=1;whiteSpace=wrap;strokeColor=none;fillColor=none;align=center;verticalAlign=middle;rounded=0;" vertex="1" parent="1">
          <mxGeometry x="334" y="892" width="80" height="20" as="geometry" />
        </mxCell>
        <mxCell id="k3gkesRyHBmJgMEclzgZ-79" value="&lt;font style=&quot;font-size: 8px;&quot;&gt;Коригування до рекомендацій&lt;/font&gt;" style="text;html=1;whiteSpace=wrap;strokeColor=none;fillColor=none;align=center;verticalAlign=middle;rounded=0;" vertex="1" parent="1">
          <mxGeometry x="334" y="917" width="80" height="20" as="geometry" />
        </mxCell>
        <mxCell id="k3gkesRyHBmJgMEclzgZ-80" value="" style="endArrow=classic;html=1;rounded=0;exitX=1;exitY=0.5;exitDx=0;exitDy=0;entryX=0;entryY=0.5;entryDx=0;entryDy=0;" edge="1" parent="1" source="k3gkesRyHBmJgMEclzgZ-66" target="k3gkesRyHBmJgMEclzgZ-65">
          <mxGeometry width="50" height="50" relative="1" as="geometry">
            <mxPoint x="400" y="950" as="sourcePoint" />
            <mxPoint x="450" y="900" as="targetPoint" />
          </mxGeometry>
        </mxCell>
        <mxCell id="k3gkesRyHBmJgMEclzgZ-83" value="&lt;font style=&quot;font-size: 8px;&quot;&gt;Сплата&amp;nbsp;&lt;/font&gt;&lt;div&gt;&lt;font style=&quot;font-size: 8px;&quot;&gt;послуг&lt;/font&gt;&lt;/div&gt;" style="text;html=1;whiteSpace=wrap;strokeColor=none;fillColor=none;align=center;verticalAlign=middle;rounded=0;" vertex="1" parent="1">
          <mxGeometry x="457" y="995" width="80" height="20" as="geometry" />
        </mxCell>
        <mxCell id="k3gkesRyHBmJgMEclzgZ-84" value="&lt;div&gt;&lt;span style=&quot;font-size: 8px;&quot;&gt;Інформація про оплату&lt;/span&gt;&lt;/div&gt;" style="text;html=1;whiteSpace=wrap;strokeColor=none;fillColor=none;align=right;verticalAlign=middle;rounded=0;" vertex="1" parent="1">
          <mxGeometry x="380" y="995" width="90" height="20" as="geometry" />
        </mxCell>
        <mxCell id="k3gkesRyHBmJgMEclzgZ-89" style="edgeStyle=orthogonalEdgeStyle;rounded=0;orthogonalLoop=1;jettySize=auto;html=1;exitX=0;exitY=0.25;exitDx=0;exitDy=0;entryX=0.965;entryY=0.366;entryDx=0;entryDy=0;entryPerimeter=0;" edge="1" parent="1" source="k3gkesRyHBmJgMEclzgZ-69" target="k3gkesRyHBmJgMEclzgZ-65">
          <mxGeometry relative="1" as="geometry" />
        </mxCell>
        <mxCell id="k3gkesRyHBmJgMEclzgZ-92" style="edgeStyle=orthogonalEdgeStyle;rounded=0;orthogonalLoop=1;jettySize=auto;html=1;exitX=0;exitY=0.25;exitDx=0;exitDy=0;entryX=0.809;entryY=0.907;entryDx=0;entryDy=0;entryPerimeter=0;" edge="1" parent="1">
          <mxGeometry relative="1" as="geometry">
            <mxPoint x="620" y="1007" as="sourcePoint" />
            <mxPoint x="503.99" y="956.77" as="targetPoint" />
            <Array as="points">
              <mxPoint x="620" y="1000" />
              <mxPoint x="540" y="1000" />
              <mxPoint x="540" y="957" />
            </Array>
          </mxGeometry>
        </mxCell>
        <mxCell id="k3gkesRyHBmJgMEclzgZ-93" style="edgeStyle=orthogonalEdgeStyle;rounded=0;orthogonalLoop=1;jettySize=auto;html=1;exitX=0;exitY=0.5;exitDx=0;exitDy=0;entryX=0.769;entryY=0.935;entryDx=0;entryDy=0;entryPerimeter=0;" edge="1" parent="1" source="k3gkesRyHBmJgMEclzgZ-68" target="k3gkesRyHBmJgMEclzgZ-65">
          <mxGeometry relative="1" as="geometry">
            <Array as="points">
              <mxPoint x="620" y="1040" />
              <mxPoint x="530" y="1040" />
              <mxPoint x="530" y="963" />
            </Array>
          </mxGeometry>
        </mxCell>
        <mxCell id="k3gkesRyHBmJgMEclzgZ-96" value="&lt;span style=&quot;font-size: 8px;&quot;&gt;Результати аналізів&lt;/span&gt;" style="text;html=1;whiteSpace=wrap;strokeColor=none;fillColor=none;align=center;verticalAlign=middle;rounded=0;" vertex="1" parent="1">
          <mxGeometry x="510" y="880" width="120" height="20" as="geometry" />
        </mxCell>
        <mxCell id="k3gkesRyHBmJgMEclzgZ-97" value="&lt;span style=&quot;font-size: 8px;&quot;&gt;Запит на отримання&amp;nbsp;&lt;/span&gt;&lt;div&gt;&lt;span style=&quot;font-size: 8px;&quot;&gt;аналізу&lt;/span&gt;&lt;/div&gt;" style="text;html=1;whiteSpace=wrap;strokeColor=none;fillColor=none;align=center;verticalAlign=middle;rounded=0;" vertex="1" parent="1">
          <mxGeometry x="510" y="912" width="120" height="20" as="geometry" />
        </mxCell>
        <mxCell id="k3gkesRyHBmJgMEclzgZ-99" value="&lt;span style=&quot;font-size: 8px;&quot;&gt;Інформація про&amp;nbsp;&lt;/span&gt;&lt;div&gt;&lt;span style=&quot;font-size: 8px;&quot;&gt;тестування&lt;/span&gt;&lt;/div&gt;" style="text;html=1;whiteSpace=wrap;strokeColor=none;fillColor=none;align=center;verticalAlign=middle;rounded=0;" vertex="1" parent="1">
          <mxGeometry x="520" y="1015" width="120" height="20" as="geometry" />
        </mxCell>
        <mxCell id="k3gkesRyHBmJgMEclzgZ-100" value="&lt;span style=&quot;font-size: 8px;&quot;&gt;Інформація про склад&lt;/span&gt;" style="text;html=1;whiteSpace=wrap;strokeColor=none;fillColor=none;align=center;verticalAlign=middle;rounded=0;" vertex="1" parent="1">
          <mxGeometry x="523" y="977" width="120" height="20" as="geometry" />
        </mxCell>
        <mxCell id="k3gkesRyHBmJgMEclzgZ-101" value="1.Обробка вхідних даних" style="ellipse;whiteSpace=wrap;html=1;aspect=fixed;" vertex="1" parent="1">
          <mxGeometry x="1190" y="807.5" width="80" height="80" as="geometry" />
        </mxCell>
        <mxCell id="k3gkesRyHBmJgMEclzgZ-105" style="edgeStyle=orthogonalEdgeStyle;rounded=0;orthogonalLoop=1;jettySize=auto;html=1;exitX=1;exitY=0.5;exitDx=0;exitDy=0;entryX=0;entryY=0.5;entryDx=0;entryDy=0;" edge="1" parent="1" source="k3gkesRyHBmJgMEclzgZ-102" target="k3gkesRyHBmJgMEclzgZ-101">
          <mxGeometry relative="1" as="geometry" />
        </mxCell>
        <mxCell id="k3gkesRyHBmJgMEclzgZ-102" value="Користувач" style="rounded=0;whiteSpace=wrap;html=1;" vertex="1" parent="1">
          <mxGeometry x="890" y="817.5" width="120" height="60" as="geometry" />
        </mxCell>
        <mxCell id="k3gkesRyHBmJgMEclzgZ-104" value="БД Персональної інформації" style="html=1;dashed=0;whiteSpace=wrap;shape=partialRectangle;right=0;left=0;" vertex="1" parent="1">
          <mxGeometry x="1030" y="762.5" width="120" height="45" as="geometry" />
        </mxCell>
        <mxCell id="k3gkesRyHBmJgMEclzgZ-108" value="3.Підбір засобів" style="ellipse;whiteSpace=wrap;html=1;aspect=fixed;" vertex="1" parent="1">
          <mxGeometry x="1190" y="932.5" width="80" height="80" as="geometry" />
        </mxCell>
        <mxCell id="k3gkesRyHBmJgMEclzgZ-110" value="БД про фізіологічні особливості" style="html=1;dashed=0;whiteSpace=wrap;shape=partialRectangle;right=0;left=0;" vertex="1" parent="1">
          <mxGeometry x="980" y="904.5" width="120" height="45" as="geometry" />
        </mxCell>
        <mxCell id="k3gkesRyHBmJgMEclzgZ-111" value="&lt;font style=&quot;font-size: 8px;&quot;&gt;Персональні дані користувача&lt;/font&gt;" style="text;html=1;whiteSpace=wrap;strokeColor=none;fillColor=none;align=center;verticalAlign=middle;rounded=0;" vertex="1" parent="1">
          <mxGeometry x="1030" y="825" width="139" height="20" as="geometry" />
        </mxCell>
        <mxCell id="k3gkesRyHBmJgMEclzgZ-113" value="" style="endArrow=classic;startArrow=classic;html=1;rounded=0;exitX=1;exitY=0;exitDx=0;exitDy=0;entryX=0.025;entryY=0.75;entryDx=0;entryDy=0;entryPerimeter=0;" edge="1" parent="1" source="k3gkesRyHBmJgMEclzgZ-110" target="k3gkesRyHBmJgMEclzgZ-101">
          <mxGeometry width="50" height="50" relative="1" as="geometry">
            <mxPoint x="1110" y="922.5" as="sourcePoint" />
            <mxPoint x="1160" y="872.5" as="targetPoint" />
          </mxGeometry>
        </mxCell>
        <mxCell id="k3gkesRyHBmJgMEclzgZ-114" value="Медичні сервіси, лабораторії" style="rounded=0;whiteSpace=wrap;html=1;" vertex="1" parent="1">
          <mxGeometry x="996" y="1017" width="120" height="60" as="geometry" />
        </mxCell>
        <mxCell id="k3gkesRyHBmJgMEclzgZ-116" value="&lt;span style=&quot;font-size: 8px;&quot;&gt;Результати аналізів&lt;/span&gt;" style="text;html=1;whiteSpace=wrap;strokeColor=none;fillColor=none;align=center;verticalAlign=middle;rounded=0;" vertex="1" parent="1">
          <mxGeometry x="1050" y="970" width="60" height="27" as="geometry" />
        </mxCell>
        <mxCell id="k3gkesRyHBmJgMEclzgZ-119" value="" style="endArrow=classic;html=1;rounded=0;entryX=1;entryY=0.5;entryDx=0;entryDy=0;" edge="1" parent="1" target="k3gkesRyHBmJgMEclzgZ-114">
          <mxGeometry width="50" height="50" relative="1" as="geometry">
            <mxPoint x="1210" y="1007.5" as="sourcePoint" />
            <mxPoint x="1260" y="957.5" as="targetPoint" />
          </mxGeometry>
        </mxCell>
        <mxCell id="k3gkesRyHBmJgMEclzgZ-120" value="&lt;span style=&quot;font-size: 8px;&quot;&gt;Запит на отримання&amp;nbsp;&lt;/span&gt;&lt;div&gt;&lt;span style=&quot;font-size: 8px;&quot;&gt;аналізу&lt;/span&gt;&lt;/div&gt;" style="text;html=1;whiteSpace=wrap;strokeColor=none;fillColor=none;align=center;verticalAlign=middle;rounded=0;" vertex="1" parent="1">
          <mxGeometry x="1130" y="1035" width="120" height="20" as="geometry" />
        </mxCell>
        <mxCell id="k3gkesRyHBmJgMEclzgZ-121" value="Виробники/маркетплейси/ аптеки" style="rounded=0;whiteSpace=wrap;html=1;" vertex="1" parent="1">
          <mxGeometry x="1355" y="917.5" width="120" height="60" as="geometry" />
        </mxCell>
        <mxCell id="k3gkesRyHBmJgMEclzgZ-129" value="&lt;span style=&quot;font-size: 8px;&quot;&gt;Інформація про склад&lt;/span&gt;" style="text;html=1;whiteSpace=wrap;strokeColor=none;fillColor=none;align=center;verticalAlign=middle;rounded=0;rotation=0;" vertex="1" parent="1">
          <mxGeometry x="1262" y="913.5" width="80" height="20" as="geometry" />
        </mxCell>
        <mxCell id="k3gkesRyHBmJgMEclzgZ-130" value="" style="endArrow=classic;html=1;rounded=0;exitX=0.625;exitY=0.02;exitDx=0;exitDy=0;exitPerimeter=0;entryX=0.319;entryY=0.981;entryDx=0;entryDy=0;entryPerimeter=0;" edge="1" parent="1" source="k3gkesRyHBmJgMEclzgZ-114" target="k3gkesRyHBmJgMEclzgZ-101">
          <mxGeometry width="50" height="50" relative="1" as="geometry">
            <mxPoint x="1050" y="1027.5" as="sourcePoint" />
            <mxPoint x="1100" y="977.5" as="targetPoint" />
            <Array as="points" />
          </mxGeometry>
        </mxCell>
        <mxCell id="k3gkesRyHBmJgMEclzgZ-132" value="" style="endArrow=classic;startArrow=classic;html=1;rounded=0;exitX=0;exitY=0.25;exitDx=0;exitDy=0;entryX=1;entryY=0;entryDx=0;entryDy=0;" edge="1" parent="1" source="k3gkesRyHBmJgMEclzgZ-121" target="k3gkesRyHBmJgMEclzgZ-108">
          <mxGeometry width="50" height="50" relative="1" as="geometry">
            <mxPoint x="1210" y="1097.5" as="sourcePoint" />
            <mxPoint x="1261" y="997.5" as="targetPoint" />
          </mxGeometry>
        </mxCell>
        <mxCell id="k3gkesRyHBmJgMEclzgZ-133" value="" style="endArrow=classic;startArrow=classic;html=1;rounded=0;entryX=0.146;entryY=-0.027;entryDx=0;entryDy=0;entryPerimeter=0;exitX=0;exitY=0.5;exitDx=0;exitDy=0;" edge="1" parent="1" source="k3gkesRyHBmJgMEclzgZ-121" target="k3gkesRyHBmJgMEclzgZ-134">
          <mxGeometry width="50" height="50" relative="1" as="geometry">
            <mxPoint x="1210" y="1097.5" as="sourcePoint" />
            <mxPoint x="1260" y="1047.5" as="targetPoint" />
          </mxGeometry>
        </mxCell>
        <mxCell id="k3gkesRyHBmJgMEclzgZ-134" value="&lt;span style=&quot;font-size: 8px;&quot;&gt;Інформація про&amp;nbsp;&lt;/span&gt;&lt;div&gt;&lt;span style=&quot;font-size: 8px;&quot;&gt;тестування&lt;/span&gt;&lt;/div&gt;" style="text;html=1;whiteSpace=wrap;strokeColor=none;fillColor=none;align=center;verticalAlign=middle;rounded=0;" vertex="1" parent="1">
          <mxGeometry x="1251" y="960.5" width="120" height="20" as="geometry" />
        </mxCell>
        <mxCell id="k3gkesRyHBmJgMEclzgZ-135" value="2. Консультація з лікарем" style="ellipse;whiteSpace=wrap;html=1;aspect=fixed;" vertex="1" parent="1">
          <mxGeometry x="1190" y="682.5" width="80" height="80" as="geometry" />
        </mxCell>
        <mxCell id="k3gkesRyHBmJgMEclzgZ-136" value="Лікарі (дерматологи, трихологи)" style="rounded=0;whiteSpace=wrap;html=1;" vertex="1" parent="1">
          <mxGeometry x="1345" y="692.5" width="120" height="60" as="geometry" />
        </mxCell>
        <mxCell id="k3gkesRyHBmJgMEclzgZ-137" value="" style="endArrow=classic;html=1;rounded=0;exitX=0;exitY=0.5;exitDx=0;exitDy=0;entryX=0.714;entryY=0.059;entryDx=0;entryDy=0;entryPerimeter=0;" edge="1" parent="1" source="k3gkesRyHBmJgMEclzgZ-70" target="k3gkesRyHBmJgMEclzgZ-65">
          <mxGeometry width="50" height="50" relative="1" as="geometry">
            <mxPoint x="770" y="1030" as="sourcePoint" />
            <mxPoint x="820" y="980" as="targetPoint" />
            <Array as="points">
              <mxPoint x="560" y="805" />
              <mxPoint x="515" y="805" />
            </Array>
          </mxGeometry>
        </mxCell>
        <mxCell id="k3gkesRyHBmJgMEclzgZ-138" value="&lt;span style=&quot;font-size: 8px;&quot;&gt;Проведення консультації&lt;/span&gt;" style="text;html=1;whiteSpace=wrap;strokeColor=none;fillColor=none;align=center;verticalAlign=middle;rounded=0;" vertex="1" parent="1">
          <mxGeometry x="500" y="785" width="120" height="20" as="geometry" />
        </mxCell>
        <mxCell id="k3gkesRyHBmJgMEclzgZ-140" value="&lt;span style=&quot;font-size: 8px;&quot;&gt;Проведення консультації&lt;/span&gt;" style="text;html=1;whiteSpace=wrap;strokeColor=none;fillColor=none;align=center;verticalAlign=middle;rounded=0;" vertex="1" parent="1">
          <mxGeometry x="1265" y="720" width="80" height="20" as="geometry" />
        </mxCell>
        <mxCell id="k3gkesRyHBmJgMEclzgZ-148" value="" style="edgeStyle=orthogonalEdgeStyle;rounded=0;orthogonalLoop=1;jettySize=auto;html=1;" edge="1" parent="1" source="k3gkesRyHBmJgMEclzgZ-142" target="k3gkesRyHBmJgMEclzgZ-135">
          <mxGeometry relative="1" as="geometry" />
        </mxCell>
        <mxCell id="k3gkesRyHBmJgMEclzgZ-142" value="БД Інформації про лікарів" style="html=1;dashed=0;whiteSpace=wrap;shape=partialRectangle;right=0;left=0;" vertex="1" parent="1">
          <mxGeometry x="1000" y="700" width="120" height="45" as="geometry" />
        </mxCell>
        <mxCell id="k3gkesRyHBmJgMEclzgZ-145" value="" style="endArrow=classic;startArrow=classic;html=1;rounded=0;entryX=0.5;entryY=1;entryDx=0;entryDy=0;exitX=0.5;exitY=0;exitDx=0;exitDy=0;" edge="1" parent="1" source="k3gkesRyHBmJgMEclzgZ-101" target="k3gkesRyHBmJgMEclzgZ-135">
          <mxGeometry width="50" height="50" relative="1" as="geometry">
            <mxPoint x="1210" y="880" as="sourcePoint" />
            <mxPoint x="1260" y="830" as="targetPoint" />
          </mxGeometry>
        </mxCell>
        <mxCell id="k3gkesRyHBmJgMEclzgZ-146" value="" style="endArrow=classic;startArrow=classic;html=1;rounded=0;entryX=0.5;entryY=0;entryDx=0;entryDy=0;exitX=0.5;exitY=1;exitDx=0;exitDy=0;" edge="1" parent="1" source="k3gkesRyHBmJgMEclzgZ-101" target="k3gkesRyHBmJgMEclzgZ-108">
          <mxGeometry width="50" height="50" relative="1" as="geometry">
            <mxPoint x="1210" y="880" as="sourcePoint" />
            <mxPoint x="1260" y="830" as="targetPoint" />
          </mxGeometry>
        </mxCell>
        <mxCell id="k3gkesRyHBmJgMEclzgZ-149" value="" style="endArrow=classic;startArrow=classic;html=1;rounded=0;exitX=1;exitY=0.75;exitDx=0;exitDy=0;entryX=0.081;entryY=0.194;entryDx=0;entryDy=0;entryPerimeter=0;" edge="1" parent="1" source="k3gkesRyHBmJgMEclzgZ-104" target="k3gkesRyHBmJgMEclzgZ-101">
          <mxGeometry width="50" height="50" relative="1" as="geometry">
            <mxPoint x="1140" y="930" as="sourcePoint" />
            <mxPoint x="1200" y="830" as="targetPoint" />
          </mxGeometry>
        </mxCell>
        <mxCell id="k3gkesRyHBmJgMEclzgZ-150" value="Платіжна система" style="rounded=0;whiteSpace=wrap;html=1;" vertex="1" parent="1">
          <mxGeometry x="1370" y="807.5" width="120" height="60" as="geometry" />
        </mxCell>
        <mxCell id="k3gkesRyHBmJgMEclzgZ-151" style="edgeStyle=orthogonalEdgeStyle;rounded=0;orthogonalLoop=1;jettySize=auto;html=1;exitX=1;exitY=0.5;exitDx=0;exitDy=0;entryX=0.008;entryY=0.655;entryDx=0;entryDy=0;entryPerimeter=0;" edge="1" parent="1">
          <mxGeometry relative="1" as="geometry">
            <mxPoint x="1269" y="856.5" as="sourcePoint" />
            <mxPoint x="1369.96" y="855.8" as="targetPoint" />
          </mxGeometry>
        </mxCell>
        <mxCell id="k3gkesRyHBmJgMEclzgZ-153" value="&lt;span style=&quot;font-size: 8px;&quot;&gt;Сплата послуг&lt;/span&gt;" style="text;html=1;whiteSpace=wrap;strokeColor=none;fillColor=none;align=center;verticalAlign=middle;rounded=0;rotation=0;" vertex="1" parent="1">
          <mxGeometry x="1275" y="838" width="80" height="20" as="geometry" />
        </mxCell>
        <mxCell id="k3gkesRyHBmJgMEclzgZ-154" style="edgeStyle=orthogonalEdgeStyle;rounded=0;orthogonalLoop=1;jettySize=auto;html=1;exitX=0;exitY=0.25;exitDx=0;exitDy=0;entryX=0.869;entryY=0.195;entryDx=0;entryDy=0;entryPerimeter=0;" edge="1" parent="1">
          <mxGeometry relative="1" as="geometry">
            <mxPoint x="1371" y="825.5" as="sourcePoint" />
            <mxPoint x="1260.52" y="826.0999999999999" as="targetPoint" />
          </mxGeometry>
        </mxCell>
        <mxCell id="k3gkesRyHBmJgMEclzgZ-156" value="&lt;div&gt;&lt;span style=&quot;font-size: 8px;&quot;&gt;Інформація про оплату&lt;/span&gt;&lt;/div&gt;" style="text;html=1;whiteSpace=wrap;strokeColor=none;fillColor=none;align=right;verticalAlign=middle;rounded=0;" vertex="1" parent="1">
          <mxGeometry x="1272" y="802.5" width="90" height="20" as="geometry" />
        </mxCell>
        <mxCell id="k3gkesRyHBmJgMEclzgZ-179" style="edgeStyle=orthogonalEdgeStyle;rounded=0;orthogonalLoop=1;jettySize=auto;html=1;exitX=0.5;exitY=1;exitDx=0;exitDy=0;" edge="1" parent="1" source="k3gkesRyHBmJgMEclzgZ-157" target="k3gkesRyHBmJgMEclzgZ-161">
          <mxGeometry relative="1" as="geometry" />
        </mxCell>
        <mxCell id="k3gkesRyHBmJgMEclzgZ-157" value="Класифікація засобів за метою підбору" style="ellipse;whiteSpace=wrap;html=1;aspect=fixed;" vertex="1" parent="1">
          <mxGeometry x="1916.25" y="535" width="97.5" height="97.5" as="geometry" />
        </mxCell>
        <mxCell id="k3gkesRyHBmJgMEclzgZ-180" style="edgeStyle=orthogonalEdgeStyle;rounded=0;orthogonalLoop=1;jettySize=auto;html=1;exitX=0.5;exitY=1;exitDx=0;exitDy=0;entryX=0.5;entryY=0;entryDx=0;entryDy=0;" edge="1" parent="1" source="k3gkesRyHBmJgMEclzgZ-159" target="k3gkesRyHBmJgMEclzgZ-157">
          <mxGeometry relative="1" as="geometry" />
        </mxCell>
        <mxCell id="k3gkesRyHBmJgMEclzgZ-159" value="Користувач" style="rounded=0;whiteSpace=wrap;html=1;" vertex="1" parent="1">
          <mxGeometry x="1890" y="435" width="150" height="65" as="geometry" />
        </mxCell>
        <mxCell id="k3gkesRyHBmJgMEclzgZ-178" style="edgeStyle=orthogonalEdgeStyle;rounded=0;orthogonalLoop=1;jettySize=auto;html=1;exitX=0.5;exitY=1;exitDx=0;exitDy=0;" edge="1" parent="1" source="k3gkesRyHBmJgMEclzgZ-161" target="k3gkesRyHBmJgMEclzgZ-165">
          <mxGeometry relative="1" as="geometry" />
        </mxCell>
        <mxCell id="k3gkesRyHBmJgMEclzgZ-161" value="Перевірити на сумісність із фізіологічними особливостями" style="ellipse;whiteSpace=wrap;html=1;aspect=fixed;" vertex="1" parent="1">
          <mxGeometry x="1916.25" y="677" width="97.5" height="97.5" as="geometry" />
        </mxCell>
        <mxCell id="k3gkesRyHBmJgMEclzgZ-162" value="БД про фізіологічні особливості" style="html=1;dashed=0;whiteSpace=wrap;shape=partialRectangle;right=0;left=0;" vertex="1" parent="1">
          <mxGeometry x="1710" y="712" width="120" height="45" as="geometry" />
        </mxCell>
        <mxCell id="k3gkesRyHBmJgMEclzgZ-164" value="" style="endArrow=classic;startArrow=classic;html=1;rounded=0;exitX=1;exitY=0.5;exitDx=0;exitDy=0;entryX=0.012;entryY=0.588;entryDx=0;entryDy=0;entryPerimeter=0;" edge="1" parent="1" source="k3gkesRyHBmJgMEclzgZ-162" target="k3gkesRyHBmJgMEclzgZ-161">
          <mxGeometry width="50" height="50" relative="1" as="geometry">
            <mxPoint x="1820" y="675" as="sourcePoint" />
            <mxPoint x="1870" y="625" as="targetPoint" />
          </mxGeometry>
        </mxCell>
        <mxCell id="k3gkesRyHBmJgMEclzgZ-165" value="Оцінити якісь засобів" style="ellipse;whiteSpace=wrap;html=1;aspect=fixed;" vertex="1" parent="1">
          <mxGeometry x="1916.25" y="820" width="97.5" height="97.5" as="geometry" />
        </mxCell>
        <mxCell id="k3gkesRyHBmJgMEclzgZ-166" value="БД відгуків користувачів" style="html=1;dashed=0;whiteSpace=wrap;shape=partialRectangle;right=0;left=0;" vertex="1" parent="1">
          <mxGeometry x="1911.25" y="970" width="120" height="45" as="geometry" />
        </mxCell>
        <mxCell id="k3gkesRyHBmJgMEclzgZ-167" value="" style="endArrow=classic;startArrow=classic;html=1;rounded=0;" edge="1" parent="1">
          <mxGeometry width="50" height="50" relative="1" as="geometry">
            <mxPoint x="1967" y="970" as="sourcePoint" />
            <mxPoint x="1965" y="918" as="targetPoint" />
          </mxGeometry>
        </mxCell>
        <mxCell id="k3gkesRyHBmJgMEclzgZ-192" style="edgeStyle=orthogonalEdgeStyle;rounded=0;orthogonalLoop=1;jettySize=auto;html=1;exitX=1;exitY=0.5;exitDx=0;exitDy=0;entryX=1;entryY=0.5;entryDx=0;entryDy=0;" edge="1" parent="1" source="k3gkesRyHBmJgMEclzgZ-168" target="k3gkesRyHBmJgMEclzgZ-159">
          <mxGeometry relative="1" as="geometry">
            <Array as="points">
              <mxPoint x="2290" y="869" />
              <mxPoint x="2290" y="468" />
            </Array>
          </mxGeometry>
        </mxCell>
        <mxCell id="k3gkesRyHBmJgMEclzgZ-168" value="&lt;p style=&quot;margin: 0px; font-variant-numeric: normal; font-variant-east-asian: normal; font-variant-alternates: normal; font-size-adjust: none; font-kerning: auto; font-optical-sizing: auto; font-feature-settings: normal; font-variation-settings: normal; font-variant-position: normal; font-variant-emoji: normal; font-stretch: normal; line-height: normal;&quot; class=&quot;p1&quot;&gt;Надати персональний&lt;/p&gt;&lt;p style=&quot;margin: 0px; font-variant-numeric: normal; font-variant-east-asian: normal; font-variant-alternates: normal; font-size-adjust: none; font-kerning: auto; font-optical-sizing: auto; font-feature-settings: normal; font-variation-settings: normal; font-variant-position: normal; font-variant-emoji: normal; font-stretch: normal; line-height: normal;&quot; class=&quot;p1&quot;&gt;перелік рекомендацій&lt;/p&gt;" style="ellipse;whiteSpace=wrap;html=1;aspect=fixed;align=center;" vertex="1" parent="1">
          <mxGeometry x="2100" y="820" width="97.5" height="97.5" as="geometry" />
        </mxCell>
        <mxCell id="k3gkesRyHBmJgMEclzgZ-169" value="" style="endArrow=classic;startArrow=classic;html=1;rounded=0;exitX=1;exitY=0.5;exitDx=0;exitDy=0;entryX=0;entryY=0.5;entryDx=0;entryDy=0;" edge="1" parent="1" source="k3gkesRyHBmJgMEclzgZ-165" target="k3gkesRyHBmJgMEclzgZ-168">
          <mxGeometry width="50" height="50" relative="1" as="geometry">
            <mxPoint x="2070" y="565" as="sourcePoint" />
            <mxPoint x="2120" y="515" as="targetPoint" />
          </mxGeometry>
        </mxCell>
        <mxCell id="k3gkesRyHBmJgMEclzgZ-170" value="Виробники/маркетплейси/ аптеки" style="rounded=0;whiteSpace=wrap;html=1;" vertex="1" parent="1">
          <mxGeometry x="2120" y="695.75" width="120" height="60" as="geometry" />
        </mxCell>
        <mxCell id="k3gkesRyHBmJgMEclzgZ-171" value="&lt;span style=&quot;font-size: 8px;&quot;&gt;Інформація про склад&lt;/span&gt;" style="text;html=1;whiteSpace=wrap;strokeColor=none;fillColor=none;align=center;verticalAlign=middle;rounded=0;rotation=0;" vertex="1" parent="1">
          <mxGeometry x="2030" y="687" width="80" height="20" as="geometry" />
        </mxCell>
        <mxCell id="k3gkesRyHBmJgMEclzgZ-174" value="" style="endArrow=classic;startArrow=classic;html=1;rounded=0;entryX=0;entryY=0.25;entryDx=0;entryDy=0;" edge="1" parent="1" target="k3gkesRyHBmJgMEclzgZ-170">
          <mxGeometry width="50" height="50" relative="1" as="geometry">
            <mxPoint x="2011" y="711" as="sourcePoint" />
            <mxPoint x="2061" y="661" as="targetPoint" />
          </mxGeometry>
        </mxCell>
        <mxCell id="k3gkesRyHBmJgMEclzgZ-175" value="&lt;span style=&quot;font-size: 8px;&quot;&gt;Інформація про&amp;nbsp;&lt;/span&gt;&lt;div&gt;&lt;span style=&quot;font-size: 8px;&quot;&gt;тестування&lt;/span&gt;&lt;/div&gt;" style="text;html=1;whiteSpace=wrap;strokeColor=none;fillColor=none;align=center;verticalAlign=middle;rounded=0;" vertex="1" parent="1">
          <mxGeometry x="2010" y="720" width="119" height="20" as="geometry" />
        </mxCell>
        <mxCell id="k3gkesRyHBmJgMEclzgZ-177" value="" style="endArrow=classic;startArrow=classic;html=1;rounded=0;exitX=0.951;exitY=0.699;exitDx=0;exitDy=0;exitPerimeter=0;" edge="1" parent="1" source="k3gkesRyHBmJgMEclzgZ-161">
          <mxGeometry width="50" height="50" relative="1" as="geometry">
            <mxPoint x="2009" y="747.5" as="sourcePoint" />
            <mxPoint x="2120" y="745" as="targetPoint" />
          </mxGeometry>
        </mxCell>
        <mxCell id="k3gkesRyHBmJgMEclzgZ-185" value="&lt;span style=&quot;font-size: 8px;&quot;&gt;Запит на консультацію&lt;/span&gt;" style="text;html=1;whiteSpace=wrap;strokeColor=none;fillColor=none;align=center;verticalAlign=middle;rounded=0;" vertex="1" parent="1">
          <mxGeometry x="511" y="819.5" width="120" height="20" as="geometry" />
        </mxCell>
        <mxCell id="k3gkesRyHBmJgMEclzgZ-186" value="" style="endArrow=classic;html=1;rounded=0;entryX=0.006;entryY=0.373;entryDx=0;entryDy=0;entryPerimeter=0;exitX=0.976;exitY=0.412;exitDx=0;exitDy=0;exitPerimeter=0;" edge="1" parent="1" source="k3gkesRyHBmJgMEclzgZ-135" target="k3gkesRyHBmJgMEclzgZ-136">
          <mxGeometry width="50" height="50" relative="1" as="geometry">
            <mxPoint x="1230" y="780" as="sourcePoint" />
            <mxPoint x="1280" y="730" as="targetPoint" />
          </mxGeometry>
        </mxCell>
        <mxCell id="k3gkesRyHBmJgMEclzgZ-187" value="" style="endArrow=classic;html=1;rounded=0;entryX=0.903;entryY=0.802;entryDx=0;entryDy=0;entryPerimeter=0;exitX=0.006;exitY=0.893;exitDx=0;exitDy=0;exitPerimeter=0;" edge="1" parent="1" source="k3gkesRyHBmJgMEclzgZ-136" target="k3gkesRyHBmJgMEclzgZ-135">
          <mxGeometry width="50" height="50" relative="1" as="geometry">
            <mxPoint x="1230" y="780" as="sourcePoint" />
            <mxPoint x="1280" y="730" as="targetPoint" />
          </mxGeometry>
        </mxCell>
        <mxCell id="k3gkesRyHBmJgMEclzgZ-188" value="&lt;span style=&quot;font-size: 8px;&quot;&gt;Запит на проведення консультації&lt;/span&gt;" style="text;html=1;whiteSpace=wrap;strokeColor=none;fillColor=none;align=center;verticalAlign=middle;rounded=0;" vertex="1" parent="1">
          <mxGeometry x="1258" y="689" width="90" height="20" as="geometry" />
        </mxCell>
        <mxCell id="k3gkesRyHBmJgMEclzgZ-193" value="&lt;span style=&quot;font-size: 8px;&quot;&gt;Підібрані засоби&lt;/span&gt;" style="text;html=1;whiteSpace=wrap;strokeColor=none;fillColor=none;align=center;verticalAlign=middle;rounded=0;rotation=0;" vertex="1" parent="1">
          <mxGeometry x="2129" y="447" width="80" height="20" as="geometry" />
        </mxCell>
        <mxCell id="k3gkesRyHBmJgMEclzgZ-194" value="&lt;span style=&quot;font-size: 8px;&quot;&gt;дані про користувача&lt;/span&gt;" style="text;html=1;whiteSpace=wrap;strokeColor=none;fillColor=none;align=center;verticalAlign=middle;rounded=0;rotation=0;" vertex="1" parent="1">
          <mxGeometry x="1835.25" y="707" width="80" height="20" as="geometry" />
        </mxCell>
        <mxCell id="k3gkesRyHBmJgMEclzgZ-195" value="&lt;span style=&quot;font-size: 8px;&quot;&gt;мета підбору&lt;/span&gt;" style="text;html=1;whiteSpace=wrap;strokeColor=none;fillColor=none;align=center;verticalAlign=middle;rounded=0;rotation=0;" vertex="1" parent="1">
          <mxGeometry x="1960" y="504" width="80" height="20" as="geometry" />
        </mxCell>
        <mxCell id="k3gkesRyHBmJgMEclzgZ-197" value="&lt;span style=&quot;font-size: 8px;&quot;&gt;Фільтрація засобів&lt;/span&gt;" style="text;html=1;whiteSpace=wrap;strokeColor=none;fillColor=none;align=center;verticalAlign=middle;rounded=0;rotation=0;" vertex="1" parent="1">
          <mxGeometry x="1965" y="640" width="80" height="20" as="geometry" />
        </mxCell>
        <mxCell id="k3gkesRyHBmJgMEclzgZ-198" value="&lt;span style=&quot;font-size: 8px;&quot;&gt;варіанти засобів&lt;/span&gt;" style="text;html=1;whiteSpace=wrap;strokeColor=none;fillColor=none;align=center;verticalAlign=middle;rounded=0;rotation=0;" vertex="1" parent="1">
          <mxGeometry x="1965" y="785" width="80" height="20" as="geometry" />
        </mxCell>
        <mxCell id="k3gkesRyHBmJgMEclzgZ-199" value="&lt;span style=&quot;font-size: 8px;&quot;&gt;відфільтровані засоби&lt;/span&gt;" style="text;html=1;whiteSpace=wrap;strokeColor=none;fillColor=none;align=center;verticalAlign=middle;rounded=0;rotation=0;" vertex="1" parent="1">
          <mxGeometry x="2013.75" y="845" width="80" height="20" as="geometry" />
        </mxCell>
        <mxCell id="k3gkesRyHBmJgMEclzgZ-200" value="&lt;span style=&quot;font-size: 8px;&quot;&gt;Користувацький досвід&lt;/span&gt;" style="text;html=1;whiteSpace=wrap;strokeColor=none;fillColor=none;align=center;verticalAlign=middle;rounded=0;rotation=0;" vertex="1" parent="1">
          <mxGeometry x="1885" y="931.5" width="80" height="20" as="geometry" />
        </mxCell>
        <mxCell id="k3gkesRyHBmJgMEclzgZ-202" value="Лікар (дерматолог, трихолог)" style="rounded=0;whiteSpace=wrap;html=1;" vertex="1" parent="1">
          <mxGeometry x="2850" y="20" width="120" height="60" as="geometry" />
        </mxCell>
        <mxCell id="k3gkesRyHBmJgMEclzgZ-204" value="ID" style="ellipse;whiteSpace=wrap;html=1;" vertex="1" parent="1">
          <mxGeometry x="2490" y="90" width="90" height="60" as="geometry" />
        </mxCell>
        <mxCell id="k3gkesRyHBmJgMEclzgZ-205" value="Текст" style="ellipse;whiteSpace=wrap;html=1;" vertex="1" parent="1">
          <mxGeometry x="2550" y="170" width="90" height="60" as="geometry" />
        </mxCell>
        <mxCell id="k3gkesRyHBmJgMEclzgZ-206" value="Освіта" style="ellipse;whiteSpace=wrap;html=1;" vertex="1" parent="1">
          <mxGeometry x="2660" y="170" width="90" height="60" as="geometry" />
        </mxCell>
        <mxCell id="k3gkesRyHBmJgMEclzgZ-207" value="Сертифікати" style="ellipse;whiteSpace=wrap;html=1;" vertex="1" parent="1">
          <mxGeometry x="2770" y="170" width="90" height="60" as="geometry" />
        </mxCell>
        <mxCell id="k3gkesRyHBmJgMEclzgZ-208" value="Дні прийому" style="ellipse;whiteSpace=wrap;html=1;" vertex="1" parent="1">
          <mxGeometry x="2900" y="170" width="90" height="60" as="geometry" />
        </mxCell>
        <mxCell id="k3gkesRyHBmJgMEclzgZ-210" value="Емеїл" style="ellipse;whiteSpace=wrap;html=1;" vertex="1" parent="1">
          <mxGeometry x="3030" y="170" width="90" height="60" as="geometry" />
        </mxCell>
        <mxCell id="k3gkesRyHBmJgMEclzgZ-215" value="&lt;table&gt;&lt;tbody&gt;&lt;tr&gt;&lt;td data-col-size=&quot;sm&quot; data-end=&quot;1400&quot; data-start=&quot;1388&quot;&gt;Тип і стан шкіри&lt;/td&gt;&lt;/tr&gt;&lt;/tbody&gt;&lt;/table&gt;&lt;table&gt;&lt;tbody&gt;&lt;tr&gt;&lt;td data-col-size=&quot;sm&quot; data-end=&quot;1415&quot; data-start=&quot;1400&quot;&gt;&lt;/td&gt;&lt;/tr&gt;&lt;/tbody&gt;&lt;/table&gt;" style="ellipse;whiteSpace=wrap;html=1;" vertex="1" parent="1">
          <mxGeometry x="3348" y="475" width="90" height="60" as="geometry" />
        </mxCell>
        <mxCell id="k3gkesRyHBmJgMEclzgZ-220" value="&lt;table&gt;&lt;tbody&gt;&lt;tr&gt;&lt;td data-col-size=&quot;sm&quot; data-end=&quot;1400&quot; data-start=&quot;1388&quot;&gt;Тип і стан волосся&lt;/td&gt;&lt;/tr&gt;&lt;/tbody&gt;&lt;/table&gt;&lt;table&gt;&lt;tbody&gt;&lt;tr&gt;&lt;td data-col-size=&quot;sm&quot; data-end=&quot;1415&quot; data-start=&quot;1400&quot;&gt;&lt;/td&gt;&lt;/tr&gt;&lt;/tbody&gt;&lt;/table&gt;" style="ellipse;whiteSpace=wrap;html=1;" vertex="1" parent="1">
          <mxGeometry x="3458" y="475" width="90" height="60" as="geometry" />
        </mxCell>
        <mxCell id="k3gkesRyHBmJgMEclzgZ-221" value="&lt;table&gt;&lt;tbody&gt;&lt;tr&gt;&lt;td data-col-size=&quot;sm&quot; data-end=&quot;980&quot; data-start=&quot;967&quot;&gt;&lt;strong data-end=&quot;979&quot; data-start=&quot;969&quot;&gt;&lt;/strong&gt;&lt;/td&gt;&lt;/tr&gt;&lt;/tbody&gt;&lt;/table&gt;&lt;table&gt;&lt;tbody&gt;&lt;tr&gt;&lt;td data-col-size=&quot;sm&quot; data-end=&quot;1000&quot; data-start=&quot;980&quot;&gt;Алергії&lt;/td&gt;&lt;/tr&gt;&lt;/tbody&gt;&lt;/table&gt;" style="ellipse;whiteSpace=wrap;html=1;" vertex="1" parent="1">
          <mxGeometry x="3568" y="475" width="90" height="60" as="geometry" />
        </mxCell>
        <mxCell id="k3gkesRyHBmJgMEclzgZ-222" value="Медичні обстеження" style="ellipse;whiteSpace=wrap;html=1;" vertex="1" parent="1">
          <mxGeometry x="3678" y="475" width="90" height="60" as="geometry" />
        </mxCell>
        <mxCell id="k3gkesRyHBmJgMEclzgZ-224" value="&lt;table&gt;&lt;tbody&gt;&lt;tr&gt;&lt;td data-col-size=&quot;sm&quot; data-end=&quot;980&quot; data-start=&quot;967&quot;&gt;&lt;strong data-end=&quot;979&quot; data-start=&quot;969&quot;&gt;&lt;/strong&gt;&lt;/td&gt;&lt;/tr&gt;&lt;/tbody&gt;&lt;/table&gt;&lt;table&gt;&lt;tbody&gt;&lt;tr&gt;&lt;td data-col-size=&quot;sm&quot; data-end=&quot;1000&quot; data-start=&quot;980&quot;&gt;Вподобання&lt;/td&gt;&lt;/tr&gt;&lt;/tbody&gt;&lt;/table&gt;" style="ellipse;whiteSpace=wrap;html=1;" vertex="1" parent="1">
          <mxGeometry x="3816.5" y="484" width="90" height="60" as="geometry" />
        </mxCell>
        <mxCell id="k3gkesRyHBmJgMEclzgZ-235" value="Медичні сервіси, лабораторії" style="rounded=0;whiteSpace=wrap;html=1;" vertex="1" parent="1">
          <mxGeometry x="4458" y="867.5" width="120" height="60" as="geometry" />
        </mxCell>
        <mxCell id="k3gkesRyHBmJgMEclzgZ-237" value="Адміністратор" style="rounded=0;whiteSpace=wrap;html=1;" vertex="1" parent="1">
          <mxGeometry x="4444.5" y="610" width="120" height="60" as="geometry" />
        </mxCell>
        <mxCell id="k3gkesRyHBmJgMEclzgZ-239" value="Повідомлення" style="rounded=0;whiteSpace=wrap;html=1;" vertex="1" parent="1">
          <mxGeometry x="4430" y="330" width="120" height="60" as="geometry" />
        </mxCell>
        <mxCell id="k3gkesRyHBmJgMEclzgZ-245" value="Дата" style="ellipse;whiteSpace=wrap;html=1;" vertex="1" parent="1">
          <mxGeometry x="4320" y="475" width="90" height="60" as="geometry" />
        </mxCell>
        <mxCell id="k3gkesRyHBmJgMEclzgZ-246" value="ID" style="ellipse;whiteSpace=wrap;html=1;" vertex="1" parent="1">
          <mxGeometry x="4210" y="400" width="90" height="60" as="geometry" />
        </mxCell>
        <mxCell id="k3gkesRyHBmJgMEclzgZ-247" value="Текст" style="ellipse;whiteSpace=wrap;html=1;" vertex="1" parent="1">
          <mxGeometry x="4445" y="475" width="90" height="60" as="geometry" />
        </mxCell>
        <mxCell id="k3gkesRyHBmJgMEclzgZ-248" value="Користувачі" style="ellipse;whiteSpace=wrap;html=1;" vertex="1" parent="1">
          <mxGeometry x="4570" y="475" width="90" height="60" as="geometry" />
        </mxCell>
        <mxCell id="k3gkesRyHBmJgMEclzgZ-249" value="Ціни" style="ellipse;whiteSpace=wrap;html=1;" vertex="1" parent="1">
          <mxGeometry x="3160" y="160" width="90" height="60" as="geometry" />
        </mxCell>
        <mxCell id="k3gkesRyHBmJgMEclzgZ-250" value="Спеціалізація" style="ellipse;whiteSpace=wrap;html=1;" vertex="1" parent="1">
          <mxGeometry x="3210" y="90" width="90" height="60" as="geometry" />
        </mxCell>
        <mxCell id="k3gkesRyHBmJgMEclzgZ-251" value="ID" style="ellipse;whiteSpace=wrap;html=1;" vertex="1" parent="1">
          <mxGeometry x="4284.5" y="692" width="90" height="60" as="geometry" />
        </mxCell>
        <mxCell id="k3gkesRyHBmJgMEclzgZ-252" value="Текст" style="ellipse;whiteSpace=wrap;html=1;" vertex="1" parent="1">
          <mxGeometry x="4385.5" y="720" width="90" height="60" as="geometry" />
        </mxCell>
        <mxCell id="k3gkesRyHBmJgMEclzgZ-253" value="Пароль" style="ellipse;whiteSpace=wrap;html=1;" vertex="1" parent="1">
          <mxGeometry x="4495.5" y="720" width="90" height="60" as="geometry" />
        </mxCell>
        <mxCell id="k3gkesRyHBmJgMEclzgZ-254" value="Емеїл" style="ellipse;whiteSpace=wrap;html=1;" vertex="1" parent="1">
          <mxGeometry x="4605.5" y="720" width="90" height="60" as="geometry" />
        </mxCell>
        <mxCell id="k3gkesRyHBmJgMEclzgZ-266" value="ID" style="ellipse;whiteSpace=wrap;html=1;" vertex="1" parent="1">
          <mxGeometry x="4200" y="887.5" width="90" height="60" as="geometry" />
        </mxCell>
        <mxCell id="k3gkesRyHBmJgMEclzgZ-267" value="Тестування" style="ellipse;whiteSpace=wrap;html=1;" vertex="1" parent="1">
          <mxGeometry x="4438" y="969.5" width="90" height="60" as="geometry" />
        </mxCell>
        <mxCell id="k3gkesRyHBmJgMEclzgZ-268" value="Статус" style="ellipse;whiteSpace=wrap;html=1;" vertex="1" parent="1">
          <mxGeometry x="4558" y="969.5" width="90" height="60" as="geometry" />
        </mxCell>
        <mxCell id="k3gkesRyHBmJgMEclzgZ-269" value="ID-обстеження" style="ellipse;whiteSpace=wrap;html=1;" vertex="1" parent="1">
          <mxGeometry x="4308" y="965" width="90" height="60" as="geometry" />
        </mxCell>
        <mxCell id="k3gkesRyHBmJgMEclzgZ-270" value="Результати" style="ellipse;whiteSpace=wrap;html=1;" vertex="1" parent="1">
          <mxGeometry x="4668" y="969.5" width="90" height="60" as="geometry" />
        </mxCell>
        <mxCell id="k3gkesRyHBmJgMEclzgZ-271" value="ID" style="ellipse;whiteSpace=wrap;html=1;" vertex="1" parent="1">
          <mxGeometry x="3329" y="700" width="90" height="60" as="geometry" />
        </mxCell>
        <mxCell id="k3gkesRyHBmJgMEclzgZ-460" style="edgeStyle=orthogonalEdgeStyle;rounded=0;orthogonalLoop=1;jettySize=auto;html=1;exitX=0;exitY=0.5;exitDx=0;exitDy=0;entryX=1;entryY=0.5;entryDx=0;entryDy=0;" edge="1" parent="1" source="k3gkesRyHBmJgMEclzgZ-292" target="k3gkesRyHBmJgMEclzgZ-299">
          <mxGeometry relative="1" as="geometry" />
        </mxCell>
        <mxCell id="k3gkesRyHBmJgMEclzgZ-462" style="edgeStyle=orthogonalEdgeStyle;rounded=0;orthogonalLoop=1;jettySize=auto;html=1;exitX=0.5;exitY=1;exitDx=0;exitDy=0;entryX=0.5;entryY=0;entryDx=0;entryDy=0;" edge="1" parent="1" source="k3gkesRyHBmJgMEclzgZ-292" target="k3gkesRyHBmJgMEclzgZ-293">
          <mxGeometry relative="1" as="geometry" />
        </mxCell>
        <mxCell id="k3gkesRyHBmJgMEclzgZ-467" style="edgeStyle=orthogonalEdgeStyle;rounded=0;orthogonalLoop=1;jettySize=auto;html=1;exitX=1;exitY=0.5;exitDx=0;exitDy=0;entryX=0;entryY=0.5;entryDx=0;entryDy=0;" edge="1" parent="1" source="k3gkesRyHBmJgMEclzgZ-292" target="k3gkesRyHBmJgMEclzgZ-300">
          <mxGeometry relative="1" as="geometry" />
        </mxCell>
        <mxCell id="k3gkesRyHBmJgMEclzgZ-292" value="Користувач" style="rounded=0;whiteSpace=wrap;html=1;" vertex="1" parent="1">
          <mxGeometry x="2775" y="1290" width="120" height="60" as="geometry" />
        </mxCell>
        <mxCell id="k3gkesRyHBmJgMEclzgZ-463" style="edgeStyle=orthogonalEdgeStyle;rounded=0;orthogonalLoop=1;jettySize=auto;html=1;exitX=0.5;exitY=1;exitDx=0;exitDy=0;entryX=0.5;entryY=0;entryDx=0;entryDy=0;" edge="1" parent="1" source="k3gkesRyHBmJgMEclzgZ-293" target="k3gkesRyHBmJgMEclzgZ-298">
          <mxGeometry relative="1" as="geometry" />
        </mxCell>
        <mxCell id="k3gkesRyHBmJgMEclzgZ-293" value="Вносить" style="rhombus;whiteSpace=wrap;html=1;" vertex="1" parent="1">
          <mxGeometry x="2795" y="1420" width="80" height="80" as="geometry" />
        </mxCell>
        <mxCell id="k3gkesRyHBmJgMEclzgZ-472" style="edgeStyle=orthogonalEdgeStyle;rounded=0;orthogonalLoop=1;jettySize=auto;html=1;exitX=0.5;exitY=1;exitDx=0;exitDy=0;entryX=0.5;entryY=0;entryDx=0;entryDy=0;" edge="1" parent="1" source="k3gkesRyHBmJgMEclzgZ-294" target="k3gkesRyHBmJgMEclzgZ-302">
          <mxGeometry relative="1" as="geometry" />
        </mxCell>
        <mxCell id="k3gkesRyHBmJgMEclzgZ-294" value="АІ модель" style="rounded=0;whiteSpace=wrap;html=1;" vertex="1" parent="1">
          <mxGeometry x="3558" y="1290" width="120" height="60" as="geometry" />
        </mxCell>
        <mxCell id="k3gkesRyHBmJgMEclzgZ-295" value="Платіжна система" style="rounded=0;whiteSpace=wrap;html=1;" vertex="1" parent="1">
          <mxGeometry x="2525" y="1440" width="120" height="60" as="geometry" />
        </mxCell>
        <mxCell id="k3gkesRyHBmJgMEclzgZ-297" value="Особиста інформація" style="rounded=0;whiteSpace=wrap;html=1;" vertex="1" parent="1">
          <mxGeometry x="3602" y="331" width="120" height="60" as="geometry" />
        </mxCell>
        <mxCell id="k3gkesRyHBmJgMEclzgZ-298" value="Особиста інформація&amp;nbsp;" style="rounded=0;whiteSpace=wrap;html=1;" vertex="1" parent="1">
          <mxGeometry x="2775" y="1550" width="120" height="60" as="geometry" />
        </mxCell>
        <mxCell id="k3gkesRyHBmJgMEclzgZ-461" style="edgeStyle=orthogonalEdgeStyle;rounded=0;orthogonalLoop=1;jettySize=auto;html=1;exitX=0.5;exitY=1;exitDx=0;exitDy=0;entryX=0.5;entryY=0;entryDx=0;entryDy=0;" edge="1" parent="1" source="k3gkesRyHBmJgMEclzgZ-299" target="k3gkesRyHBmJgMEclzgZ-295">
          <mxGeometry relative="1" as="geometry" />
        </mxCell>
        <mxCell id="k3gkesRyHBmJgMEclzgZ-299" value="Оплачує послуги" style="rhombus;whiteSpace=wrap;html=1;" vertex="1" parent="1">
          <mxGeometry x="2545" y="1280" width="80" height="80" as="geometry" />
        </mxCell>
        <mxCell id="k3gkesRyHBmJgMEclzgZ-468" style="edgeStyle=orthogonalEdgeStyle;rounded=0;orthogonalLoop=1;jettySize=auto;html=1;exitX=1;exitY=0.5;exitDx=0;exitDy=0;entryX=0;entryY=0.5;entryDx=0;entryDy=0;" edge="1" parent="1" source="k3gkesRyHBmJgMEclzgZ-300" target="k3gkesRyHBmJgMEclzgZ-307">
          <mxGeometry relative="1" as="geometry" />
        </mxCell>
        <mxCell id="k3gkesRyHBmJgMEclzgZ-300" value="Надсилає" style="rhombus;whiteSpace=wrap;html=1;" vertex="1" parent="1">
          <mxGeometry x="3010" y="1280" width="80" height="80" as="geometry" />
        </mxCell>
        <mxCell id="k3gkesRyHBmJgMEclzgZ-301" value="План догляду" style="rounded=0;whiteSpace=wrap;html=1;" vertex="1" parent="1">
          <mxGeometry x="3558" y="1550" width="120" height="60" as="geometry" />
        </mxCell>
        <mxCell id="k3gkesRyHBmJgMEclzgZ-473" style="edgeStyle=orthogonalEdgeStyle;rounded=0;orthogonalLoop=1;jettySize=auto;html=1;exitX=0.5;exitY=1;exitDx=0;exitDy=0;" edge="1" parent="1" source="k3gkesRyHBmJgMEclzgZ-302" target="k3gkesRyHBmJgMEclzgZ-301">
          <mxGeometry relative="1" as="geometry" />
        </mxCell>
        <mxCell id="k3gkesRyHBmJgMEclzgZ-302" value="Формує" style="rhombus;whiteSpace=wrap;html=1;" vertex="1" parent="1">
          <mxGeometry x="3578" y="1400" width="80" height="80" as="geometry" />
        </mxCell>
        <mxCell id="k3gkesRyHBmJgMEclzgZ-488" style="edgeStyle=orthogonalEdgeStyle;rounded=0;orthogonalLoop=1;jettySize=auto;html=1;exitX=0.5;exitY=0;exitDx=0;exitDy=0;entryX=0.5;entryY=1;entryDx=0;entryDy=0;" edge="1" parent="1" source="k3gkesRyHBmJgMEclzgZ-303" target="k3gkesRyHBmJgMEclzgZ-304">
          <mxGeometry relative="1" as="geometry">
            <mxPoint x="3260" y="1720.0000000000005" as="targetPoint" />
          </mxGeometry>
        </mxCell>
        <mxCell id="k3gkesRyHBmJgMEclzgZ-303" value="Медичні сервіси, лабораторії" style="rounded=0;whiteSpace=wrap;html=1;" vertex="1" parent="1">
          <mxGeometry x="2545" y="1723.5" width="120" height="60" as="geometry" />
        </mxCell>
        <mxCell id="k3gkesRyHBmJgMEclzgZ-305" style="edgeStyle=orthogonalEdgeStyle;rounded=0;orthogonalLoop=1;jettySize=auto;html=1;" edge="1" parent="1" source="k3gkesRyHBmJgMEclzgZ-304" target="k3gkesRyHBmJgMEclzgZ-298">
          <mxGeometry relative="1" as="geometry">
            <Array as="points">
              <mxPoint x="2660" y="1590" />
              <mxPoint x="2660" y="1590" />
            </Array>
          </mxGeometry>
        </mxCell>
        <mxCell id="k3gkesRyHBmJgMEclzgZ-304" value="Надає інформацію" style="rhombus;whiteSpace=wrap;html=1;" vertex="1" parent="1">
          <mxGeometry x="2565" y="1570" width="80" height="80" as="geometry" />
        </mxCell>
        <mxCell id="k3gkesRyHBmJgMEclzgZ-483" style="edgeStyle=orthogonalEdgeStyle;rounded=0;orthogonalLoop=1;jettySize=auto;html=1;exitX=0.5;exitY=1;exitDx=0;exitDy=0;entryX=0.5;entryY=0;entryDx=0;entryDy=0;" edge="1" parent="1" source="k3gkesRyHBmJgMEclzgZ-306" target="k3gkesRyHBmJgMEclzgZ-309">
          <mxGeometry relative="1" as="geometry" />
        </mxCell>
        <mxCell id="k3gkesRyHBmJgMEclzgZ-306" value="Надсилає" style="rhombus;whiteSpace=wrap;html=1;" vertex="1" parent="1">
          <mxGeometry x="2935" y="1650" width="80" height="80" as="geometry" />
        </mxCell>
        <mxCell id="k3gkesRyHBmJgMEclzgZ-470" style="edgeStyle=orthogonalEdgeStyle;rounded=0;orthogonalLoop=1;jettySize=auto;html=1;entryX=0;entryY=0.5;entryDx=0;entryDy=0;" edge="1" parent="1" source="k3gkesRyHBmJgMEclzgZ-307" target="k3gkesRyHBmJgMEclzgZ-308">
          <mxGeometry relative="1" as="geometry" />
        </mxCell>
        <mxCell id="k3gkesRyHBmJgMEclzgZ-307" value="Повідомлення" style="rounded=0;whiteSpace=wrap;html=1;" vertex="1" parent="1">
          <mxGeometry x="3200" y="1290" width="120" height="60" as="geometry" />
        </mxCell>
        <mxCell id="k3gkesRyHBmJgMEclzgZ-471" style="edgeStyle=orthogonalEdgeStyle;rounded=0;orthogonalLoop=1;jettySize=auto;html=1;exitX=1;exitY=0.5;exitDx=0;exitDy=0;entryX=0;entryY=0.5;entryDx=0;entryDy=0;" edge="1" parent="1" source="k3gkesRyHBmJgMEclzgZ-308" target="k3gkesRyHBmJgMEclzgZ-294">
          <mxGeometry relative="1" as="geometry" />
        </mxCell>
        <mxCell id="k3gkesRyHBmJgMEclzgZ-308" value="Запитує" style="rhombus;whiteSpace=wrap;html=1;" vertex="1" parent="1">
          <mxGeometry x="3400" y="1280" width="80" height="80" as="geometry" />
        </mxCell>
        <mxCell id="k3gkesRyHBmJgMEclzgZ-309" value="Повідомлення" style="rounded=0;whiteSpace=wrap;html=1;" vertex="1" parent="1">
          <mxGeometry x="2915" y="1783.5" width="120" height="60" as="geometry" />
        </mxCell>
        <mxCell id="k3gkesRyHBmJgMEclzgZ-480" style="edgeStyle=orthogonalEdgeStyle;rounded=0;orthogonalLoop=1;jettySize=auto;html=1;exitX=1;exitY=0.5;exitDx=0;exitDy=0;entryX=0;entryY=0.5;entryDx=0;entryDy=0;" edge="1" parent="1" source="k3gkesRyHBmJgMEclzgZ-310" target="k3gkesRyHBmJgMEclzgZ-312">
          <mxGeometry relative="1" as="geometry" />
        </mxCell>
        <mxCell id="k3gkesRyHBmJgMEclzgZ-484" style="edgeStyle=orthogonalEdgeStyle;rounded=0;orthogonalLoop=1;jettySize=auto;html=1;exitX=0;exitY=0.5;exitDx=0;exitDy=0;entryX=1;entryY=0.5;entryDx=0;entryDy=0;" edge="1" parent="1" source="k3gkesRyHBmJgMEclzgZ-310" target="k3gkesRyHBmJgMEclzgZ-311">
          <mxGeometry relative="1" as="geometry" />
        </mxCell>
        <mxCell id="k3gkesRyHBmJgMEclzgZ-310" value="Лікар (дерматолог, трихолог)" style="rounded=0;whiteSpace=wrap;html=1;" vertex="1" parent="1">
          <mxGeometry x="3228" y="1840" width="120" height="60" as="geometry" />
        </mxCell>
        <mxCell id="k3gkesRyHBmJgMEclzgZ-492" style="edgeStyle=orthogonalEdgeStyle;rounded=0;orthogonalLoop=1;jettySize=auto;html=1;exitX=0;exitY=0.5;exitDx=0;exitDy=0;entryX=0.5;entryY=1;entryDx=0;entryDy=0;" edge="1" parent="1" source="k3gkesRyHBmJgMEclzgZ-311" target="k3gkesRyHBmJgMEclzgZ-309">
          <mxGeometry relative="1" as="geometry" />
        </mxCell>
        <mxCell id="k3gkesRyHBmJgMEclzgZ-311" value="Відповідає" style="rhombus;whiteSpace=wrap;html=1;" vertex="1" parent="1">
          <mxGeometry x="3080" y="1830" width="80" height="80" as="geometry" />
        </mxCell>
        <mxCell id="k3gkesRyHBmJgMEclzgZ-478" style="edgeStyle=orthogonalEdgeStyle;rounded=0;orthogonalLoop=1;jettySize=auto;html=1;exitX=1;exitY=0.5;exitDx=0;exitDy=0;entryX=0;entryY=0.5;entryDx=0;entryDy=0;" edge="1" parent="1" source="k3gkesRyHBmJgMEclzgZ-312" target="k3gkesRyHBmJgMEclzgZ-313">
          <mxGeometry relative="1" as="geometry" />
        </mxCell>
        <mxCell id="k3gkesRyHBmJgMEclzgZ-312" value="Проводить" style="rhombus;whiteSpace=wrap;html=1;" vertex="1" parent="1">
          <mxGeometry x="3420" y="1830" width="80" height="80" as="geometry" />
        </mxCell>
        <mxCell id="k3gkesRyHBmJgMEclzgZ-477" style="edgeStyle=orthogonalEdgeStyle;rounded=0;orthogonalLoop=1;jettySize=auto;html=1;exitX=0.5;exitY=0;exitDx=0;exitDy=0;entryX=0.5;entryY=1;entryDx=0;entryDy=0;" edge="1" parent="1" source="k3gkesRyHBmJgMEclzgZ-313" target="k3gkesRyHBmJgMEclzgZ-314">
          <mxGeometry relative="1" as="geometry" />
        </mxCell>
        <mxCell id="k3gkesRyHBmJgMEclzgZ-313" value="Консультації" style="rounded=0;whiteSpace=wrap;html=1;" vertex="1" parent="1">
          <mxGeometry x="3558" y="1840" width="120" height="60" as="geometry" />
        </mxCell>
        <mxCell id="k3gkesRyHBmJgMEclzgZ-476" style="edgeStyle=orthogonalEdgeStyle;rounded=0;orthogonalLoop=1;jettySize=auto;html=1;exitX=0.5;exitY=0;exitDx=0;exitDy=0;entryX=0.5;entryY=1;entryDx=0;entryDy=0;" edge="1" parent="1" source="k3gkesRyHBmJgMEclzgZ-314" target="k3gkesRyHBmJgMEclzgZ-301">
          <mxGeometry relative="1" as="geometry" />
        </mxCell>
        <mxCell id="k3gkesRyHBmJgMEclzgZ-314" value="Надає рекомендації" style="rhombus;whiteSpace=wrap;html=1;" vertex="1" parent="1">
          <mxGeometry x="3578" y="1690" width="80" height="80" as="geometry" />
        </mxCell>
        <mxCell id="k3gkesRyHBmJgMEclzgZ-489" style="edgeStyle=orthogonalEdgeStyle;rounded=0;orthogonalLoop=1;jettySize=auto;html=1;exitX=0;exitY=0.5;exitDx=0;exitDy=0;entryX=1;entryY=0.5;entryDx=0;entryDy=0;" edge="1" parent="1" source="k3gkesRyHBmJgMEclzgZ-315" target="k3gkesRyHBmJgMEclzgZ-316">
          <mxGeometry relative="1" as="geometry" />
        </mxCell>
        <mxCell id="k3gkesRyHBmJgMEclzgZ-315" value="Виробники/маркетплейси/ аптеки" style="rounded=0;whiteSpace=wrap;html=1;" vertex="1" parent="1">
          <mxGeometry x="3940" y="1290" width="120" height="60" as="geometry" />
        </mxCell>
        <mxCell id="k3gkesRyHBmJgMEclzgZ-490" style="edgeStyle=orthogonalEdgeStyle;rounded=0;orthogonalLoop=1;jettySize=auto;html=1;exitX=0;exitY=0.5;exitDx=0;exitDy=0;entryX=1;entryY=0.5;entryDx=0;entryDy=0;" edge="1" parent="1" source="k3gkesRyHBmJgMEclzgZ-316" target="k3gkesRyHBmJgMEclzgZ-294">
          <mxGeometry relative="1" as="geometry" />
        </mxCell>
        <mxCell id="k3gkesRyHBmJgMEclzgZ-316" value="Надає інформацію" style="rhombus;whiteSpace=wrap;html=1;" vertex="1" parent="1">
          <mxGeometry x="3780" y="1280" width="80" height="80" as="geometry" />
        </mxCell>
        <mxCell id="k3gkesRyHBmJgMEclzgZ-465" style="edgeStyle=orthogonalEdgeStyle;rounded=0;orthogonalLoop=1;jettySize=auto;html=1;exitX=0;exitY=0.5;exitDx=0;exitDy=0;entryX=1;entryY=0.5;entryDx=0;entryDy=0;" edge="1" parent="1" source="k3gkesRyHBmJgMEclzgZ-317" target="k3gkesRyHBmJgMEclzgZ-321">
          <mxGeometry relative="1" as="geometry" />
        </mxCell>
        <mxCell id="k3gkesRyHBmJgMEclzgZ-466" style="edgeStyle=orthogonalEdgeStyle;rounded=0;orthogonalLoop=1;jettySize=auto;html=1;exitX=0.5;exitY=0;exitDx=0;exitDy=0;entryX=1;entryY=0.5;entryDx=0;entryDy=0;" edge="1" parent="1" source="k3gkesRyHBmJgMEclzgZ-317" target="k3gkesRyHBmJgMEclzgZ-318">
          <mxGeometry relative="1" as="geometry" />
        </mxCell>
        <mxCell id="k3gkesRyHBmJgMEclzgZ-474" style="edgeStyle=orthogonalEdgeStyle;rounded=0;orthogonalLoop=1;jettySize=auto;html=1;exitX=1;exitY=0.5;exitDx=0;exitDy=0;entryX=0;entryY=0.5;entryDx=0;entryDy=0;" edge="1" parent="1" source="k3gkesRyHBmJgMEclzgZ-317" target="k3gkesRyHBmJgMEclzgZ-319">
          <mxGeometry relative="1" as="geometry" />
        </mxCell>
        <mxCell id="k3gkesRyHBmJgMEclzgZ-317" value="Адміністратор" style="rounded=0;whiteSpace=wrap;html=1;" vertex="1" parent="1">
          <mxGeometry x="3200" y="1550" width="120" height="60" as="geometry" />
        </mxCell>
        <mxCell id="k3gkesRyHBmJgMEclzgZ-469" style="edgeStyle=orthogonalEdgeStyle;rounded=0;orthogonalLoop=1;jettySize=auto;html=1;exitX=0;exitY=0.5;exitDx=0;exitDy=0;entryX=0.884;entryY=0.976;entryDx=0;entryDy=0;entryPerimeter=0;" edge="1" parent="1" source="k3gkesRyHBmJgMEclzgZ-318" target="k3gkesRyHBmJgMEclzgZ-292">
          <mxGeometry relative="1" as="geometry" />
        </mxCell>
        <mxCell id="k3gkesRyHBmJgMEclzgZ-318" value="Менеджить" style="rhombus;whiteSpace=wrap;html=1;" vertex="1" parent="1">
          <mxGeometry x="3015" y="1400" width="80" height="80" as="geometry" />
        </mxCell>
        <mxCell id="k3gkesRyHBmJgMEclzgZ-475" style="edgeStyle=orthogonalEdgeStyle;rounded=0;orthogonalLoop=1;jettySize=auto;html=1;exitX=1;exitY=0.5;exitDx=0;exitDy=0;entryX=0;entryY=0.5;entryDx=0;entryDy=0;" edge="1" parent="1" source="k3gkesRyHBmJgMEclzgZ-319" target="k3gkesRyHBmJgMEclzgZ-301">
          <mxGeometry relative="1" as="geometry" />
        </mxCell>
        <mxCell id="k3gkesRyHBmJgMEclzgZ-319" value="Оновлює" style="rhombus;whiteSpace=wrap;html=1;" vertex="1" parent="1">
          <mxGeometry x="3390" y="1540" width="80" height="80" as="geometry" />
        </mxCell>
        <mxCell id="k3gkesRyHBmJgMEclzgZ-482" style="edgeStyle=orthogonalEdgeStyle;rounded=0;orthogonalLoop=1;jettySize=auto;html=1;exitX=1;exitY=0.75;exitDx=0;exitDy=0;" edge="1" parent="1" source="k3gkesRyHBmJgMEclzgZ-292" target="k3gkesRyHBmJgMEclzgZ-306">
          <mxGeometry relative="1" as="geometry" />
        </mxCell>
        <mxCell id="k3gkesRyHBmJgMEclzgZ-464" style="edgeStyle=orthogonalEdgeStyle;rounded=0;orthogonalLoop=1;jettySize=auto;html=1;exitX=0;exitY=0.5;exitDx=0;exitDy=0;entryX=1;entryY=0.5;entryDx=0;entryDy=0;" edge="1" parent="1" source="k3gkesRyHBmJgMEclzgZ-321" target="k3gkesRyHBmJgMEclzgZ-298">
          <mxGeometry relative="1" as="geometry" />
        </mxCell>
        <mxCell id="k3gkesRyHBmJgMEclzgZ-321" value="Перевіряє" style="rhombus;whiteSpace=wrap;html=1;" vertex="1" parent="1">
          <mxGeometry x="3020" y="1540" width="80" height="80" as="geometry" />
        </mxCell>
        <mxCell id="k3gkesRyHBmJgMEclzgZ-323" value="" style="endArrow=classic;html=1;rounded=0;entryX=0.922;entryY=0.243;entryDx=0;entryDy=0;entryPerimeter=0;exitX=0.026;exitY=0.648;exitDx=0;exitDy=0;exitPerimeter=0;" edge="1" parent="1" source="k3gkesRyHBmJgMEclzgZ-322" target="k3gkesRyHBmJgMEclzgZ-204">
          <mxGeometry width="50" height="50" relative="1" as="geometry">
            <mxPoint x="2675" y="75" as="sourcePoint" />
            <mxPoint x="2740" y="60" as="targetPoint" />
          </mxGeometry>
        </mxCell>
        <mxCell id="k3gkesRyHBmJgMEclzgZ-322" value="ID-лікаря" style="text;html=1;whiteSpace=wrap;strokeColor=none;fillColor=none;align=center;verticalAlign=middle;rounded=0;" vertex="1" parent="1">
          <mxGeometry x="2675" y="60" width="60" height="30" as="geometry" />
        </mxCell>
        <mxCell id="k3gkesRyHBmJgMEclzgZ-326" value="" style="endArrow=classic;html=1;rounded=0;entryX=0.922;entryY=0.243;entryDx=0;entryDy=0;entryPerimeter=0;" edge="1" parent="1">
          <mxGeometry width="50" height="50" relative="1" as="geometry">
            <mxPoint x="2720" y="130" as="sourcePoint" />
            <mxPoint x="2616" y="173" as="targetPoint" />
          </mxGeometry>
        </mxCell>
        <mxCell id="k3gkesRyHBmJgMEclzgZ-327" value="Імʼя" style="text;html=1;whiteSpace=wrap;strokeColor=none;fillColor=none;align=center;verticalAlign=middle;rounded=0;" vertex="1" parent="1">
          <mxGeometry x="2715" y="105" width="60" height="30" as="geometry" />
        </mxCell>
        <mxCell id="k3gkesRyHBmJgMEclzgZ-330" value="" style="endArrow=classic;html=1;rounded=0;entryX=0.922;entryY=0.243;entryDx=0;entryDy=0;entryPerimeter=0;exitX=0;exitY=0.25;exitDx=0;exitDy=0;" edge="1" parent="1" source="k3gkesRyHBmJgMEclzgZ-202">
          <mxGeometry width="50" height="50" relative="1" as="geometry">
            <mxPoint x="2840" y="40" as="sourcePoint" />
            <mxPoint x="2735" y="66" as="targetPoint" />
          </mxGeometry>
        </mxCell>
        <mxCell id="k3gkesRyHBmJgMEclzgZ-332" value="" style="endArrow=classic;html=1;rounded=0;entryX=0.922;entryY=0.243;entryDx=0;entryDy=0;entryPerimeter=0;exitX=0.02;exitY=0.876;exitDx=0;exitDy=0;exitPerimeter=0;" edge="1" parent="1" source="k3gkesRyHBmJgMEclzgZ-202">
          <mxGeometry width="50" height="50" relative="1" as="geometry">
            <mxPoint x="2860" y="80" as="sourcePoint" />
            <mxPoint x="2760" y="111" as="targetPoint" />
          </mxGeometry>
        </mxCell>
        <mxCell id="k3gkesRyHBmJgMEclzgZ-333" value="" style="endArrow=classic;html=1;rounded=0;exitX=0.101;exitY=0.995;exitDx=0;exitDy=0;exitPerimeter=0;entryX=0.794;entryY=0.138;entryDx=0;entryDy=0;entryPerimeter=0;" edge="1" parent="1" source="k3gkesRyHBmJgMEclzgZ-202" target="k3gkesRyHBmJgMEclzgZ-206">
          <mxGeometry width="50" height="50" relative="1" as="geometry">
            <mxPoint x="2860" y="120" as="sourcePoint" />
            <mxPoint x="2910" y="70" as="targetPoint" />
          </mxGeometry>
        </mxCell>
        <mxCell id="k3gkesRyHBmJgMEclzgZ-340" value="Диплом" style="edgeLabel;html=1;align=center;verticalAlign=middle;resizable=0;points=[];" vertex="1" connectable="0" parent="k3gkesRyHBmJgMEclzgZ-333">
          <mxGeometry x="0.0667" relative="1" as="geometry">
            <mxPoint y="-1" as="offset" />
          </mxGeometry>
        </mxCell>
        <mxCell id="k3gkesRyHBmJgMEclzgZ-334" value="" style="endArrow=classic;html=1;rounded=0;exitX=0.25;exitY=1;exitDx=0;exitDy=0;entryX=0.706;entryY=-0.005;entryDx=0;entryDy=0;entryPerimeter=0;" edge="1" parent="1" source="k3gkesRyHBmJgMEclzgZ-202" target="k3gkesRyHBmJgMEclzgZ-207">
          <mxGeometry width="50" height="50" relative="1" as="geometry">
            <mxPoint x="2846" y="170" as="sourcePoint" />
            <mxPoint x="2730" y="268" as="targetPoint" />
          </mxGeometry>
        </mxCell>
        <mxCell id="k3gkesRyHBmJgMEclzgZ-341" value="Сертифікат" style="edgeLabel;html=1;align=center;verticalAlign=middle;resizable=0;points=[];" vertex="1" connectable="0" parent="k3gkesRyHBmJgMEclzgZ-334">
          <mxGeometry x="0.0186" y="-1" relative="1" as="geometry">
            <mxPoint as="offset" />
          </mxGeometry>
        </mxCell>
        <mxCell id="k3gkesRyHBmJgMEclzgZ-335" value="" style="endArrow=classic;html=1;rounded=0;exitX=0.637;exitY=0.995;exitDx=0;exitDy=0;exitPerimeter=0;" edge="1" parent="1" source="k3gkesRyHBmJgMEclzgZ-202" target="k3gkesRyHBmJgMEclzgZ-208">
          <mxGeometry width="50" height="50" relative="1" as="geometry">
            <mxPoint x="2861" y="160" as="sourcePoint" />
            <mxPoint x="2830" y="250" as="targetPoint" />
          </mxGeometry>
        </mxCell>
        <mxCell id="k3gkesRyHBmJgMEclzgZ-342" value="Дата" style="edgeLabel;html=1;align=center;verticalAlign=middle;resizable=0;points=[];" vertex="1" connectable="0" parent="k3gkesRyHBmJgMEclzgZ-335">
          <mxGeometry x="-0.0552" relative="1" as="geometry">
            <mxPoint as="offset" />
          </mxGeometry>
        </mxCell>
        <mxCell id="k3gkesRyHBmJgMEclzgZ-337" value="" style="endArrow=classic;html=1;rounded=0;exitX=0.958;exitY=0.99;exitDx=0;exitDy=0;exitPerimeter=0;entryX=0.31;entryY=0.078;entryDx=0;entryDy=0;entryPerimeter=0;" edge="1" parent="1" source="k3gkesRyHBmJgMEclzgZ-202" target="k3gkesRyHBmJgMEclzgZ-210">
          <mxGeometry width="50" height="50" relative="1" as="geometry">
            <mxPoint x="3041" y="170" as="sourcePoint" />
            <mxPoint x="3113" y="179" as="targetPoint" />
          </mxGeometry>
        </mxCell>
        <mxCell id="k3gkesRyHBmJgMEclzgZ-344" value="Електронна&amp;nbsp;&lt;div&gt;пошта&lt;/div&gt;" style="edgeLabel;html=1;align=center;verticalAlign=middle;resizable=0;points=[];" vertex="1" connectable="0" parent="k3gkesRyHBmJgMEclzgZ-337">
          <mxGeometry x="0.0709" y="-3" relative="1" as="geometry">
            <mxPoint as="offset" />
          </mxGeometry>
        </mxCell>
        <mxCell id="k3gkesRyHBmJgMEclzgZ-338" value="" style="endArrow=classic;html=1;rounded=0;exitX=0.958;exitY=0.99;exitDx=0;exitDy=0;exitPerimeter=0;entryX=0.5;entryY=0;entryDx=0;entryDy=0;" edge="1" parent="1" target="k3gkesRyHBmJgMEclzgZ-249">
          <mxGeometry width="50" height="50" relative="1" as="geometry">
            <mxPoint x="2970" y="60" as="sourcePoint" />
            <mxPoint x="3118" y="160" as="targetPoint" />
          </mxGeometry>
        </mxCell>
        <mxCell id="k3gkesRyHBmJgMEclzgZ-345" value="Вартість&amp;nbsp;&lt;div&gt;прийому&lt;/div&gt;" style="edgeLabel;html=1;align=center;verticalAlign=middle;resizable=0;points=[];" vertex="1" connectable="0" parent="k3gkesRyHBmJgMEclzgZ-338">
          <mxGeometry x="-0.1154" y="-2" relative="1" as="geometry">
            <mxPoint as="offset" />
          </mxGeometry>
        </mxCell>
        <mxCell id="k3gkesRyHBmJgMEclzgZ-339" value="" style="endArrow=classic;html=1;rounded=0;exitX=1;exitY=0.25;exitDx=0;exitDy=0;entryX=0.206;entryY=0.098;entryDx=0;entryDy=0;entryPerimeter=0;" edge="1" parent="1" source="k3gkesRyHBmJgMEclzgZ-202" target="k3gkesRyHBmJgMEclzgZ-250">
          <mxGeometry width="50" height="50" relative="1" as="geometry">
            <mxPoint x="3200" y="110" as="sourcePoint" />
            <mxPoint x="3348" y="210" as="targetPoint" />
          </mxGeometry>
        </mxCell>
        <mxCell id="k3gkesRyHBmJgMEclzgZ-346" value="Напрямок&amp;nbsp;&lt;div&gt;консультації&lt;/div&gt;" style="edgeLabel;html=1;align=center;verticalAlign=middle;resizable=0;points=[];" vertex="1" connectable="0" parent="k3gkesRyHBmJgMEclzgZ-339">
          <mxGeometry x="-0.0479" y="1" relative="1" as="geometry">
            <mxPoint as="offset" />
          </mxGeometry>
        </mxCell>
        <mxCell id="k3gkesRyHBmJgMEclzgZ-353" value="" style="verticalLabelPosition=bottom;shadow=0;dashed=0;align=center;html=1;verticalAlign=top;shape=mxgraph.electrical.transmission.2_line_bus;rotation=75;" vertex="1" parent="1">
          <mxGeometry x="2781" y="47" width="30" height="10" as="geometry" />
        </mxCell>
        <mxCell id="k3gkesRyHBmJgMEclzgZ-354" value="" style="verticalLabelPosition=bottom;shadow=0;dashed=0;align=center;html=1;verticalAlign=top;shape=mxgraph.electrical.transmission.2_line_bus;rotation=75;" vertex="1" parent="1">
          <mxGeometry x="2610" y="90" width="30" height="10" as="geometry" />
        </mxCell>
        <mxCell id="k3gkesRyHBmJgMEclzgZ-355" value="" style="verticalLabelPosition=bottom;shadow=0;dashed=0;align=center;html=1;verticalAlign=top;shape=mxgraph.electrical.transmission.2_line_bus;rotation=75;" vertex="1" parent="1">
          <mxGeometry x="2656.001914807983" y="143.00298261984864" width="30" height="10" as="geometry" />
        </mxCell>
        <mxCell id="k3gkesRyHBmJgMEclzgZ-356" value="" style="verticalLabelPosition=bottom;shadow=0;dashed=0;align=center;html=1;verticalAlign=top;shape=mxgraph.electrical.transmission.2_line_bus;rotation=75;" vertex="1" parent="1">
          <mxGeometry x="2797.001914807983" y="86.00298261984861" width="30" height="10" as="geometry" />
        </mxCell>
        <mxCell id="k3gkesRyHBmJgMEclzgZ-358" value="" style="verticalLabelPosition=bottom;shadow=0;dashed=0;align=center;html=1;verticalAlign=top;shape=mxgraph.electrical.transmission.2_line_bus;rotation=0;" vertex="1" parent="1">
          <mxGeometry x="3023.001914807983" y="149.0029826198486" width="30" height="10" as="geometry" />
        </mxCell>
        <mxCell id="k3gkesRyHBmJgMEclzgZ-360" value="" style="verticalLabelPosition=bottom;shadow=0;dashed=0;align=center;html=1;verticalAlign=top;shape=mxgraph.electrical.transmission.2_line_bus;rotation=0;" vertex="1" parent="1">
          <mxGeometry x="2970" y="96" width="30" height="10" as="geometry" />
        </mxCell>
        <mxCell id="k3gkesRyHBmJgMEclzgZ-362" value="" style="verticalLabelPosition=bottom;shadow=0;dashed=0;align=center;html=1;verticalAlign=top;shape=mxgraph.electrical.transmission.2_line_bus;rotation=30;" vertex="1" parent="1">
          <mxGeometry x="2850.001914807983" y="100.00298261984862" width="30" height="10" as="geometry" />
        </mxCell>
        <mxCell id="k3gkesRyHBmJgMEclzgZ-367" value="" style="verticalLabelPosition=bottom;shadow=0;dashed=0;align=center;html=1;verticalAlign=top;shape=mxgraph.electrical.transmission.2_line_bus;rotation=0;" vertex="1" parent="1">
          <mxGeometry x="2913" y="95" width="32.28" height="10" as="geometry" />
        </mxCell>
        <mxCell id="k3gkesRyHBmJgMEclzgZ-368" value="" style="verticalLabelPosition=bottom;shadow=0;dashed=0;align=center;html=1;verticalAlign=top;shape=mxgraph.electrical.transmission.2_line_bus;rotation=75;" vertex="1" parent="1">
          <mxGeometry x="2816.7119148079832" y="96.78298261984862" width="30" height="10" as="geometry" />
        </mxCell>
        <mxCell id="k3gkesRyHBmJgMEclzgZ-372" value="" style="endArrow=none;html=1;rounded=0;" edge="1" parent="1">
          <mxGeometry width="50" height="50" relative="1" as="geometry">
            <mxPoint x="2832" y="145" as="sourcePoint" />
            <mxPoint x="2852" y="155" as="targetPoint" />
          </mxGeometry>
        </mxCell>
        <mxCell id="k3gkesRyHBmJgMEclzgZ-373" value="" style="endArrow=none;html=1;rounded=0;" edge="1" parent="1">
          <mxGeometry width="50" height="50" relative="1" as="geometry">
            <mxPoint x="2745" y="155" as="sourcePoint" />
            <mxPoint x="2765" y="165" as="targetPoint" />
          </mxGeometry>
        </mxCell>
        <mxCell id="k3gkesRyHBmJgMEclzgZ-375" value="" style="endArrow=none;html=1;rounded=0;" edge="1" parent="1">
          <mxGeometry width="50" height="50" relative="1" as="geometry">
            <mxPoint x="2927" y="150" as="sourcePoint" />
            <mxPoint x="2947" y="150" as="targetPoint" />
          </mxGeometry>
        </mxCell>
        <mxCell id="k3gkesRyHBmJgMEclzgZ-376" value="" style="verticalLabelPosition=bottom;shadow=0;dashed=0;align=center;html=1;verticalAlign=top;shape=mxgraph.electrical.transmission.2_line_bus;rotation=-30;" vertex="1" parent="1">
          <mxGeometry x="3005" y="76" width="32.28" height="10" as="geometry" />
        </mxCell>
        <mxCell id="k3gkesRyHBmJgMEclzgZ-377" value="" style="endArrow=none;html=1;rounded=0;" edge="1" parent="1">
          <mxGeometry width="50" height="50" relative="1" as="geometry">
            <mxPoint x="3118" y="133" as="sourcePoint" />
            <mxPoint x="3138" y="123" as="targetPoint" />
          </mxGeometry>
        </mxCell>
        <mxCell id="k3gkesRyHBmJgMEclzgZ-378" value="" style="endArrow=none;html=1;rounded=0;" edge="1" parent="1">
          <mxGeometry width="50" height="50" relative="1" as="geometry">
            <mxPoint x="3165" y="87" as="sourcePoint" />
            <mxPoint x="3178" y="77" as="targetPoint" />
          </mxGeometry>
        </mxCell>
        <mxCell id="k3gkesRyHBmJgMEclzgZ-379" value="" style="verticalLabelPosition=bottom;shadow=0;dashed=0;align=center;html=1;verticalAlign=top;shape=mxgraph.electrical.transmission.2_line_bus;rotation=-30;" vertex="1" parent="1">
          <mxGeometry x="3020.3376500170807" y="47.40012701892235" width="32.28" height="10" as="geometry" />
        </mxCell>
        <mxCell id="k3gkesRyHBmJgMEclzgZ-380" value="Користувач" style="rounded=0;whiteSpace=wrap;html=1;" vertex="1" parent="1">
          <mxGeometry x="2860" y="595" width="120" height="60" as="geometry" />
        </mxCell>
        <mxCell id="k3gkesRyHBmJgMEclzgZ-381" value="ID" style="ellipse;whiteSpace=wrap;html=1;" vertex="1" parent="1">
          <mxGeometry x="2500" y="665" width="90" height="60" as="geometry" />
        </mxCell>
        <mxCell id="k3gkesRyHBmJgMEclzgZ-382" value="Текст" style="ellipse;whiteSpace=wrap;html=1;" vertex="1" parent="1">
          <mxGeometry x="2560" y="745" width="90" height="60" as="geometry" />
        </mxCell>
        <mxCell id="k3gkesRyHBmJgMEclzgZ-383" value="Паролі" style="ellipse;whiteSpace=wrap;html=1;" vertex="1" parent="1">
          <mxGeometry x="2670" y="745" width="90" height="60" as="geometry" />
        </mxCell>
        <mxCell id="k3gkesRyHBmJgMEclzgZ-384" value="Пошти" style="ellipse;whiteSpace=wrap;html=1;" vertex="1" parent="1">
          <mxGeometry x="2780" y="745" width="90" height="60" as="geometry" />
        </mxCell>
        <mxCell id="k3gkesRyHBmJgMEclzgZ-385" value="Вік" style="ellipse;whiteSpace=wrap;html=1;" vertex="1" parent="1">
          <mxGeometry x="2910" y="745" width="90" height="60" as="geometry" />
        </mxCell>
        <mxCell id="k3gkesRyHBmJgMEclzgZ-386" value="Емеїл" style="ellipse;whiteSpace=wrap;html=1;" vertex="1" parent="1">
          <mxGeometry x="3040" y="745" width="90" height="65" as="geometry" />
        </mxCell>
        <mxCell id="k3gkesRyHBmJgMEclzgZ-387" value="Рівень підписки" style="ellipse;whiteSpace=wrap;html=1;" vertex="1" parent="1">
          <mxGeometry x="3170" y="735" width="90" height="60" as="geometry" />
        </mxCell>
        <mxCell id="k3gkesRyHBmJgMEclzgZ-389" value="" style="endArrow=classic;html=1;rounded=0;entryX=0.922;entryY=0.243;entryDx=0;entryDy=0;entryPerimeter=0;exitX=0.026;exitY=0.648;exitDx=0;exitDy=0;exitPerimeter=0;" edge="1" parent="1" source="k3gkesRyHBmJgMEclzgZ-390" target="k3gkesRyHBmJgMEclzgZ-381">
          <mxGeometry width="50" height="50" relative="1" as="geometry">
            <mxPoint x="2685" y="650" as="sourcePoint" />
            <mxPoint x="2750" y="635" as="targetPoint" />
          </mxGeometry>
        </mxCell>
        <mxCell id="k3gkesRyHBmJgMEclzgZ-390" value="ID-користувача" style="text;html=1;whiteSpace=wrap;strokeColor=none;fillColor=none;align=center;verticalAlign=middle;rounded=0;" vertex="1" parent="1">
          <mxGeometry x="2685" y="635" width="60" height="30" as="geometry" />
        </mxCell>
        <mxCell id="k3gkesRyHBmJgMEclzgZ-391" value="" style="endArrow=classic;html=1;rounded=0;entryX=0.922;entryY=0.243;entryDx=0;entryDy=0;entryPerimeter=0;" edge="1" parent="1">
          <mxGeometry width="50" height="50" relative="1" as="geometry">
            <mxPoint x="2730" y="705" as="sourcePoint" />
            <mxPoint x="2626" y="748" as="targetPoint" />
          </mxGeometry>
        </mxCell>
        <mxCell id="k3gkesRyHBmJgMEclzgZ-392" value="Імʼя" style="text;html=1;whiteSpace=wrap;strokeColor=none;fillColor=none;align=center;verticalAlign=middle;rounded=0;" vertex="1" parent="1">
          <mxGeometry x="2725" y="680" width="60" height="30" as="geometry" />
        </mxCell>
        <mxCell id="k3gkesRyHBmJgMEclzgZ-393" value="" style="endArrow=classic;html=1;rounded=0;entryX=0.922;entryY=0.243;entryDx=0;entryDy=0;entryPerimeter=0;exitX=0;exitY=0.25;exitDx=0;exitDy=0;" edge="1" parent="1" source="k3gkesRyHBmJgMEclzgZ-380">
          <mxGeometry width="50" height="50" relative="1" as="geometry">
            <mxPoint x="2850" y="615" as="sourcePoint" />
            <mxPoint x="2745" y="641" as="targetPoint" />
          </mxGeometry>
        </mxCell>
        <mxCell id="k3gkesRyHBmJgMEclzgZ-394" value="" style="endArrow=classic;html=1;rounded=0;entryX=0.922;entryY=0.243;entryDx=0;entryDy=0;entryPerimeter=0;exitX=0.02;exitY=0.876;exitDx=0;exitDy=0;exitPerimeter=0;" edge="1" parent="1" source="k3gkesRyHBmJgMEclzgZ-380">
          <mxGeometry width="50" height="50" relative="1" as="geometry">
            <mxPoint x="2870" y="655" as="sourcePoint" />
            <mxPoint x="2770" y="686" as="targetPoint" />
          </mxGeometry>
        </mxCell>
        <mxCell id="k3gkesRyHBmJgMEclzgZ-395" value="" style="endArrow=classic;html=1;rounded=0;exitX=0.101;exitY=0.995;exitDx=0;exitDy=0;exitPerimeter=0;entryX=0.794;entryY=0.138;entryDx=0;entryDy=0;entryPerimeter=0;" edge="1" parent="1" source="k3gkesRyHBmJgMEclzgZ-380" target="k3gkesRyHBmJgMEclzgZ-383">
          <mxGeometry width="50" height="50" relative="1" as="geometry">
            <mxPoint x="2870" y="695" as="sourcePoint" />
            <mxPoint x="2920" y="645" as="targetPoint" />
          </mxGeometry>
        </mxCell>
        <mxCell id="k3gkesRyHBmJgMEclzgZ-396" value="Пароль" style="edgeLabel;html=1;align=center;verticalAlign=middle;resizable=0;points=[];" vertex="1" connectable="0" parent="k3gkesRyHBmJgMEclzgZ-395">
          <mxGeometry x="0.0667" relative="1" as="geometry">
            <mxPoint y="-1" as="offset" />
          </mxGeometry>
        </mxCell>
        <mxCell id="k3gkesRyHBmJgMEclzgZ-397" value="" style="endArrow=classic;html=1;rounded=0;exitX=0.25;exitY=1;exitDx=0;exitDy=0;entryX=0.706;entryY=-0.005;entryDx=0;entryDy=0;entryPerimeter=0;" edge="1" parent="1" source="k3gkesRyHBmJgMEclzgZ-380" target="k3gkesRyHBmJgMEclzgZ-384">
          <mxGeometry width="50" height="50" relative="1" as="geometry">
            <mxPoint x="2856" y="745" as="sourcePoint" />
            <mxPoint x="2740" y="843" as="targetPoint" />
          </mxGeometry>
        </mxCell>
        <mxCell id="k3gkesRyHBmJgMEclzgZ-398" value="емеїл" style="edgeLabel;html=1;align=center;verticalAlign=middle;resizable=0;points=[];" vertex="1" connectable="0" parent="k3gkesRyHBmJgMEclzgZ-397">
          <mxGeometry x="0.0186" y="-1" relative="1" as="geometry">
            <mxPoint as="offset" />
          </mxGeometry>
        </mxCell>
        <mxCell id="k3gkesRyHBmJgMEclzgZ-399" value="" style="endArrow=classic;html=1;rounded=0;exitX=0.637;exitY=0.995;exitDx=0;exitDy=0;exitPerimeter=0;" edge="1" parent="1" source="k3gkesRyHBmJgMEclzgZ-380" target="k3gkesRyHBmJgMEclzgZ-385">
          <mxGeometry width="50" height="50" relative="1" as="geometry">
            <mxPoint x="2871" y="735" as="sourcePoint" />
            <mxPoint x="2840" y="825" as="targetPoint" />
          </mxGeometry>
        </mxCell>
        <mxCell id="k3gkesRyHBmJgMEclzgZ-400" value="Дата&amp;nbsp;&lt;div&gt;народження&lt;/div&gt;" style="edgeLabel;html=1;align=center;verticalAlign=middle;resizable=0;points=[];" vertex="1" connectable="0" parent="k3gkesRyHBmJgMEclzgZ-399">
          <mxGeometry x="-0.0552" relative="1" as="geometry">
            <mxPoint as="offset" />
          </mxGeometry>
        </mxCell>
        <mxCell id="k3gkesRyHBmJgMEclzgZ-401" value="" style="endArrow=classic;html=1;rounded=0;exitX=0.958;exitY=0.99;exitDx=0;exitDy=0;exitPerimeter=0;entryX=0.31;entryY=0.078;entryDx=0;entryDy=0;entryPerimeter=0;" edge="1" parent="1" source="k3gkesRyHBmJgMEclzgZ-380" target="k3gkesRyHBmJgMEclzgZ-386">
          <mxGeometry width="50" height="50" relative="1" as="geometry">
            <mxPoint x="3051" y="745" as="sourcePoint" />
            <mxPoint x="3123" y="754" as="targetPoint" />
          </mxGeometry>
        </mxCell>
        <mxCell id="k3gkesRyHBmJgMEclzgZ-402" value="Стать" style="edgeLabel;html=1;align=center;verticalAlign=middle;resizable=0;points=[];" vertex="1" connectable="0" parent="k3gkesRyHBmJgMEclzgZ-401">
          <mxGeometry x="0.0709" y="-3" relative="1" as="geometry">
            <mxPoint as="offset" />
          </mxGeometry>
        </mxCell>
        <mxCell id="k3gkesRyHBmJgMEclzgZ-403" value="" style="endArrow=classic;html=1;rounded=0;exitX=0.958;exitY=0.99;exitDx=0;exitDy=0;exitPerimeter=0;entryX=0.5;entryY=0;entryDx=0;entryDy=0;" edge="1" parent="1" target="k3gkesRyHBmJgMEclzgZ-387">
          <mxGeometry width="50" height="50" relative="1" as="geometry">
            <mxPoint x="2980" y="635" as="sourcePoint" />
            <mxPoint x="3128" y="735" as="targetPoint" />
          </mxGeometry>
        </mxCell>
        <mxCell id="k3gkesRyHBmJgMEclzgZ-404" value="Підписка" style="edgeLabel;html=1;align=center;verticalAlign=middle;resizable=0;points=[];" vertex="1" connectable="0" parent="k3gkesRyHBmJgMEclzgZ-403">
          <mxGeometry x="-0.1154" y="-2" relative="1" as="geometry">
            <mxPoint as="offset" />
          </mxGeometry>
        </mxCell>
        <mxCell id="k3gkesRyHBmJgMEclzgZ-407" value="" style="verticalLabelPosition=bottom;shadow=0;dashed=0;align=center;html=1;verticalAlign=top;shape=mxgraph.electrical.transmission.2_line_bus;rotation=75;" vertex="1" parent="1">
          <mxGeometry x="2791" y="622" width="30" height="10" as="geometry" />
        </mxCell>
        <mxCell id="k3gkesRyHBmJgMEclzgZ-408" value="" style="verticalLabelPosition=bottom;shadow=0;dashed=0;align=center;html=1;verticalAlign=top;shape=mxgraph.electrical.transmission.2_line_bus;rotation=75;" vertex="1" parent="1">
          <mxGeometry x="2620" y="665" width="30" height="10" as="geometry" />
        </mxCell>
        <mxCell id="k3gkesRyHBmJgMEclzgZ-409" value="" style="verticalLabelPosition=bottom;shadow=0;dashed=0;align=center;html=1;verticalAlign=top;shape=mxgraph.electrical.transmission.2_line_bus;rotation=75;" vertex="1" parent="1">
          <mxGeometry x="2666.001914807983" y="718.0029826198486" width="30" height="10" as="geometry" />
        </mxCell>
        <mxCell id="k3gkesRyHBmJgMEclzgZ-410" value="" style="verticalLabelPosition=bottom;shadow=0;dashed=0;align=center;html=1;verticalAlign=top;shape=mxgraph.electrical.transmission.2_line_bus;rotation=75;" vertex="1" parent="1">
          <mxGeometry x="2807.001914807983" y="661.0029826198486" width="30" height="10" as="geometry" />
        </mxCell>
        <mxCell id="k3gkesRyHBmJgMEclzgZ-411" value="" style="verticalLabelPosition=bottom;shadow=0;dashed=0;align=center;html=1;verticalAlign=top;shape=mxgraph.electrical.transmission.2_line_bus;rotation=0;" vertex="1" parent="1">
          <mxGeometry x="3033.001914807983" y="724.0029826198486" width="30" height="10" as="geometry" />
        </mxCell>
        <mxCell id="k3gkesRyHBmJgMEclzgZ-412" value="" style="verticalLabelPosition=bottom;shadow=0;dashed=0;align=center;html=1;verticalAlign=top;shape=mxgraph.electrical.transmission.2_line_bus;rotation=0;" vertex="1" parent="1">
          <mxGeometry x="2980" y="671" width="30" height="10" as="geometry" />
        </mxCell>
        <mxCell id="k3gkesRyHBmJgMEclzgZ-413" value="" style="verticalLabelPosition=bottom;shadow=0;dashed=0;align=center;html=1;verticalAlign=top;shape=mxgraph.electrical.transmission.2_line_bus;rotation=30;" vertex="1" parent="1">
          <mxGeometry x="2860.001914807983" y="675.0029826198486" width="30" height="10" as="geometry" />
        </mxCell>
        <mxCell id="k3gkesRyHBmJgMEclzgZ-414" value="" style="verticalLabelPosition=bottom;shadow=0;dashed=0;align=center;html=1;verticalAlign=top;shape=mxgraph.electrical.transmission.2_line_bus;rotation=0;" vertex="1" parent="1">
          <mxGeometry x="2923" y="670" width="32.28" height="10" as="geometry" />
        </mxCell>
        <mxCell id="k3gkesRyHBmJgMEclzgZ-415" value="" style="verticalLabelPosition=bottom;shadow=0;dashed=0;align=center;html=1;verticalAlign=top;shape=mxgraph.electrical.transmission.2_line_bus;rotation=75;" vertex="1" parent="1">
          <mxGeometry x="2826.7119148079832" y="671.7829826198486" width="30" height="10" as="geometry" />
        </mxCell>
        <mxCell id="k3gkesRyHBmJgMEclzgZ-416" value="" style="endArrow=none;html=1;rounded=0;" edge="1" parent="1">
          <mxGeometry width="50" height="50" relative="1" as="geometry">
            <mxPoint x="2842" y="720" as="sourcePoint" />
            <mxPoint x="2862" y="730" as="targetPoint" />
          </mxGeometry>
        </mxCell>
        <mxCell id="k3gkesRyHBmJgMEclzgZ-418" value="" style="endArrow=none;html=1;rounded=0;" edge="1" parent="1">
          <mxGeometry width="50" height="50" relative="1" as="geometry">
            <mxPoint x="2937" y="723" as="sourcePoint" />
            <mxPoint x="2957" y="723" as="targetPoint" />
          </mxGeometry>
        </mxCell>
        <mxCell id="k3gkesRyHBmJgMEclzgZ-419" value="" style="verticalLabelPosition=bottom;shadow=0;dashed=0;align=center;html=1;verticalAlign=top;shape=mxgraph.electrical.transmission.2_line_bus;rotation=-30;" vertex="1" parent="1">
          <mxGeometry x="3015" y="651" width="32.28" height="10" as="geometry" />
        </mxCell>
        <mxCell id="k3gkesRyHBmJgMEclzgZ-420" value="" style="endArrow=none;html=1;rounded=0;" edge="1" parent="1">
          <mxGeometry width="50" height="50" relative="1" as="geometry">
            <mxPoint x="3128" y="708" as="sourcePoint" />
            <mxPoint x="3148" y="698" as="targetPoint" />
          </mxGeometry>
        </mxCell>
        <mxCell id="k3gkesRyHBmJgMEclzgZ-423" value="" style="verticalLabelPosition=bottom;shadow=0;dashed=0;align=center;html=1;verticalAlign=top;shape=mxgraph.electrical.transmission.2_line_bus;rotation=45;" vertex="1" parent="1">
          <mxGeometry x="2754.7119148079832" y="727.7829826198487" width="30" height="10" as="geometry" />
        </mxCell>
        <mxCell id="k3gkesRyHBmJgMEclzgZ-426" value="" style="endArrow=none;html=1;rounded=0;" edge="1" parent="1">
          <mxGeometry width="50" height="50" relative="1" as="geometry">
            <mxPoint x="2846" y="712" as="sourcePoint" />
            <mxPoint x="2866" y="722" as="targetPoint" />
          </mxGeometry>
        </mxCell>
        <mxCell id="k3gkesRyHBmJgMEclzgZ-427" value="" style="endArrow=none;html=1;rounded=0;" edge="1" parent="1">
          <mxGeometry width="50" height="50" relative="1" as="geometry">
            <mxPoint x="2938" y="732" as="sourcePoint" />
            <mxPoint x="2958" y="732" as="targetPoint" />
          </mxGeometry>
        </mxCell>
        <mxCell id="k3gkesRyHBmJgMEclzgZ-428" value="" style="endArrow=none;html=1;rounded=0;" edge="1" parent="1">
          <mxGeometry width="50" height="50" relative="1" as="geometry">
            <mxPoint x="3139" y="714" as="sourcePoint" />
            <mxPoint x="3159" y="704" as="targetPoint" />
          </mxGeometry>
        </mxCell>
        <mxCell id="k3gkesRyHBmJgMEclzgZ-429" value="Платіжна система" style="rounded=0;whiteSpace=wrap;html=1;" vertex="1" parent="1">
          <mxGeometry x="2890" y="294" width="120" height="60" as="geometry" />
        </mxCell>
        <mxCell id="k3gkesRyHBmJgMEclzgZ-430" value="ID" style="ellipse;whiteSpace=wrap;html=1;" vertex="1" parent="1">
          <mxGeometry x="2530" y="364" width="90" height="60" as="geometry" />
        </mxCell>
        <mxCell id="k3gkesRyHBmJgMEclzgZ-431" value="Сума" style="ellipse;whiteSpace=wrap;html=1;" vertex="1" parent="1">
          <mxGeometry x="2590" y="444" width="90" height="60" as="geometry" />
        </mxCell>
        <mxCell id="k3gkesRyHBmJgMEclzgZ-432" value="Статус" style="ellipse;whiteSpace=wrap;html=1;" vertex="1" parent="1">
          <mxGeometry x="2700" y="444" width="90" height="60" as="geometry" />
        </mxCell>
        <mxCell id="k3gkesRyHBmJgMEclzgZ-433" value="Методи" style="ellipse;whiteSpace=wrap;html=1;" vertex="1" parent="1">
          <mxGeometry x="2810" y="444" width="90" height="60" as="geometry" />
        </mxCell>
        <mxCell id="k3gkesRyHBmJgMEclzgZ-434" value="Дата" style="ellipse;whiteSpace=wrap;html=1;" vertex="1" parent="1">
          <mxGeometry x="2940" y="444" width="90" height="60" as="geometry" />
        </mxCell>
        <mxCell id="k3gkesRyHBmJgMEclzgZ-435" value="" style="endArrow=classic;html=1;rounded=0;entryX=0.922;entryY=0.243;entryDx=0;entryDy=0;entryPerimeter=0;exitX=0.026;exitY=0.648;exitDx=0;exitDy=0;exitPerimeter=0;" edge="1" parent="1" source="k3gkesRyHBmJgMEclzgZ-436" target="k3gkesRyHBmJgMEclzgZ-430">
          <mxGeometry width="50" height="50" relative="1" as="geometry">
            <mxPoint x="2715" y="349" as="sourcePoint" />
            <mxPoint x="2780" y="334" as="targetPoint" />
          </mxGeometry>
        </mxCell>
        <mxCell id="k3gkesRyHBmJgMEclzgZ-436" value="ID-переказу" style="text;html=1;whiteSpace=wrap;strokeColor=none;fillColor=none;align=center;verticalAlign=middle;rounded=0;" vertex="1" parent="1">
          <mxGeometry x="2715" y="334" width="60" height="30" as="geometry" />
        </mxCell>
        <mxCell id="k3gkesRyHBmJgMEclzgZ-437" value="" style="endArrow=classic;html=1;rounded=0;entryX=0.922;entryY=0.243;entryDx=0;entryDy=0;entryPerimeter=0;" edge="1" parent="1">
          <mxGeometry width="50" height="50" relative="1" as="geometry">
            <mxPoint x="2760" y="404" as="sourcePoint" />
            <mxPoint x="2656" y="447" as="targetPoint" />
          </mxGeometry>
        </mxCell>
        <mxCell id="k3gkesRyHBmJgMEclzgZ-438" value="Транзакція" style="text;html=1;whiteSpace=wrap;strokeColor=none;fillColor=none;align=center;verticalAlign=middle;rounded=0;" vertex="1" parent="1">
          <mxGeometry x="2746" y="375" width="60" height="30" as="geometry" />
        </mxCell>
        <mxCell id="k3gkesRyHBmJgMEclzgZ-439" value="" style="endArrow=classic;html=1;rounded=0;entryX=0.922;entryY=0.243;entryDx=0;entryDy=0;entryPerimeter=0;exitX=0;exitY=0.25;exitDx=0;exitDy=0;" edge="1" parent="1" source="k3gkesRyHBmJgMEclzgZ-429">
          <mxGeometry width="50" height="50" relative="1" as="geometry">
            <mxPoint x="2880" y="314" as="sourcePoint" />
            <mxPoint x="2775" y="340" as="targetPoint" />
          </mxGeometry>
        </mxCell>
        <mxCell id="k3gkesRyHBmJgMEclzgZ-440" value="" style="endArrow=classic;html=1;rounded=0;entryX=0.922;entryY=0.243;entryDx=0;entryDy=0;entryPerimeter=0;exitX=0.02;exitY=0.876;exitDx=0;exitDy=0;exitPerimeter=0;" edge="1" parent="1" source="k3gkesRyHBmJgMEclzgZ-429">
          <mxGeometry width="50" height="50" relative="1" as="geometry">
            <mxPoint x="2900" y="354" as="sourcePoint" />
            <mxPoint x="2800" y="385" as="targetPoint" />
          </mxGeometry>
        </mxCell>
        <mxCell id="k3gkesRyHBmJgMEclzgZ-441" value="" style="endArrow=classic;html=1;rounded=0;exitX=0.101;exitY=0.995;exitDx=0;exitDy=0;exitPerimeter=0;entryX=0.794;entryY=0.138;entryDx=0;entryDy=0;entryPerimeter=0;" edge="1" parent="1" source="k3gkesRyHBmJgMEclzgZ-429" target="k3gkesRyHBmJgMEclzgZ-432">
          <mxGeometry width="50" height="50" relative="1" as="geometry">
            <mxPoint x="2900" y="394" as="sourcePoint" />
            <mxPoint x="2950" y="344" as="targetPoint" />
          </mxGeometry>
        </mxCell>
        <mxCell id="k3gkesRyHBmJgMEclzgZ-442" value="Опрацювання&amp;nbsp;&lt;div&gt;платежу&lt;/div&gt;" style="edgeLabel;html=1;align=center;verticalAlign=middle;resizable=0;points=[];" vertex="1" connectable="0" parent="k3gkesRyHBmJgMEclzgZ-441">
          <mxGeometry x="0.0667" relative="1" as="geometry">
            <mxPoint y="-1" as="offset" />
          </mxGeometry>
        </mxCell>
        <mxCell id="k3gkesRyHBmJgMEclzgZ-443" value="" style="endArrow=classic;html=1;rounded=0;exitX=0.25;exitY=1;exitDx=0;exitDy=0;entryX=0.706;entryY=-0.005;entryDx=0;entryDy=0;entryPerimeter=0;" edge="1" parent="1" source="k3gkesRyHBmJgMEclzgZ-429" target="k3gkesRyHBmJgMEclzgZ-433">
          <mxGeometry width="50" height="50" relative="1" as="geometry">
            <mxPoint x="2886" y="444" as="sourcePoint" />
            <mxPoint x="2770" y="542" as="targetPoint" />
          </mxGeometry>
        </mxCell>
        <mxCell id="k3gkesRyHBmJgMEclzgZ-444" value="Спосіб&amp;nbsp;&lt;div&gt;оплати&lt;/div&gt;" style="edgeLabel;html=1;align=center;verticalAlign=middle;resizable=0;points=[];" vertex="1" connectable="0" parent="k3gkesRyHBmJgMEclzgZ-443">
          <mxGeometry x="0.0186" y="-1" relative="1" as="geometry">
            <mxPoint as="offset" />
          </mxGeometry>
        </mxCell>
        <mxCell id="k3gkesRyHBmJgMEclzgZ-445" value="" style="endArrow=classic;html=1;rounded=0;exitX=0.637;exitY=0.995;exitDx=0;exitDy=0;exitPerimeter=0;" edge="1" parent="1" source="k3gkesRyHBmJgMEclzgZ-429" target="k3gkesRyHBmJgMEclzgZ-434">
          <mxGeometry width="50" height="50" relative="1" as="geometry">
            <mxPoint x="2901" y="434" as="sourcePoint" />
            <mxPoint x="2870" y="524" as="targetPoint" />
          </mxGeometry>
        </mxCell>
        <mxCell id="k3gkesRyHBmJgMEclzgZ-446" value="Дата&amp;nbsp;&lt;div&gt;переказу&lt;/div&gt;" style="edgeLabel;html=1;align=center;verticalAlign=middle;resizable=0;points=[];" vertex="1" connectable="0" parent="k3gkesRyHBmJgMEclzgZ-445">
          <mxGeometry x="-0.0552" relative="1" as="geometry">
            <mxPoint as="offset" />
          </mxGeometry>
        </mxCell>
        <mxCell id="k3gkesRyHBmJgMEclzgZ-447" value="" style="verticalLabelPosition=bottom;shadow=0;dashed=0;align=center;html=1;verticalAlign=top;shape=mxgraph.electrical.transmission.2_line_bus;rotation=75;" vertex="1" parent="1">
          <mxGeometry x="2821" y="321" width="30" height="10" as="geometry" />
        </mxCell>
        <mxCell id="k3gkesRyHBmJgMEclzgZ-448" value="" style="verticalLabelPosition=bottom;shadow=0;dashed=0;align=center;html=1;verticalAlign=top;shape=mxgraph.electrical.transmission.2_line_bus;rotation=75;" vertex="1" parent="1">
          <mxGeometry x="2650" y="364" width="30" height="10" as="geometry" />
        </mxCell>
        <mxCell id="k3gkesRyHBmJgMEclzgZ-449" value="" style="verticalLabelPosition=bottom;shadow=0;dashed=0;align=center;html=1;verticalAlign=top;shape=mxgraph.electrical.transmission.2_line_bus;rotation=75;" vertex="1" parent="1">
          <mxGeometry x="2696.001914807983" y="417.0029826198486" width="30" height="10" as="geometry" />
        </mxCell>
        <mxCell id="k3gkesRyHBmJgMEclzgZ-450" value="" style="verticalLabelPosition=bottom;shadow=0;dashed=0;align=center;html=1;verticalAlign=top;shape=mxgraph.electrical.transmission.2_line_bus;rotation=75;" vertex="1" parent="1">
          <mxGeometry x="2837.001914807983" y="360.0029826198486" width="30" height="10" as="geometry" />
        </mxCell>
        <mxCell id="k3gkesRyHBmJgMEclzgZ-451" value="" style="verticalLabelPosition=bottom;shadow=0;dashed=0;align=center;html=1;verticalAlign=top;shape=mxgraph.electrical.transmission.2_line_bus;rotation=30;" vertex="1" parent="1">
          <mxGeometry x="2890.001914807983" y="374.0029826198486" width="30" height="10" as="geometry" />
        </mxCell>
        <mxCell id="k3gkesRyHBmJgMEclzgZ-452" value="" style="verticalLabelPosition=bottom;shadow=0;dashed=0;align=center;html=1;verticalAlign=top;shape=mxgraph.electrical.transmission.2_line_bus;rotation=0;" vertex="1" parent="1">
          <mxGeometry x="2953" y="369" width="32.28" height="10" as="geometry" />
        </mxCell>
        <mxCell id="k3gkesRyHBmJgMEclzgZ-453" value="" style="verticalLabelPosition=bottom;shadow=0;dashed=0;align=center;html=1;verticalAlign=top;shape=mxgraph.electrical.transmission.2_line_bus;rotation=75;" vertex="1" parent="1">
          <mxGeometry x="2856.7119148079832" y="370.78298261984855" width="30" height="10" as="geometry" />
        </mxCell>
        <mxCell id="k3gkesRyHBmJgMEclzgZ-454" value="" style="endArrow=none;html=1;rounded=0;" edge="1" parent="1">
          <mxGeometry width="50" height="50" relative="1" as="geometry">
            <mxPoint x="2872" y="419" as="sourcePoint" />
            <mxPoint x="2892" y="429" as="targetPoint" />
          </mxGeometry>
        </mxCell>
        <mxCell id="k3gkesRyHBmJgMEclzgZ-455" value="" style="endArrow=none;html=1;rounded=0;" edge="1" parent="1">
          <mxGeometry width="50" height="50" relative="1" as="geometry">
            <mxPoint x="2967" y="422" as="sourcePoint" />
            <mxPoint x="2987" y="422" as="targetPoint" />
          </mxGeometry>
        </mxCell>
        <mxCell id="k3gkesRyHBmJgMEclzgZ-456" value="" style="verticalLabelPosition=bottom;shadow=0;dashed=0;align=center;html=1;verticalAlign=top;shape=mxgraph.electrical.transmission.2_line_bus;rotation=45;" vertex="1" parent="1">
          <mxGeometry x="2784.7119148079832" y="426.78298261984867" width="30" height="10" as="geometry" />
        </mxCell>
        <mxCell id="k3gkesRyHBmJgMEclzgZ-457" value="" style="endArrow=none;html=1;rounded=0;" edge="1" parent="1">
          <mxGeometry width="50" height="50" relative="1" as="geometry">
            <mxPoint x="2876" y="411" as="sourcePoint" />
            <mxPoint x="2896" y="421" as="targetPoint" />
          </mxGeometry>
        </mxCell>
        <mxCell id="k3gkesRyHBmJgMEclzgZ-458" value="" style="endArrow=none;html=1;rounded=0;" edge="1" parent="1">
          <mxGeometry width="50" height="50" relative="1" as="geometry">
            <mxPoint x="2968" y="431" as="sourcePoint" />
            <mxPoint x="2988" y="431" as="targetPoint" />
          </mxGeometry>
        </mxCell>
        <mxCell id="k3gkesRyHBmJgMEclzgZ-494" value="Виробники/маркетплейси/ аптеки" style="rounded=0;whiteSpace=wrap;html=1;" vertex="1" parent="1">
          <mxGeometry x="3766.5" y="49" width="120" height="60" as="geometry" />
        </mxCell>
        <mxCell id="k3gkesRyHBmJgMEclzgZ-495" value="Текст" style="ellipse;whiteSpace=wrap;html=1;" vertex="1" parent="1">
          <mxGeometry x="3466.5" y="199" width="90" height="60" as="geometry" />
        </mxCell>
        <mxCell id="k3gkesRyHBmJgMEclzgZ-496" value="Сертифікати" style="ellipse;whiteSpace=wrap;html=1;" vertex="1" parent="1">
          <mxGeometry x="3576.5" y="199" width="90" height="60" as="geometry" />
        </mxCell>
        <mxCell id="k3gkesRyHBmJgMEclzgZ-497" value="Відгуки" style="ellipse;whiteSpace=wrap;html=1;" vertex="1" parent="1">
          <mxGeometry x="3686.5" y="199" width="90" height="60" as="geometry" />
        </mxCell>
        <mxCell id="k3gkesRyHBmJgMEclzgZ-498" value="Тип застосування" style="ellipse;whiteSpace=wrap;html=1;" vertex="1" parent="1">
          <mxGeometry x="3816.5" y="199" width="90" height="60" as="geometry" />
        </mxCell>
        <mxCell id="k3gkesRyHBmJgMEclzgZ-499" value="Склад" style="ellipse;whiteSpace=wrap;html=1;" vertex="1" parent="1">
          <mxGeometry x="3946.5" y="199" width="90" height="60" as="geometry" />
        </mxCell>
        <mxCell id="k3gkesRyHBmJgMEclzgZ-502" value="" style="endArrow=classic;html=1;rounded=0;entryX=0.922;entryY=0.243;entryDx=0;entryDy=0;entryPerimeter=0;exitX=0.026;exitY=0.648;exitDx=0;exitDy=0;exitPerimeter=0;" edge="1" parent="1" source="k3gkesRyHBmJgMEclzgZ-503">
          <mxGeometry width="50" height="50" relative="1" as="geometry">
            <mxPoint x="3591.5" y="104" as="sourcePoint" />
            <mxPoint x="3489.5" y="134" as="targetPoint" />
          </mxGeometry>
        </mxCell>
        <mxCell id="k3gkesRyHBmJgMEclzgZ-503" value="ID-постачальника" style="text;html=1;whiteSpace=wrap;strokeColor=none;fillColor=none;align=center;verticalAlign=middle;rounded=0;" vertex="1" parent="1">
          <mxGeometry x="3591.5" y="89" width="60" height="30" as="geometry" />
        </mxCell>
        <mxCell id="k3gkesRyHBmJgMEclzgZ-504" value="" style="endArrow=classic;html=1;rounded=0;entryX=0.922;entryY=0.243;entryDx=0;entryDy=0;entryPerimeter=0;" edge="1" parent="1">
          <mxGeometry width="50" height="50" relative="1" as="geometry">
            <mxPoint x="3636.5" y="159" as="sourcePoint" />
            <mxPoint x="3532.5" y="202" as="targetPoint" />
          </mxGeometry>
        </mxCell>
        <mxCell id="k3gkesRyHBmJgMEclzgZ-505" value="Назва продукту" style="text;html=1;whiteSpace=wrap;strokeColor=none;fillColor=none;align=center;verticalAlign=middle;rounded=0;" vertex="1" parent="1">
          <mxGeometry x="3619.5" y="131" width="60" height="30" as="geometry" />
        </mxCell>
        <mxCell id="k3gkesRyHBmJgMEclzgZ-506" value="" style="endArrow=classic;html=1;rounded=0;entryX=0.922;entryY=0.243;entryDx=0;entryDy=0;entryPerimeter=0;exitX=0;exitY=0.25;exitDx=0;exitDy=0;" edge="1" parent="1" source="k3gkesRyHBmJgMEclzgZ-494">
          <mxGeometry width="50" height="50" relative="1" as="geometry">
            <mxPoint x="3756.5" y="69" as="sourcePoint" />
            <mxPoint x="3651.5" y="95" as="targetPoint" />
          </mxGeometry>
        </mxCell>
        <mxCell id="k3gkesRyHBmJgMEclzgZ-507" value="" style="endArrow=classic;html=1;rounded=0;entryX=0.922;entryY=0.243;entryDx=0;entryDy=0;entryPerimeter=0;exitX=0.02;exitY=0.876;exitDx=0;exitDy=0;exitPerimeter=0;" edge="1" parent="1" source="k3gkesRyHBmJgMEclzgZ-494">
          <mxGeometry width="50" height="50" relative="1" as="geometry">
            <mxPoint x="3776.5" y="109" as="sourcePoint" />
            <mxPoint x="3676.5" y="140" as="targetPoint" />
          </mxGeometry>
        </mxCell>
        <mxCell id="k3gkesRyHBmJgMEclzgZ-508" value="" style="endArrow=classic;html=1;rounded=0;exitX=0.101;exitY=0.995;exitDx=0;exitDy=0;exitPerimeter=0;entryX=0.794;entryY=0.138;entryDx=0;entryDy=0;entryPerimeter=0;" edge="1" parent="1" source="k3gkesRyHBmJgMEclzgZ-494" target="k3gkesRyHBmJgMEclzgZ-496">
          <mxGeometry width="50" height="50" relative="1" as="geometry">
            <mxPoint x="3776.5" y="149" as="sourcePoint" />
            <mxPoint x="3826.5" y="99" as="targetPoint" />
          </mxGeometry>
        </mxCell>
        <mxCell id="k3gkesRyHBmJgMEclzgZ-509" value="Тестування" style="edgeLabel;html=1;align=center;verticalAlign=middle;resizable=0;points=[];" vertex="1" connectable="0" parent="k3gkesRyHBmJgMEclzgZ-508">
          <mxGeometry x="0.0667" relative="1" as="geometry">
            <mxPoint x="-2" y="4" as="offset" />
          </mxGeometry>
        </mxCell>
        <mxCell id="k3gkesRyHBmJgMEclzgZ-510" value="" style="endArrow=classic;html=1;rounded=0;exitX=0.25;exitY=1;exitDx=0;exitDy=0;entryX=0.706;entryY=-0.005;entryDx=0;entryDy=0;entryPerimeter=0;" edge="1" parent="1" source="k3gkesRyHBmJgMEclzgZ-494" target="k3gkesRyHBmJgMEclzgZ-497">
          <mxGeometry width="50" height="50" relative="1" as="geometry">
            <mxPoint x="3762.5" y="199" as="sourcePoint" />
            <mxPoint x="3646.5" y="297" as="targetPoint" />
          </mxGeometry>
        </mxCell>
        <mxCell id="k3gkesRyHBmJgMEclzgZ-511" value="Користувацький&amp;nbsp;&lt;div&gt;досвід&lt;/div&gt;" style="edgeLabel;html=1;align=center;verticalAlign=middle;resizable=0;points=[];" vertex="1" connectable="0" parent="k3gkesRyHBmJgMEclzgZ-510">
          <mxGeometry x="0.0186" y="-1" relative="1" as="geometry">
            <mxPoint x="12" y="3" as="offset" />
          </mxGeometry>
        </mxCell>
        <mxCell id="k3gkesRyHBmJgMEclzgZ-512" value="" style="endArrow=classic;html=1;rounded=0;exitX=0.637;exitY=0.995;exitDx=0;exitDy=0;exitPerimeter=0;" edge="1" parent="1" source="k3gkesRyHBmJgMEclzgZ-494" target="k3gkesRyHBmJgMEclzgZ-498">
          <mxGeometry width="50" height="50" relative="1" as="geometry">
            <mxPoint x="3777.5" y="189" as="sourcePoint" />
            <mxPoint x="3746.5" y="279" as="targetPoint" />
          </mxGeometry>
        </mxCell>
        <mxCell id="k3gkesRyHBmJgMEclzgZ-513" value="Категорія" style="edgeLabel;html=1;align=center;verticalAlign=middle;resizable=0;points=[];" vertex="1" connectable="0" parent="k3gkesRyHBmJgMEclzgZ-512">
          <mxGeometry x="-0.0552" relative="1" as="geometry">
            <mxPoint x="5" as="offset" />
          </mxGeometry>
        </mxCell>
        <mxCell id="k3gkesRyHBmJgMEclzgZ-514" value="" style="endArrow=classic;html=1;rounded=0;exitX=0.958;exitY=0.99;exitDx=0;exitDy=0;exitPerimeter=0;entryX=0.31;entryY=0.078;entryDx=0;entryDy=0;entryPerimeter=0;" edge="1" parent="1" source="k3gkesRyHBmJgMEclzgZ-494" target="k3gkesRyHBmJgMEclzgZ-499">
          <mxGeometry width="50" height="50" relative="1" as="geometry">
            <mxPoint x="3957.5" y="199" as="sourcePoint" />
            <mxPoint x="4029.5" y="208" as="targetPoint" />
          </mxGeometry>
        </mxCell>
        <mxCell id="k3gkesRyHBmJgMEclzgZ-515" value="Компоненти" style="edgeLabel;html=1;align=center;verticalAlign=middle;resizable=0;points=[];" vertex="1" connectable="0" parent="k3gkesRyHBmJgMEclzgZ-514">
          <mxGeometry x="0.0709" y="-3" relative="1" as="geometry">
            <mxPoint as="offset" />
          </mxGeometry>
        </mxCell>
        <mxCell id="k3gkesRyHBmJgMEclzgZ-520" value="" style="verticalLabelPosition=bottom;shadow=0;dashed=0;align=center;html=1;verticalAlign=top;shape=mxgraph.electrical.transmission.2_line_bus;rotation=75;" vertex="1" parent="1">
          <mxGeometry x="3697.5" y="76" width="30" height="10" as="geometry" />
        </mxCell>
        <mxCell id="k3gkesRyHBmJgMEclzgZ-521" value="" style="verticalLabelPosition=bottom;shadow=0;dashed=0;align=center;html=1;verticalAlign=top;shape=mxgraph.electrical.transmission.2_line_bus;rotation=75;" vertex="1" parent="1">
          <mxGeometry x="3526.5" y="119" width="30" height="10" as="geometry" />
        </mxCell>
        <mxCell id="k3gkesRyHBmJgMEclzgZ-522" value="" style="verticalLabelPosition=bottom;shadow=0;dashed=0;align=center;html=1;verticalAlign=top;shape=mxgraph.electrical.transmission.2_line_bus;rotation=75;" vertex="1" parent="1">
          <mxGeometry x="3572.501914807983" y="172.00298261984864" width="30" height="10" as="geometry" />
        </mxCell>
        <mxCell id="k3gkesRyHBmJgMEclzgZ-523" value="" style="verticalLabelPosition=bottom;shadow=0;dashed=0;align=center;html=1;verticalAlign=top;shape=mxgraph.electrical.transmission.2_line_bus;rotation=75;" vertex="1" parent="1">
          <mxGeometry x="3713.501914807983" y="115.00298261984858" width="30" height="10" as="geometry" />
        </mxCell>
        <mxCell id="k3gkesRyHBmJgMEclzgZ-526" value="" style="verticalLabelPosition=bottom;shadow=0;dashed=0;align=center;html=1;verticalAlign=top;shape=mxgraph.electrical.transmission.2_line_bus;rotation=30;" vertex="1" parent="1">
          <mxGeometry x="3766.501914807983" y="129.00298261984864" width="30" height="10" as="geometry" />
        </mxCell>
        <mxCell id="k3gkesRyHBmJgMEclzgZ-527" value="" style="verticalLabelPosition=bottom;shadow=0;dashed=0;align=center;html=1;verticalAlign=top;shape=mxgraph.electrical.transmission.2_line_bus;rotation=0;" vertex="1" parent="1">
          <mxGeometry x="3829.5" y="124" width="32.28" height="10" as="geometry" />
        </mxCell>
        <mxCell id="k3gkesRyHBmJgMEclzgZ-528" value="" style="verticalLabelPosition=bottom;shadow=0;dashed=0;align=center;html=1;verticalAlign=top;shape=mxgraph.electrical.transmission.2_line_bus;rotation=75;" vertex="1" parent="1">
          <mxGeometry x="3733.2119148079832" y="125.78298261984861" width="30" height="10" as="geometry" />
        </mxCell>
        <mxCell id="k3gkesRyHBmJgMEclzgZ-529" value="" style="endArrow=none;html=1;rounded=0;" edge="1" parent="1">
          <mxGeometry width="50" height="50" relative="1" as="geometry">
            <mxPoint x="3748.5" y="174" as="sourcePoint" />
            <mxPoint x="3768.5" y="184" as="targetPoint" />
          </mxGeometry>
        </mxCell>
        <mxCell id="k3gkesRyHBmJgMEclzgZ-530" value="" style="endArrow=none;html=1;rounded=0;" edge="1" parent="1">
          <mxGeometry width="50" height="50" relative="1" as="geometry">
            <mxPoint x="3661.5" y="184" as="sourcePoint" />
            <mxPoint x="3681.5" y="194" as="targetPoint" />
          </mxGeometry>
        </mxCell>
        <mxCell id="k3gkesRyHBmJgMEclzgZ-531" value="" style="endArrow=none;html=1;rounded=0;" edge="1" parent="1">
          <mxGeometry width="50" height="50" relative="1" as="geometry">
            <mxPoint x="3843.5" y="179" as="sourcePoint" />
            <mxPoint x="3863.5" y="179" as="targetPoint" />
          </mxGeometry>
        </mxCell>
        <mxCell id="k3gkesRyHBmJgMEclzgZ-533" value="" style="endArrow=none;html=1;rounded=0;" edge="1" parent="1">
          <mxGeometry width="50" height="50" relative="1" as="geometry">
            <mxPoint x="3889.5" y="132" as="sourcePoint" />
            <mxPoint x="3909.5" y="122" as="targetPoint" />
          </mxGeometry>
        </mxCell>
        <mxCell id="k3gkesRyHBmJgMEclzgZ-536" value="&lt;table&gt;&lt;tbody&gt;&lt;tr&gt;&lt;td data-col-size=&quot;sm&quot; data-end=&quot;980&quot; data-start=&quot;967&quot;&gt;&lt;strong data-end=&quot;979&quot; data-start=&quot;969&quot;&gt;&lt;/strong&gt;&lt;/td&gt;&lt;/tr&gt;&lt;/tbody&gt;&lt;/table&gt;&lt;table&gt;&lt;tbody&gt;&lt;tr&gt;&lt;td data-col-size=&quot;sm&quot; data-end=&quot;1000&quot; data-start=&quot;980&quot;&gt;ID&lt;/td&gt;&lt;/tr&gt;&lt;/tbody&gt;&lt;/table&gt;" style="ellipse;whiteSpace=wrap;html=1;" vertex="1" parent="1">
          <mxGeometry x="3409.5" y="122" width="90" height="60" as="geometry" />
        </mxCell>
        <mxCell id="k3gkesRyHBmJgMEclzgZ-538" value="" style="endArrow=none;html=1;rounded=0;" edge="1" parent="1">
          <mxGeometry width="50" height="50" relative="1" as="geometry">
            <mxPoint x="3945.5" y="189" as="sourcePoint" />
            <mxPoint x="3965.5" y="179" as="targetPoint" />
          </mxGeometry>
        </mxCell>
        <mxCell id="k3gkesRyHBmJgMEclzgZ-539" value="АІ модель" style="rounded=0;whiteSpace=wrap;html=1;" vertex="1" parent="1">
          <mxGeometry x="2930" y="913.5" width="120" height="60" as="geometry" />
        </mxCell>
        <mxCell id="k3gkesRyHBmJgMEclzgZ-540" value="ID" style="ellipse;whiteSpace=wrap;html=1;" vertex="1" parent="1">
          <mxGeometry x="2570" y="983.5" width="90" height="60" as="geometry" />
        </mxCell>
        <mxCell id="k3gkesRyHBmJgMEclzgZ-541" value="Призначення" style="ellipse;whiteSpace=wrap;html=1;" vertex="1" parent="1">
          <mxGeometry x="2630" y="1063.5" width="90" height="60" as="geometry" />
        </mxCell>
        <mxCell id="k3gkesRyHBmJgMEclzgZ-542" value="Дати" style="ellipse;whiteSpace=wrap;html=1;" vertex="1" parent="1">
          <mxGeometry x="2740" y="1063.5" width="90" height="60" as="geometry" />
        </mxCell>
        <mxCell id="k3gkesRyHBmJgMEclzgZ-543" value="Статус" style="ellipse;whiteSpace=wrap;html=1;" vertex="1" parent="1">
          <mxGeometry x="2850" y="1063.5" width="90" height="60" as="geometry" />
        </mxCell>
        <mxCell id="k3gkesRyHBmJgMEclzgZ-544" value="Продукти" style="ellipse;whiteSpace=wrap;html=1;" vertex="1" parent="1">
          <mxGeometry x="2980" y="1063.5" width="90" height="60" as="geometry" />
        </mxCell>
        <mxCell id="k3gkesRyHBmJgMEclzgZ-545" value="Час викоритсання" style="ellipse;whiteSpace=wrap;html=1;" vertex="1" parent="1">
          <mxGeometry x="3110" y="1063.5" width="90" height="65" as="geometry" />
        </mxCell>
        <mxCell id="k3gkesRyHBmJgMEclzgZ-547" value="" style="endArrow=classic;html=1;rounded=0;entryX=0.922;entryY=0.243;entryDx=0;entryDy=0;entryPerimeter=0;exitX=0.026;exitY=0.648;exitDx=0;exitDy=0;exitPerimeter=0;" edge="1" parent="1" source="k3gkesRyHBmJgMEclzgZ-548" target="k3gkesRyHBmJgMEclzgZ-540">
          <mxGeometry width="50" height="50" relative="1" as="geometry">
            <mxPoint x="2755" y="968.5" as="sourcePoint" />
            <mxPoint x="2820" y="953.5" as="targetPoint" />
          </mxGeometry>
        </mxCell>
        <mxCell id="k3gkesRyHBmJgMEclzgZ-548" value="ID-моделі" style="text;html=1;whiteSpace=wrap;strokeColor=none;fillColor=none;align=center;verticalAlign=middle;rounded=0;" vertex="1" parent="1">
          <mxGeometry x="2755" y="953.5" width="60" height="30" as="geometry" />
        </mxCell>
        <mxCell id="k3gkesRyHBmJgMEclzgZ-549" value="" style="endArrow=classic;html=1;rounded=0;entryX=0.922;entryY=0.243;entryDx=0;entryDy=0;entryPerimeter=0;" edge="1" parent="1">
          <mxGeometry width="50" height="50" relative="1" as="geometry">
            <mxPoint x="2800" y="1023.5" as="sourcePoint" />
            <mxPoint x="2696" y="1066.5" as="targetPoint" />
          </mxGeometry>
        </mxCell>
        <mxCell id="k3gkesRyHBmJgMEclzgZ-550" value="Мета застосування" style="text;html=1;whiteSpace=wrap;strokeColor=none;fillColor=none;align=center;verticalAlign=middle;rounded=0;" vertex="1" parent="1">
          <mxGeometry x="2783" y="996.5" width="60" height="30" as="geometry" />
        </mxCell>
        <mxCell id="k3gkesRyHBmJgMEclzgZ-551" value="" style="endArrow=classic;html=1;rounded=0;entryX=0.922;entryY=0.243;entryDx=0;entryDy=0;entryPerimeter=0;exitX=0;exitY=0.25;exitDx=0;exitDy=0;" edge="1" parent="1" source="k3gkesRyHBmJgMEclzgZ-539">
          <mxGeometry width="50" height="50" relative="1" as="geometry">
            <mxPoint x="2920" y="933.5" as="sourcePoint" />
            <mxPoint x="2815" y="959.5" as="targetPoint" />
          </mxGeometry>
        </mxCell>
        <mxCell id="k3gkesRyHBmJgMEclzgZ-552" value="" style="endArrow=classic;html=1;rounded=0;entryX=0.922;entryY=0.243;entryDx=0;entryDy=0;entryPerimeter=0;exitX=0.02;exitY=0.876;exitDx=0;exitDy=0;exitPerimeter=0;" edge="1" parent="1" source="k3gkesRyHBmJgMEclzgZ-539">
          <mxGeometry width="50" height="50" relative="1" as="geometry">
            <mxPoint x="2940" y="973.5" as="sourcePoint" />
            <mxPoint x="2840" y="1004.5" as="targetPoint" />
          </mxGeometry>
        </mxCell>
        <mxCell id="k3gkesRyHBmJgMEclzgZ-553" value="" style="endArrow=classic;html=1;rounded=0;exitX=0.101;exitY=0.995;exitDx=0;exitDy=0;exitPerimeter=0;entryX=0.794;entryY=0.138;entryDx=0;entryDy=0;entryPerimeter=0;" edge="1" parent="1" source="k3gkesRyHBmJgMEclzgZ-539" target="k3gkesRyHBmJgMEclzgZ-542">
          <mxGeometry width="50" height="50" relative="1" as="geometry">
            <mxPoint x="2940" y="1013.5" as="sourcePoint" />
            <mxPoint x="2990" y="963.5" as="targetPoint" />
          </mxGeometry>
        </mxCell>
        <mxCell id="k3gkesRyHBmJgMEclzgZ-554" value="Дата&amp;nbsp;&lt;div&gt;підбору&lt;/div&gt;" style="edgeLabel;html=1;align=center;verticalAlign=middle;resizable=0;points=[];" vertex="1" connectable="0" parent="k3gkesRyHBmJgMEclzgZ-553">
          <mxGeometry x="0.0667" relative="1" as="geometry">
            <mxPoint y="-1" as="offset" />
          </mxGeometry>
        </mxCell>
        <mxCell id="k3gkesRyHBmJgMEclzgZ-555" value="" style="endArrow=classic;html=1;rounded=0;exitX=0.25;exitY=1;exitDx=0;exitDy=0;entryX=0.706;entryY=-0.005;entryDx=0;entryDy=0;entryPerimeter=0;" edge="1" parent="1" source="k3gkesRyHBmJgMEclzgZ-539" target="k3gkesRyHBmJgMEclzgZ-543">
          <mxGeometry width="50" height="50" relative="1" as="geometry">
            <mxPoint x="2926" y="1063.5" as="sourcePoint" />
            <mxPoint x="2810" y="1161.5" as="targetPoint" />
          </mxGeometry>
        </mxCell>
        <mxCell id="k3gkesRyHBmJgMEclzgZ-556" value="емеїл" style="edgeLabel;html=1;align=center;verticalAlign=middle;resizable=0;points=[];" vertex="1" connectable="0" parent="k3gkesRyHBmJgMEclzgZ-555">
          <mxGeometry x="0.0186" y="-1" relative="1" as="geometry">
            <mxPoint as="offset" />
          </mxGeometry>
        </mxCell>
        <mxCell id="k3gkesRyHBmJgMEclzgZ-557" value="" style="endArrow=classic;html=1;rounded=0;exitX=0.637;exitY=0.995;exitDx=0;exitDy=0;exitPerimeter=0;" edge="1" parent="1" source="k3gkesRyHBmJgMEclzgZ-539" target="k3gkesRyHBmJgMEclzgZ-544">
          <mxGeometry width="50" height="50" relative="1" as="geometry">
            <mxPoint x="2941" y="1053.5" as="sourcePoint" />
            <mxPoint x="2910" y="1143.5" as="targetPoint" />
          </mxGeometry>
        </mxCell>
        <mxCell id="k3gkesRyHBmJgMEclzgZ-558" value="Засоби" style="edgeLabel;html=1;align=center;verticalAlign=middle;resizable=0;points=[];" vertex="1" connectable="0" parent="k3gkesRyHBmJgMEclzgZ-557">
          <mxGeometry x="-0.0552" relative="1" as="geometry">
            <mxPoint as="offset" />
          </mxGeometry>
        </mxCell>
        <mxCell id="k3gkesRyHBmJgMEclzgZ-559" value="" style="endArrow=classic;html=1;rounded=0;exitX=0.958;exitY=0.99;exitDx=0;exitDy=0;exitPerimeter=0;entryX=0.31;entryY=0.078;entryDx=0;entryDy=0;entryPerimeter=0;" edge="1" parent="1" source="k3gkesRyHBmJgMEclzgZ-539" target="k3gkesRyHBmJgMEclzgZ-545">
          <mxGeometry width="50" height="50" relative="1" as="geometry">
            <mxPoint x="3121" y="1063.5" as="sourcePoint" />
            <mxPoint x="3193" y="1072.5" as="targetPoint" />
          </mxGeometry>
        </mxCell>
        <mxCell id="k3gkesRyHBmJgMEclzgZ-560" value="Час" style="edgeLabel;html=1;align=center;verticalAlign=middle;resizable=0;points=[];" vertex="1" connectable="0" parent="k3gkesRyHBmJgMEclzgZ-559">
          <mxGeometry x="0.0709" y="-3" relative="1" as="geometry">
            <mxPoint as="offset" />
          </mxGeometry>
        </mxCell>
        <mxCell id="k3gkesRyHBmJgMEclzgZ-563" value="" style="verticalLabelPosition=bottom;shadow=0;dashed=0;align=center;html=1;verticalAlign=top;shape=mxgraph.electrical.transmission.2_line_bus;rotation=75;" vertex="1" parent="1">
          <mxGeometry x="2861" y="940.5" width="30" height="10" as="geometry" />
        </mxCell>
        <mxCell id="k3gkesRyHBmJgMEclzgZ-564" value="" style="verticalLabelPosition=bottom;shadow=0;dashed=0;align=center;html=1;verticalAlign=top;shape=mxgraph.electrical.transmission.2_line_bus;rotation=75;" vertex="1" parent="1">
          <mxGeometry x="2690" y="983.5" width="30" height="10" as="geometry" />
        </mxCell>
        <mxCell id="k3gkesRyHBmJgMEclzgZ-566" value="" style="verticalLabelPosition=bottom;shadow=0;dashed=0;align=center;html=1;verticalAlign=top;shape=mxgraph.electrical.transmission.2_line_bus;rotation=75;" vertex="1" parent="1">
          <mxGeometry x="2877.0019148079828" y="979.5029826198486" width="30" height="10" as="geometry" />
        </mxCell>
        <mxCell id="k3gkesRyHBmJgMEclzgZ-568" value="" style="verticalLabelPosition=bottom;shadow=0;dashed=0;align=center;html=1;verticalAlign=top;shape=mxgraph.electrical.transmission.2_line_bus;rotation=0;" vertex="1" parent="1">
          <mxGeometry x="3050" y="989.5" width="30" height="10" as="geometry" />
        </mxCell>
        <mxCell id="k3gkesRyHBmJgMEclzgZ-569" value="" style="verticalLabelPosition=bottom;shadow=0;dashed=0;align=center;html=1;verticalAlign=top;shape=mxgraph.electrical.transmission.2_line_bus;rotation=30;" vertex="1" parent="1">
          <mxGeometry x="2930.0019148079828" y="993.5029826198486" width="30" height="10" as="geometry" />
        </mxCell>
        <mxCell id="k3gkesRyHBmJgMEclzgZ-570" value="" style="verticalLabelPosition=bottom;shadow=0;dashed=0;align=center;html=1;verticalAlign=top;shape=mxgraph.electrical.transmission.2_line_bus;rotation=0;" vertex="1" parent="1">
          <mxGeometry x="2993" y="988.5" width="32.28" height="10" as="geometry" />
        </mxCell>
        <mxCell id="k3gkesRyHBmJgMEclzgZ-571" value="" style="verticalLabelPosition=bottom;shadow=0;dashed=0;align=center;html=1;verticalAlign=top;shape=mxgraph.electrical.transmission.2_line_bus;rotation=75;" vertex="1" parent="1">
          <mxGeometry x="2896.7119148079837" y="990.2829826198486" width="30" height="10" as="geometry" />
        </mxCell>
        <mxCell id="k3gkesRyHBmJgMEclzgZ-572" value="" style="endArrow=none;html=1;rounded=0;" edge="1" parent="1">
          <mxGeometry width="50" height="50" relative="1" as="geometry">
            <mxPoint x="2912" y="1038.5" as="sourcePoint" />
            <mxPoint x="2932" y="1048.5" as="targetPoint" />
          </mxGeometry>
        </mxCell>
        <mxCell id="k3gkesRyHBmJgMEclzgZ-573" value="" style="endArrow=none;html=1;rounded=0;" edge="1" parent="1">
          <mxGeometry width="50" height="50" relative="1" as="geometry">
            <mxPoint x="3007" y="1041.5" as="sourcePoint" />
            <mxPoint x="3027" y="1041.5" as="targetPoint" />
          </mxGeometry>
        </mxCell>
        <mxCell id="k3gkesRyHBmJgMEclzgZ-577" value="" style="endArrow=none;html=1;rounded=0;" edge="1" parent="1">
          <mxGeometry width="50" height="50" relative="1" as="geometry">
            <mxPoint x="2916" y="1030.5" as="sourcePoint" />
            <mxPoint x="2936" y="1040.5" as="targetPoint" />
          </mxGeometry>
        </mxCell>
        <mxCell id="k3gkesRyHBmJgMEclzgZ-581" value="" style="endArrow=none;html=1;rounded=0;" edge="1" parent="1">
          <mxGeometry width="50" height="50" relative="1" as="geometry">
            <mxPoint x="2738" y="1062.5" as="sourcePoint" />
            <mxPoint x="2728" y="1032.5" as="targetPoint" />
          </mxGeometry>
        </mxCell>
        <mxCell id="k3gkesRyHBmJgMEclzgZ-582" value="" style="endArrow=none;html=1;rounded=0;" edge="1" parent="1">
          <mxGeometry width="50" height="50" relative="1" as="geometry">
            <mxPoint x="2843" y="1064.5" as="sourcePoint" />
            <mxPoint x="2823" y="1044.5" as="targetPoint" />
          </mxGeometry>
        </mxCell>
        <mxCell id="k3gkesRyHBmJgMEclzgZ-584" value="" style="endArrow=none;html=1;rounded=0;" edge="1" parent="1">
          <mxGeometry width="50" height="50" relative="1" as="geometry">
            <mxPoint x="3105" y="1048.5" as="sourcePoint" />
            <mxPoint x="3125" y="1038.5" as="targetPoint" />
          </mxGeometry>
        </mxCell>
        <mxCell id="k3gkesRyHBmJgMEclzgZ-586" value="Бренд" style="endArrow=classic;html=1;rounded=0;exitX=0.639;exitY=1.028;exitDx=0;exitDy=0;exitPerimeter=0;entryX=0.078;entryY=0.283;entryDx=0;entryDy=0;entryPerimeter=0;" edge="1" parent="1" source="k3gkesRyHBmJgMEclzgZ-297" target="k3gkesRyHBmJgMEclzgZ-224">
          <mxGeometry width="50" height="50" relative="1" as="geometry">
            <mxPoint x="3720" y="700" as="sourcePoint" />
            <mxPoint x="3770" y="650" as="targetPoint" />
            <Array as="points">
              <mxPoint x="3750" y="460" />
            </Array>
          </mxGeometry>
        </mxCell>
        <mxCell id="k3gkesRyHBmJgMEclzgZ-587" value="" style="endArrow=classic;html=1;rounded=0;exitX=0.899;exitY=1.017;exitDx=0;exitDy=0;exitPerimeter=0;entryX=0.273;entryY=0.086;entryDx=0;entryDy=0;entryPerimeter=0;" edge="1" parent="1">
          <mxGeometry width="50" height="50" relative="1" as="geometry">
            <mxPoint x="3722" y="390" as="sourcePoint" />
            <mxPoint x="3853.1899999999996" y="487.14" as="targetPoint" />
          </mxGeometry>
        </mxCell>
        <mxCell id="k3gkesRyHBmJgMEclzgZ-588" value="Формат&amp;nbsp;&lt;div&gt;продукту&lt;/div&gt;" style="edgeLabel;html=1;align=center;verticalAlign=middle;resizable=0;points=[];" vertex="1" connectable="0" parent="k3gkesRyHBmJgMEclzgZ-587">
          <mxGeometry x="-0.1316" y="2" relative="1" as="geometry">
            <mxPoint as="offset" />
          </mxGeometry>
        </mxCell>
        <mxCell id="k3gkesRyHBmJgMEclzgZ-589" value="" style="endArrow=classic;html=1;rounded=0;exitX=1.005;exitY=0.848;exitDx=0;exitDy=0;exitPerimeter=0;entryX=0.794;entryY=0.095;entryDx=0;entryDy=0;entryPerimeter=0;" edge="1" parent="1" source="k3gkesRyHBmJgMEclzgZ-297" target="k3gkesRyHBmJgMEclzgZ-224">
          <mxGeometry width="50" height="50" relative="1" as="geometry">
            <mxPoint x="3850" y="440" as="sourcePoint" />
            <mxPoint x="3900" y="390" as="targetPoint" />
            <Array as="points">
              <mxPoint x="3830" y="390" />
            </Array>
          </mxGeometry>
        </mxCell>
        <mxCell id="k3gkesRyHBmJgMEclzgZ-591" value="Мета&amp;nbsp;&lt;div&gt;застосування&lt;/div&gt;" style="edgeLabel;html=1;align=center;verticalAlign=middle;resizable=0;points=[];" vertex="1" connectable="0" parent="k3gkesRyHBmJgMEclzgZ-589">
          <mxGeometry x="0.0738" y="2" relative="1" as="geometry">
            <mxPoint as="offset" />
          </mxGeometry>
        </mxCell>
        <mxCell id="k3gkesRyHBmJgMEclzgZ-592" value="" style="endArrow=classic;html=1;rounded=0;exitX=0;exitY=0.5;exitDx=0;exitDy=0;entryX=0.5;entryY=0;entryDx=0;entryDy=0;" edge="1" parent="1" source="k3gkesRyHBmJgMEclzgZ-297" target="k3gkesRyHBmJgMEclzgZ-215">
          <mxGeometry width="50" height="50" relative="1" as="geometry">
            <mxPoint x="3480" y="460" as="sourcePoint" />
            <mxPoint x="3530" y="410" as="targetPoint" />
          </mxGeometry>
        </mxCell>
        <mxCell id="k3gkesRyHBmJgMEclzgZ-596" value="Характеристика" style="edgeLabel;html=1;align=center;verticalAlign=middle;resizable=0;points=[];" vertex="1" connectable="0" parent="k3gkesRyHBmJgMEclzgZ-592">
          <mxGeometry x="0.0245" relative="1" as="geometry">
            <mxPoint as="offset" />
          </mxGeometry>
        </mxCell>
        <mxCell id="k3gkesRyHBmJgMEclzgZ-593" value="" style="endArrow=classic;html=1;rounded=0;exitX=0;exitY=0.75;exitDx=0;exitDy=0;entryX=0.615;entryY=0.024;entryDx=0;entryDy=0;entryPerimeter=0;" edge="1" parent="1" source="k3gkesRyHBmJgMEclzgZ-297" target="k3gkesRyHBmJgMEclzgZ-220">
          <mxGeometry width="50" height="50" relative="1" as="geometry">
            <mxPoint x="3530" y="480" as="sourcePoint" />
            <mxPoint x="3580" y="430" as="targetPoint" />
          </mxGeometry>
        </mxCell>
        <mxCell id="k3gkesRyHBmJgMEclzgZ-594" value="" style="endArrow=classic;html=1;rounded=0;exitX=0.196;exitY=1.017;exitDx=0;exitDy=0;exitPerimeter=0;entryX=0.5;entryY=0;entryDx=0;entryDy=0;" edge="1" parent="1" source="k3gkesRyHBmJgMEclzgZ-297" target="k3gkesRyHBmJgMEclzgZ-221">
          <mxGeometry width="50" height="50" relative="1" as="geometry">
            <mxPoint x="3620" y="470" as="sourcePoint" />
            <mxPoint x="3670" y="420" as="targetPoint" />
          </mxGeometry>
        </mxCell>
        <mxCell id="k3gkesRyHBmJgMEclzgZ-598" value="&lt;span style=&quot;color: rgba(0, 0, 0, 0); font-family: monospace; font-size: 0px; text-align: start; background-color: rgb(236, 236, 236);&quot;&gt;Осо%3CmxGraphModel%3E%3Croot%3E%3CmxCell%20id%3D%220%22%2F%3E%3CmxCell%20id%3D%221%22%20parent%3D%220%22%2F%3E%3CmxCell%20id%3D%222%22%20value%3D%22%D0%A5%D0%B0%D1%80%D0%B0%D0%BA%D1%82%D0%B5%D1%80%D0%B8%D1%81%D1%82%D0%B8%D0%BA%D0%B0%22%20style%3D%22edgeLabel%3Bhtml%3D1%3Balign%3Dcenter%3BverticalAlign%3Dmiddle%3Bresizable%3D0%3Bpoints%3D%5B%5D%3B%22%20vertex%3D%221%22%20connectable%3D%220%22%20parent%3D%221%22%3E%3CmxGeometry%20x%3D%223495.189371962083%22%20y%3D%22419.2603425661364%22%20as%3D%22geometry%22%2F%3E%3C%2FmxCell%3E%3C%2Froot%3E%3C%2FmxGraphModel%3E&lt;/span&gt;" style="edgeLabel;html=1;align=center;verticalAlign=middle;resizable=0;points=[];" vertex="1" connectable="0" parent="k3gkesRyHBmJgMEclzgZ-594">
          <mxGeometry x="-0.2405" y="1" relative="1" as="geometry">
            <mxPoint as="offset" />
          </mxGeometry>
        </mxCell>
        <mxCell id="k3gkesRyHBmJgMEclzgZ-595" value="" style="endArrow=classic;html=1;rounded=0;exitX=0.5;exitY=1;exitDx=0;exitDy=0;entryX=0.269;entryY=0.117;entryDx=0;entryDy=0;entryPerimeter=0;" edge="1" parent="1" source="k3gkesRyHBmJgMEclzgZ-297" target="k3gkesRyHBmJgMEclzgZ-222">
          <mxGeometry width="50" height="50" relative="1" as="geometry">
            <mxPoint x="3660" y="490" as="sourcePoint" />
            <mxPoint x="3710" y="440" as="targetPoint" />
          </mxGeometry>
        </mxCell>
        <mxCell id="k3gkesRyHBmJgMEclzgZ-600" value="Аналізи" style="edgeLabel;html=1;align=center;verticalAlign=middle;resizable=0;points=[];" vertex="1" connectable="0" parent="k3gkesRyHBmJgMEclzgZ-595">
          <mxGeometry x="-0.1595" y="-1" relative="1" as="geometry">
            <mxPoint as="offset" />
          </mxGeometry>
        </mxCell>
        <mxCell id="k3gkesRyHBmJgMEclzgZ-597" value="Характеристика" style="edgeLabel;html=1;align=center;verticalAlign=middle;resizable=0;points=[];" vertex="1" connectable="0" parent="1">
          <mxGeometry x="3548" y="440" as="geometry" />
        </mxCell>
        <mxCell id="k3gkesRyHBmJgMEclzgZ-599" value="Характеристика" style="edgeLabel;html=1;align=center;verticalAlign=middle;resizable=0;points=[];" vertex="1" connectable="0" parent="1">
          <mxGeometry x="3615" y="426" as="geometry" />
        </mxCell>
        <mxCell id="k3gkesRyHBmJgMEclzgZ-604" value="" style="endArrow=none;html=1;rounded=0;" edge="1" parent="1">
          <mxGeometry width="50" height="50" relative="1" as="geometry">
            <mxPoint x="3426" y="447" as="sourcePoint" />
            <mxPoint x="3446" y="457" as="targetPoint" />
          </mxGeometry>
        </mxCell>
        <mxCell id="k3gkesRyHBmJgMEclzgZ-606" value="" style="endArrow=none;html=1;rounded=0;" edge="1" parent="1">
          <mxGeometry width="50" height="50" relative="1" as="geometry">
            <mxPoint x="3518" y="455" as="sourcePoint" />
            <mxPoint x="3538" y="465" as="targetPoint" />
          </mxGeometry>
        </mxCell>
        <mxCell id="k3gkesRyHBmJgMEclzgZ-607" value="" style="endArrow=none;html=1;rounded=0;" edge="1" parent="1">
          <mxGeometry width="50" height="50" relative="1" as="geometry">
            <mxPoint x="3872" y="434" as="sourcePoint" />
            <mxPoint x="3852" y="454" as="targetPoint" />
          </mxGeometry>
        </mxCell>
        <mxCell id="k3gkesRyHBmJgMEclzgZ-609" value="" style="endArrow=none;html=1;rounded=0;" edge="1" parent="1">
          <mxGeometry width="50" height="50" relative="1" as="geometry">
            <mxPoint x="3765" y="368" as="sourcePoint" />
            <mxPoint x="3765" y="398" as="targetPoint" />
          </mxGeometry>
        </mxCell>
        <mxCell id="k3gkesRyHBmJgMEclzgZ-610" value="" style="endArrow=none;html=1;rounded=0;" edge="1" parent="1">
          <mxGeometry width="50" height="50" relative="1" as="geometry">
            <mxPoint x="3530" y="387" as="sourcePoint" />
            <mxPoint x="3550" y="397" as="targetPoint" />
          </mxGeometry>
        </mxCell>
        <mxCell id="k3gkesRyHBmJgMEclzgZ-611" value="" style="endArrow=none;html=1;rounded=0;" edge="1" parent="1">
          <mxGeometry width="50" height="50" relative="1" as="geometry">
            <mxPoint x="3552" y="412" as="sourcePoint" />
            <mxPoint x="3572" y="422" as="targetPoint" />
          </mxGeometry>
        </mxCell>
        <mxCell id="k3gkesRyHBmJgMEclzgZ-612" value="" style="endArrow=classic;html=1;rounded=0;exitX=0.5;exitY=1;exitDx=0;exitDy=0;entryX=0.5;entryY=0;entryDx=0;entryDy=0;" edge="1" parent="1" target="k3gkesRyHBmJgMEclzgZ-614">
          <mxGeometry width="50" height="50" relative="1" as="geometry">
            <mxPoint x="3662" y="391" as="sourcePoint" />
            <mxPoint x="3672" y="416" as="targetPoint" />
          </mxGeometry>
        </mxCell>
        <mxCell id="k3gkesRyHBmJgMEclzgZ-614" value="" style="ellipse;whiteSpace=wrap;html=1;aspect=fixed;" vertex="1" parent="1">
          <mxGeometry x="3664.5" y="407" width="10" height="10" as="geometry" />
        </mxCell>
        <mxCell id="k3gkesRyHBmJgMEclzgZ-615" value="" style="endArrow=classic;html=1;rounded=0;exitX=1;exitY=1;exitDx=0;exitDy=0;" edge="1" parent="1" source="k3gkesRyHBmJgMEclzgZ-614">
          <mxGeometry width="50" height="50" relative="1" as="geometry">
            <mxPoint x="3640" y="470" as="sourcePoint" />
            <mxPoint x="3680" y="430" as="targetPoint" />
          </mxGeometry>
        </mxCell>
        <mxCell id="k3gkesRyHBmJgMEclzgZ-617" value="" style="endArrow=classic;html=1;rounded=0;exitX=0.639;exitY=1.052;exitDx=0;exitDy=0;exitPerimeter=0;" edge="1" parent="1">
          <mxGeometry width="50" height="50" relative="1" as="geometry">
            <mxPoint x="3679.6800000000003" y="393.12" as="sourcePoint" />
            <mxPoint x="3706" y="419" as="targetPoint" />
          </mxGeometry>
        </mxCell>
        <mxCell id="k3gkesRyHBmJgMEclzgZ-618" value="" style="ellipse;whiteSpace=wrap;html=1;aspect=fixed;" vertex="1" parent="1">
          <mxGeometry x="3705" y="417" width="10" height="10" as="geometry" />
        </mxCell>
        <mxCell id="k3gkesRyHBmJgMEclzgZ-619" value="" style="endArrow=classic;html=1;rounded=0;exitX=0.639;exitY=1.052;exitDx=0;exitDy=0;exitPerimeter=0;" edge="1" parent="1">
          <mxGeometry width="50" height="50" relative="1" as="geometry">
            <mxPoint x="3714" y="426" as="sourcePoint" />
            <mxPoint x="3740.3199999999997" y="451.88" as="targetPoint" />
          </mxGeometry>
        </mxCell>
        <mxCell id="k3gkesRyHBmJgMEclzgZ-621" value="" style="endArrow=classic;html=1;rounded=0;exitX=0.194;exitY=0.994;exitDx=0;exitDy=0;exitPerimeter=0;" edge="1" parent="1">
          <mxGeometry width="50" height="50" relative="1" as="geometry">
            <mxPoint x="3625.2799999999997" y="390.64" as="sourcePoint" />
            <mxPoint x="3625" y="400" as="targetPoint" />
          </mxGeometry>
        </mxCell>
        <mxCell id="k3gkesRyHBmJgMEclzgZ-622" value="" style="ellipse;whiteSpace=wrap;html=1;aspect=fixed;" vertex="1" parent="1">
          <mxGeometry x="3619" y="400" width="10" height="10" as="geometry" />
        </mxCell>
        <mxCell id="k3gkesRyHBmJgMEclzgZ-623" value="" style="endArrow=classic;html=1;rounded=0;exitX=0.5;exitY=1;exitDx=0;exitDy=0;" edge="1" parent="1" source="k3gkesRyHBmJgMEclzgZ-622">
          <mxGeometry width="50" height="50" relative="1" as="geometry">
            <mxPoint x="3620" y="410" as="sourcePoint" />
            <mxPoint x="3620" y="420" as="targetPoint" />
          </mxGeometry>
        </mxCell>
        <mxCell id="k3gkesRyHBmJgMEclzgZ-632" value="" style="endArrow=none;html=1;rounded=0;" edge="1" parent="1">
          <mxGeometry width="50" height="50" relative="1" as="geometry">
            <mxPoint x="3830" y="450" as="sourcePoint" />
            <mxPoint x="3810" y="470" as="targetPoint" />
          </mxGeometry>
        </mxCell>
        <mxCell id="k3gkesRyHBmJgMEclzgZ-633" value="" style="endArrow=none;html=1;rounded=0;" edge="1" parent="1">
          <mxGeometry width="50" height="50" relative="1" as="geometry">
            <mxPoint x="3750" y="400" as="sourcePoint" />
            <mxPoint x="3730" y="420" as="targetPoint" />
          </mxGeometry>
        </mxCell>
        <mxCell id="k3gkesRyHBmJgMEclzgZ-634" value="" style="endArrow=none;html=1;rounded=0;" edge="1" parent="1">
          <mxGeometry width="50" height="50" relative="1" as="geometry">
            <mxPoint x="3700" y="450" as="sourcePoint" />
            <mxPoint x="3681" y="467" as="targetPoint" />
          </mxGeometry>
        </mxCell>
        <mxCell id="k3gkesRyHBmJgMEclzgZ-635" value="" style="endArrow=none;html=1;rounded=0;" edge="1" parent="1">
          <mxGeometry width="50" height="50" relative="1" as="geometry">
            <mxPoint x="3626" y="450" as="sourcePoint" />
            <mxPoint x="3606" y="450" as="targetPoint" />
          </mxGeometry>
        </mxCell>
        <mxCell id="k3gkesRyHBmJgMEclzgZ-636" value="" style="endArrow=none;html=1;rounded=0;" edge="1" parent="1">
          <mxGeometry width="50" height="50" relative="1" as="geometry">
            <mxPoint x="3791" y="467" as="sourcePoint" />
            <mxPoint x="3771" y="487" as="targetPoint" />
          </mxGeometry>
        </mxCell>
        <mxCell id="k3gkesRyHBmJgMEclzgZ-637" value="План догляду" style="rounded=0;whiteSpace=wrap;html=1;" vertex="1" parent="1">
          <mxGeometry x="3690" y="630" width="120" height="60" as="geometry" />
        </mxCell>
        <mxCell id="k3gkesRyHBmJgMEclzgZ-638" value="Цілі" style="ellipse;whiteSpace=wrap;html=1;" vertex="1" parent="1">
          <mxGeometry x="3390" y="780" width="90" height="60" as="geometry" />
        </mxCell>
        <mxCell id="k3gkesRyHBmJgMEclzgZ-639" value="Видавці" style="ellipse;whiteSpace=wrap;html=1;" vertex="1" parent="1">
          <mxGeometry x="3500" y="780" width="90" height="60" as="geometry" />
        </mxCell>
        <mxCell id="k3gkesRyHBmJgMEclzgZ-640" value="Дата" style="ellipse;whiteSpace=wrap;html=1;" vertex="1" parent="1">
          <mxGeometry x="3610" y="780" width="90" height="60" as="geometry" />
        </mxCell>
        <mxCell id="k3gkesRyHBmJgMEclzgZ-641" value="Статус" style="ellipse;whiteSpace=wrap;html=1;" vertex="1" parent="1">
          <mxGeometry x="3739.5" y="785" width="90" height="60" as="geometry" />
        </mxCell>
        <mxCell id="k3gkesRyHBmJgMEclzgZ-642" value="Продукти" style="ellipse;whiteSpace=wrap;html=1;" vertex="1" parent="1">
          <mxGeometry x="3870" y="780" width="90" height="65" as="geometry" />
        </mxCell>
        <mxCell id="k3gkesRyHBmJgMEclzgZ-643" value="Час" style="ellipse;whiteSpace=wrap;html=1;" vertex="1" parent="1">
          <mxGeometry x="4000" y="770" width="90" height="60" as="geometry" />
        </mxCell>
        <mxCell id="k3gkesRyHBmJgMEclzgZ-644" value="" style="endArrow=classic;html=1;rounded=0;entryX=0.922;entryY=0.243;entryDx=0;entryDy=0;entryPerimeter=0;exitX=0.026;exitY=0.648;exitDx=0;exitDy=0;exitPerimeter=0;" edge="1" parent="1" source="k3gkesRyHBmJgMEclzgZ-645">
          <mxGeometry width="50" height="50" relative="1" as="geometry">
            <mxPoint x="3515" y="685" as="sourcePoint" />
            <mxPoint x="3413" y="715" as="targetPoint" />
          </mxGeometry>
        </mxCell>
        <mxCell id="k3gkesRyHBmJgMEclzgZ-645" value="ID-догляду" style="text;html=1;whiteSpace=wrap;strokeColor=none;fillColor=none;align=center;verticalAlign=middle;rounded=0;" vertex="1" parent="1">
          <mxGeometry x="3515" y="670" width="60" height="30" as="geometry" />
        </mxCell>
        <mxCell id="k3gkesRyHBmJgMEclzgZ-646" value="" style="endArrow=classic;html=1;rounded=0;entryX=0.922;entryY=0.243;entryDx=0;entryDy=0;entryPerimeter=0;" edge="1" parent="1">
          <mxGeometry width="50" height="50" relative="1" as="geometry">
            <mxPoint x="3560" y="740" as="sourcePoint" />
            <mxPoint x="3456" y="783" as="targetPoint" />
          </mxGeometry>
        </mxCell>
        <mxCell id="k3gkesRyHBmJgMEclzgZ-647" value="мета" style="text;html=1;whiteSpace=wrap;strokeColor=none;fillColor=none;align=center;verticalAlign=middle;rounded=0;" vertex="1" parent="1">
          <mxGeometry x="3555" y="715" width="60" height="30" as="geometry" />
        </mxCell>
        <mxCell id="k3gkesRyHBmJgMEclzgZ-648" value="" style="endArrow=classic;html=1;rounded=0;entryX=0.922;entryY=0.243;entryDx=0;entryDy=0;entryPerimeter=0;exitX=0;exitY=0.25;exitDx=0;exitDy=0;" edge="1" parent="1" source="k3gkesRyHBmJgMEclzgZ-637">
          <mxGeometry width="50" height="50" relative="1" as="geometry">
            <mxPoint x="3680" y="650" as="sourcePoint" />
            <mxPoint x="3575" y="676" as="targetPoint" />
          </mxGeometry>
        </mxCell>
        <mxCell id="k3gkesRyHBmJgMEclzgZ-649" value="" style="endArrow=classic;html=1;rounded=0;entryX=0.922;entryY=0.243;entryDx=0;entryDy=0;entryPerimeter=0;exitX=0.02;exitY=0.876;exitDx=0;exitDy=0;exitPerimeter=0;" edge="1" parent="1" source="k3gkesRyHBmJgMEclzgZ-637">
          <mxGeometry width="50" height="50" relative="1" as="geometry">
            <mxPoint x="3700" y="690" as="sourcePoint" />
            <mxPoint x="3600" y="721" as="targetPoint" />
          </mxGeometry>
        </mxCell>
        <mxCell id="k3gkesRyHBmJgMEclzgZ-650" value="" style="endArrow=classic;html=1;rounded=0;exitX=0.101;exitY=0.995;exitDx=0;exitDy=0;exitPerimeter=0;entryX=0.794;entryY=0.138;entryDx=0;entryDy=0;entryPerimeter=0;" edge="1" parent="1" source="k3gkesRyHBmJgMEclzgZ-637" target="k3gkesRyHBmJgMEclzgZ-639">
          <mxGeometry width="50" height="50" relative="1" as="geometry">
            <mxPoint x="3700" y="730" as="sourcePoint" />
            <mxPoint x="3750" y="680" as="targetPoint" />
          </mxGeometry>
        </mxCell>
        <mxCell id="k3gkesRyHBmJgMEclzgZ-651" value="&lt;span style=&quot;font-size: 12px; text-wrap-mode: wrap; background-color: rgb(236, 236, 236);&quot;&gt;АІ/лікар&lt;/span&gt;" style="edgeLabel;html=1;align=center;verticalAlign=middle;resizable=0;points=[];" vertex="1" connectable="0" parent="k3gkesRyHBmJgMEclzgZ-650">
          <mxGeometry x="0.0667" relative="1" as="geometry">
            <mxPoint y="-1" as="offset" />
          </mxGeometry>
        </mxCell>
        <mxCell id="k3gkesRyHBmJgMEclzgZ-652" value="" style="endArrow=classic;html=1;rounded=0;exitX=0.25;exitY=1;exitDx=0;exitDy=0;entryX=0.706;entryY=-0.005;entryDx=0;entryDy=0;entryPerimeter=0;" edge="1" parent="1" source="k3gkesRyHBmJgMEclzgZ-637" target="k3gkesRyHBmJgMEclzgZ-640">
          <mxGeometry width="50" height="50" relative="1" as="geometry">
            <mxPoint x="3686" y="780" as="sourcePoint" />
            <mxPoint x="3570" y="878" as="targetPoint" />
          </mxGeometry>
        </mxCell>
        <mxCell id="k3gkesRyHBmJgMEclzgZ-653" value="число" style="edgeLabel;html=1;align=center;verticalAlign=middle;resizable=0;points=[];" vertex="1" connectable="0" parent="k3gkesRyHBmJgMEclzgZ-652">
          <mxGeometry x="0.0186" y="-1" relative="1" as="geometry">
            <mxPoint as="offset" />
          </mxGeometry>
        </mxCell>
        <mxCell id="k3gkesRyHBmJgMEclzgZ-654" value="" style="endArrow=classic;html=1;rounded=0;exitX=0.637;exitY=0.995;exitDx=0;exitDy=0;exitPerimeter=0;" edge="1" parent="1" source="k3gkesRyHBmJgMEclzgZ-637" target="k3gkesRyHBmJgMEclzgZ-641">
          <mxGeometry width="50" height="50" relative="1" as="geometry">
            <mxPoint x="3701" y="770" as="sourcePoint" />
            <mxPoint x="3670" y="860" as="targetPoint" />
          </mxGeometry>
        </mxCell>
        <mxCell id="k3gkesRyHBmJgMEclzgZ-655" value="Заплановано/&lt;div&gt;пройдено/&lt;/div&gt;&lt;div&gt;в процесі&lt;/div&gt;" style="edgeLabel;html=1;align=center;verticalAlign=middle;resizable=0;points=[];" vertex="1" connectable="0" parent="k3gkesRyHBmJgMEclzgZ-654">
          <mxGeometry x="-0.0552" relative="1" as="geometry">
            <mxPoint y="2" as="offset" />
          </mxGeometry>
        </mxCell>
        <mxCell id="k3gkesRyHBmJgMEclzgZ-656" value="" style="endArrow=classic;html=1;rounded=0;exitX=0.958;exitY=0.99;exitDx=0;exitDy=0;exitPerimeter=0;entryX=0.31;entryY=0.078;entryDx=0;entryDy=0;entryPerimeter=0;" edge="1" parent="1" source="k3gkesRyHBmJgMEclzgZ-637" target="k3gkesRyHBmJgMEclzgZ-642">
          <mxGeometry width="50" height="50" relative="1" as="geometry">
            <mxPoint x="3881" y="780" as="sourcePoint" />
            <mxPoint x="3953" y="789" as="targetPoint" />
          </mxGeometry>
        </mxCell>
        <mxCell id="k3gkesRyHBmJgMEclzgZ-657" value="Засіб" style="edgeLabel;html=1;align=center;verticalAlign=middle;resizable=0;points=[];" vertex="1" connectable="0" parent="k3gkesRyHBmJgMEclzgZ-656">
          <mxGeometry x="0.0709" y="-3" relative="1" as="geometry">
            <mxPoint as="offset" />
          </mxGeometry>
        </mxCell>
        <mxCell id="k3gkesRyHBmJgMEclzgZ-658" value="" style="endArrow=classic;html=1;rounded=0;exitX=0.958;exitY=0.99;exitDx=0;exitDy=0;exitPerimeter=0;entryX=0.5;entryY=0;entryDx=0;entryDy=0;" edge="1" parent="1" target="k3gkesRyHBmJgMEclzgZ-643">
          <mxGeometry width="50" height="50" relative="1" as="geometry">
            <mxPoint x="3810" y="670" as="sourcePoint" />
            <mxPoint x="3958" y="770" as="targetPoint" />
          </mxGeometry>
        </mxCell>
        <mxCell id="k3gkesRyHBmJgMEclzgZ-659" value="Вечірня/&lt;div&gt;обідня процедура&lt;/div&gt;" style="edgeLabel;html=1;align=center;verticalAlign=middle;resizable=0;points=[];" vertex="1" connectable="0" parent="k3gkesRyHBmJgMEclzgZ-658">
          <mxGeometry x="-0.1154" y="-2" relative="1" as="geometry">
            <mxPoint as="offset" />
          </mxGeometry>
        </mxCell>
        <mxCell id="k3gkesRyHBmJgMEclzgZ-660" value="" style="verticalLabelPosition=bottom;shadow=0;dashed=0;align=center;html=1;verticalAlign=top;shape=mxgraph.electrical.transmission.2_line_bus;rotation=75;" vertex="1" parent="1">
          <mxGeometry x="3621" y="657" width="30" height="10" as="geometry" />
        </mxCell>
        <mxCell id="k3gkesRyHBmJgMEclzgZ-661" value="" style="verticalLabelPosition=bottom;shadow=0;dashed=0;align=center;html=1;verticalAlign=top;shape=mxgraph.electrical.transmission.2_line_bus;rotation=75;" vertex="1" parent="1">
          <mxGeometry x="3450" y="700" width="30" height="10" as="geometry" />
        </mxCell>
        <mxCell id="k3gkesRyHBmJgMEclzgZ-663" value="" style="verticalLabelPosition=bottom;shadow=0;dashed=0;align=center;html=1;verticalAlign=top;shape=mxgraph.electrical.transmission.2_line_bus;rotation=75;" vertex="1" parent="1">
          <mxGeometry x="3637.001914807983" y="696.0029826198486" width="30" height="10" as="geometry" />
        </mxCell>
        <mxCell id="k3gkesRyHBmJgMEclzgZ-665" value="" style="verticalLabelPosition=bottom;shadow=0;dashed=0;align=center;html=1;verticalAlign=top;shape=mxgraph.electrical.transmission.2_line_bus;rotation=0;" vertex="1" parent="1">
          <mxGeometry x="3810" y="706" width="30" height="10" as="geometry" />
        </mxCell>
        <mxCell id="k3gkesRyHBmJgMEclzgZ-666" value="" style="verticalLabelPosition=bottom;shadow=0;dashed=0;align=center;html=1;verticalAlign=top;shape=mxgraph.electrical.transmission.2_line_bus;rotation=30;" vertex="1" parent="1">
          <mxGeometry x="3690.001914807983" y="710.0029826198486" width="30" height="10" as="geometry" />
        </mxCell>
        <mxCell id="k3gkesRyHBmJgMEclzgZ-667" value="" style="verticalLabelPosition=bottom;shadow=0;dashed=0;align=center;html=1;verticalAlign=top;shape=mxgraph.electrical.transmission.2_line_bus;rotation=0;" vertex="1" parent="1">
          <mxGeometry x="3753" y="705" width="32.28" height="10" as="geometry" />
        </mxCell>
        <mxCell id="k3gkesRyHBmJgMEclzgZ-668" value="" style="verticalLabelPosition=bottom;shadow=0;dashed=0;align=center;html=1;verticalAlign=top;shape=mxgraph.electrical.transmission.2_line_bus;rotation=75;" vertex="1" parent="1">
          <mxGeometry x="3656.7119148079832" y="706.7829826198486" width="30" height="10" as="geometry" />
        </mxCell>
        <mxCell id="k3gkesRyHBmJgMEclzgZ-669" value="" style="endArrow=none;html=1;rounded=0;" edge="1" parent="1">
          <mxGeometry width="50" height="50" relative="1" as="geometry">
            <mxPoint x="3672" y="755" as="sourcePoint" />
            <mxPoint x="3692" y="765" as="targetPoint" />
          </mxGeometry>
        </mxCell>
        <mxCell id="k3gkesRyHBmJgMEclzgZ-670" value="" style="endArrow=none;html=1;rounded=0;" edge="1" parent="1">
          <mxGeometry width="50" height="50" relative="1" as="geometry">
            <mxPoint x="3767" y="760" as="sourcePoint" />
            <mxPoint x="3787" y="760" as="targetPoint" />
          </mxGeometry>
        </mxCell>
        <mxCell id="k3gkesRyHBmJgMEclzgZ-671" value="" style="verticalLabelPosition=bottom;shadow=0;dashed=0;align=center;html=1;verticalAlign=top;shape=mxgraph.electrical.transmission.2_line_bus;rotation=-30;" vertex="1" parent="1">
          <mxGeometry x="3845" y="686" width="32.28" height="10" as="geometry" />
        </mxCell>
        <mxCell id="k3gkesRyHBmJgMEclzgZ-672" value="" style="endArrow=none;html=1;rounded=0;" edge="1" parent="1">
          <mxGeometry width="50" height="50" relative="1" as="geometry">
            <mxPoint x="3969" y="749" as="sourcePoint" />
            <mxPoint x="3989" y="739" as="targetPoint" />
          </mxGeometry>
        </mxCell>
        <mxCell id="k3gkesRyHBmJgMEclzgZ-673" value="" style="verticalLabelPosition=bottom;shadow=0;dashed=0;align=center;html=1;verticalAlign=top;shape=mxgraph.electrical.transmission.2_line_bus;rotation=45;" vertex="1" parent="1">
          <mxGeometry x="3584.7119148079832" y="762.7829826198487" width="30" height="10" as="geometry" />
        </mxCell>
        <mxCell id="k3gkesRyHBmJgMEclzgZ-674" value="" style="endArrow=none;html=1;rounded=0;" edge="1" parent="1">
          <mxGeometry width="50" height="50" relative="1" as="geometry">
            <mxPoint x="3676" y="747" as="sourcePoint" />
            <mxPoint x="3696" y="757" as="targetPoint" />
          </mxGeometry>
        </mxCell>
        <mxCell id="k3gkesRyHBmJgMEclzgZ-675" value="" style="endArrow=none;html=1;rounded=0;" edge="1" parent="1">
          <mxGeometry width="50" height="50" relative="1" as="geometry">
            <mxPoint x="3768" y="771" as="sourcePoint" />
            <mxPoint x="3788" y="771" as="targetPoint" />
          </mxGeometry>
        </mxCell>
        <mxCell id="k3gkesRyHBmJgMEclzgZ-677" value="" style="endArrow=none;html=1;rounded=0;" edge="1" parent="1">
          <mxGeometry width="50" height="50" relative="1" as="geometry">
            <mxPoint x="3502" y="753" as="sourcePoint" />
            <mxPoint x="3522" y="763" as="targetPoint" />
          </mxGeometry>
        </mxCell>
        <mxCell id="k3gkesRyHBmJgMEclzgZ-678" value="" style="endArrow=none;html=1;rounded=0;" edge="1" parent="1">
          <mxGeometry width="50" height="50" relative="1" as="geometry">
            <mxPoint x="3886" y="758" as="sourcePoint" />
            <mxPoint x="3866" y="770" as="targetPoint" />
          </mxGeometry>
        </mxCell>
        <mxCell id="k3gkesRyHBmJgMEclzgZ-679" value="Консультація" style="rounded=0;whiteSpace=wrap;html=1;" vertex="1" parent="1">
          <mxGeometry x="3762" y="893.5" width="120" height="60" as="geometry" />
        </mxCell>
        <mxCell id="k3gkesRyHBmJgMEclzgZ-680" value="ID" style="ellipse;whiteSpace=wrap;html=1;" vertex="1" parent="1">
          <mxGeometry x="3402" y="963.5" width="90" height="60" as="geometry" />
        </mxCell>
        <mxCell id="k3gkesRyHBmJgMEclzgZ-681" value="Дата" style="ellipse;whiteSpace=wrap;html=1;" vertex="1" parent="1">
          <mxGeometry x="3458" y="1040.5" width="90" height="60" as="geometry" />
        </mxCell>
        <mxCell id="k3gkesRyHBmJgMEclzgZ-682" value="Статус&lt;div&gt;виконання&lt;/div&gt;" style="ellipse;whiteSpace=wrap;html=1;" vertex="1" parent="1">
          <mxGeometry x="3572" y="1043.5" width="90" height="60" as="geometry" />
        </mxCell>
        <mxCell id="k3gkesRyHBmJgMEclzgZ-683" value="Лікар" style="ellipse;whiteSpace=wrap;html=1;" vertex="1" parent="1">
          <mxGeometry x="3682" y="1043.5" width="90" height="60" as="geometry" />
        </mxCell>
        <mxCell id="k3gkesRyHBmJgMEclzgZ-684" value="Вартість" style="ellipse;whiteSpace=wrap;html=1;" vertex="1" parent="1">
          <mxGeometry x="3812" y="1043.5" width="90" height="60" as="geometry" />
        </mxCell>
        <mxCell id="k3gkesRyHBmJgMEclzgZ-685" value="" style="endArrow=classic;html=1;rounded=0;entryX=0.922;entryY=0.243;entryDx=0;entryDy=0;entryPerimeter=0;exitX=0.026;exitY=0.648;exitDx=0;exitDy=0;exitPerimeter=0;" edge="1" parent="1" source="k3gkesRyHBmJgMEclzgZ-686" target="k3gkesRyHBmJgMEclzgZ-680">
          <mxGeometry width="50" height="50" relative="1" as="geometry">
            <mxPoint x="3587" y="948.5" as="sourcePoint" />
            <mxPoint x="3652" y="933.5" as="targetPoint" />
          </mxGeometry>
        </mxCell>
        <mxCell id="k3gkesRyHBmJgMEclzgZ-686" value="ID-консультації" style="text;html=1;whiteSpace=wrap;strokeColor=none;fillColor=none;align=center;verticalAlign=middle;rounded=0;" vertex="1" parent="1">
          <mxGeometry x="3587" y="933.5" width="60" height="30" as="geometry" />
        </mxCell>
        <mxCell id="k3gkesRyHBmJgMEclzgZ-687" value="" style="endArrow=classic;html=1;rounded=0;entryX=0.922;entryY=0.243;entryDx=0;entryDy=0;entryPerimeter=0;" edge="1" parent="1">
          <mxGeometry width="50" height="50" relative="1" as="geometry">
            <mxPoint x="3626" y="1000" as="sourcePoint" />
            <mxPoint x="3522" y="1042.5" as="targetPoint" />
          </mxGeometry>
        </mxCell>
        <mxCell id="k3gkesRyHBmJgMEclzgZ-688" value="Дата" style="text;html=1;whiteSpace=wrap;strokeColor=none;fillColor=none;align=center;verticalAlign=middle;rounded=0;" vertex="1" parent="1">
          <mxGeometry x="3617" y="972.5" width="60" height="30" as="geometry" />
        </mxCell>
        <mxCell id="k3gkesRyHBmJgMEclzgZ-689" value="" style="endArrow=classic;html=1;rounded=0;entryX=0.922;entryY=0.243;entryDx=0;entryDy=0;entryPerimeter=0;exitX=0;exitY=0.25;exitDx=0;exitDy=0;" edge="1" parent="1" source="k3gkesRyHBmJgMEclzgZ-679">
          <mxGeometry width="50" height="50" relative="1" as="geometry">
            <mxPoint x="3752" y="913.5" as="sourcePoint" />
            <mxPoint x="3647" y="939.5" as="targetPoint" />
          </mxGeometry>
        </mxCell>
        <mxCell id="k3gkesRyHBmJgMEclzgZ-690" value="" style="endArrow=classic;html=1;rounded=0;entryX=0.922;entryY=0.243;entryDx=0;entryDy=0;entryPerimeter=0;exitX=0.02;exitY=0.876;exitDx=0;exitDy=0;exitPerimeter=0;" edge="1" parent="1" source="k3gkesRyHBmJgMEclzgZ-679">
          <mxGeometry width="50" height="50" relative="1" as="geometry">
            <mxPoint x="3772" y="953.5" as="sourcePoint" />
            <mxPoint x="3672" y="984.5" as="targetPoint" />
          </mxGeometry>
        </mxCell>
        <mxCell id="k3gkesRyHBmJgMEclzgZ-691" value="" style="endArrow=classic;html=1;rounded=0;exitX=0.101;exitY=0.995;exitDx=0;exitDy=0;exitPerimeter=0;entryX=0.794;entryY=0.138;entryDx=0;entryDy=0;entryPerimeter=0;" edge="1" parent="1" source="k3gkesRyHBmJgMEclzgZ-679" target="k3gkesRyHBmJgMEclzgZ-682">
          <mxGeometry width="50" height="50" relative="1" as="geometry">
            <mxPoint x="3772" y="993.5" as="sourcePoint" />
            <mxPoint x="3822" y="943.5" as="targetPoint" />
          </mxGeometry>
        </mxCell>
        <mxCell id="k3gkesRyHBmJgMEclzgZ-692" value="Запланована/&lt;div&gt;проведена&lt;/div&gt;" style="edgeLabel;html=1;align=center;verticalAlign=middle;resizable=0;points=[];" vertex="1" connectable="0" parent="k3gkesRyHBmJgMEclzgZ-691">
          <mxGeometry x="0.0667" relative="1" as="geometry">
            <mxPoint x="-6" y="5" as="offset" />
          </mxGeometry>
        </mxCell>
        <mxCell id="k3gkesRyHBmJgMEclzgZ-693" value="" style="endArrow=classic;html=1;rounded=0;exitX=0.25;exitY=1;exitDx=0;exitDy=0;entryX=0.706;entryY=-0.005;entryDx=0;entryDy=0;entryPerimeter=0;" edge="1" parent="1" source="k3gkesRyHBmJgMEclzgZ-679" target="k3gkesRyHBmJgMEclzgZ-683">
          <mxGeometry width="50" height="50" relative="1" as="geometry">
            <mxPoint x="3758" y="1043.5" as="sourcePoint" />
            <mxPoint x="3642" y="1141.5" as="targetPoint" />
          </mxGeometry>
        </mxCell>
        <mxCell id="k3gkesRyHBmJgMEclzgZ-694" value="Дерматолог/&lt;div&gt;трихолог&lt;/div&gt;" style="edgeLabel;html=1;align=center;verticalAlign=middle;resizable=0;points=[];" vertex="1" connectable="0" parent="k3gkesRyHBmJgMEclzgZ-693">
          <mxGeometry x="0.0186" y="-1" relative="1" as="geometry">
            <mxPoint as="offset" />
          </mxGeometry>
        </mxCell>
        <mxCell id="k3gkesRyHBmJgMEclzgZ-695" value="" style="endArrow=classic;html=1;rounded=0;exitX=0.637;exitY=0.995;exitDx=0;exitDy=0;exitPerimeter=0;" edge="1" parent="1" source="k3gkesRyHBmJgMEclzgZ-679" target="k3gkesRyHBmJgMEclzgZ-684">
          <mxGeometry width="50" height="50" relative="1" as="geometry">
            <mxPoint x="3773" y="1033.5" as="sourcePoint" />
            <mxPoint x="3742" y="1123.5" as="targetPoint" />
          </mxGeometry>
        </mxCell>
        <mxCell id="k3gkesRyHBmJgMEclzgZ-696" value="ціна&amp;nbsp;&lt;div&gt;консультації&lt;/div&gt;" style="edgeLabel;html=1;align=center;verticalAlign=middle;resizable=0;points=[];" vertex="1" connectable="0" parent="k3gkesRyHBmJgMEclzgZ-695">
          <mxGeometry x="-0.0552" relative="1" as="geometry">
            <mxPoint as="offset" />
          </mxGeometry>
        </mxCell>
        <mxCell id="k3gkesRyHBmJgMEclzgZ-697" value="" style="verticalLabelPosition=bottom;shadow=0;dashed=0;align=center;html=1;verticalAlign=top;shape=mxgraph.electrical.transmission.2_line_bus;rotation=75;" vertex="1" parent="1">
          <mxGeometry x="3693" y="920.5" width="30" height="10" as="geometry" />
        </mxCell>
        <mxCell id="k3gkesRyHBmJgMEclzgZ-698" value="" style="verticalLabelPosition=bottom;shadow=0;dashed=0;align=center;html=1;verticalAlign=top;shape=mxgraph.electrical.transmission.2_line_bus;rotation=75;" vertex="1" parent="1">
          <mxGeometry x="3522" y="963.5" width="30" height="10" as="geometry" />
        </mxCell>
        <mxCell id="k3gkesRyHBmJgMEclzgZ-699" value="" style="verticalLabelPosition=bottom;shadow=0;dashed=0;align=center;html=1;verticalAlign=top;shape=mxgraph.electrical.transmission.2_line_bus;rotation=75;" vertex="1" parent="1">
          <mxGeometry x="3568.001914807983" y="1016.5029826198486" width="30" height="10" as="geometry" />
        </mxCell>
        <mxCell id="k3gkesRyHBmJgMEclzgZ-700" value="" style="verticalLabelPosition=bottom;shadow=0;dashed=0;align=center;html=1;verticalAlign=top;shape=mxgraph.electrical.transmission.2_line_bus;rotation=75;" vertex="1" parent="1">
          <mxGeometry x="3709.001914807983" y="959.5029826198486" width="30" height="10" as="geometry" />
        </mxCell>
        <mxCell id="k3gkesRyHBmJgMEclzgZ-701" value="" style="verticalLabelPosition=bottom;shadow=0;dashed=0;align=center;html=1;verticalAlign=top;shape=mxgraph.electrical.transmission.2_line_bus;rotation=30;" vertex="1" parent="1">
          <mxGeometry x="3762.001914807983" y="973.5029826198486" width="30" height="10" as="geometry" />
        </mxCell>
        <mxCell id="k3gkesRyHBmJgMEclzgZ-702" value="" style="verticalLabelPosition=bottom;shadow=0;dashed=0;align=center;html=1;verticalAlign=top;shape=mxgraph.electrical.transmission.2_line_bus;rotation=0;" vertex="1" parent="1">
          <mxGeometry x="3825" y="968.5" width="32.28" height="10" as="geometry" />
        </mxCell>
        <mxCell id="k3gkesRyHBmJgMEclzgZ-703" value="" style="verticalLabelPosition=bottom;shadow=0;dashed=0;align=center;html=1;verticalAlign=top;shape=mxgraph.electrical.transmission.2_line_bus;rotation=75;" vertex="1" parent="1">
          <mxGeometry x="3728.7119148079832" y="970.2829826198486" width="30" height="10" as="geometry" />
        </mxCell>
        <mxCell id="k3gkesRyHBmJgMEclzgZ-704" value="" style="endArrow=none;html=1;rounded=0;" edge="1" parent="1">
          <mxGeometry width="50" height="50" relative="1" as="geometry">
            <mxPoint x="3744" y="1018.5" as="sourcePoint" />
            <mxPoint x="3764" y="1028.5" as="targetPoint" />
          </mxGeometry>
        </mxCell>
        <mxCell id="k3gkesRyHBmJgMEclzgZ-705" value="" style="endArrow=none;html=1;rounded=0;" edge="1" parent="1">
          <mxGeometry width="50" height="50" relative="1" as="geometry">
            <mxPoint x="3839" y="1021.5" as="sourcePoint" />
            <mxPoint x="3859" y="1021.5" as="targetPoint" />
          </mxGeometry>
        </mxCell>
        <mxCell id="k3gkesRyHBmJgMEclzgZ-707" value="" style="endArrow=none;html=1;rounded=0;" edge="1" parent="1">
          <mxGeometry width="50" height="50" relative="1" as="geometry">
            <mxPoint x="3748" y="1010.5" as="sourcePoint" />
            <mxPoint x="3768" y="1020.5" as="targetPoint" />
          </mxGeometry>
        </mxCell>
        <mxCell id="k3gkesRyHBmJgMEclzgZ-708" value="" style="endArrow=none;html=1;rounded=0;" edge="1" parent="1">
          <mxGeometry width="50" height="50" relative="1" as="geometry">
            <mxPoint x="3840" y="1030.5" as="sourcePoint" />
            <mxPoint x="3860" y="1030.5" as="targetPoint" />
          </mxGeometry>
        </mxCell>
        <mxCell id="k3gkesRyHBmJgMEclzgZ-709" value="" style="endArrow=none;html=1;rounded=0;" edge="1" parent="1">
          <mxGeometry width="50" height="50" relative="1" as="geometry">
            <mxPoint x="3657" y="1030" as="sourcePoint" />
            <mxPoint x="3677" y="1040" as="targetPoint" />
          </mxGeometry>
        </mxCell>
      </root>
    </mxGraphModel>
  </diagram>
</mxfile>
